<?xml version="1.0" encoding="utf-8" ?>
<svg xmlns="http://www.w3.org/2000/svg" xmlns:xlink="http://www.w3.org/1999/xlink" width="24" height="24">
	<defs>
		<clipPath id="clip_0">
			<path d="M49 -577Q49 -577.205 48.9907 -577.408Q48.9813 -577.612 48.9627 -577.814Q48.9441 -578.016 48.9162 -578.215Q48.8883 -578.415 48.8512 -578.612Q48.8141 -578.808 48.7678 -579.002Q48.7216 -579.196 48.6663 -579.387Q48.611 -579.577 48.5468 -579.764Q48.4825 -579.951 48.4095 -580.133Q48.3365 -580.316 48.2548 -580.494Q48.1732 -580.672 48.083 -580.845Q47.9928 -581.018 47.8944 -581.186Q47.7959 -581.354 47.6894 -581.516Q47.5829 -581.678 47.4684 -581.834Q47.354 -581.991 47.2319 -582.141Q47.1098 -582.291 46.9804 -582.434Q46.8509 -582.578 46.7143 -582.714Q46.5777 -582.851 46.4342 -582.98Q46.2908 -583.11 46.1407 -583.232Q45.9907 -583.354 45.8344 -583.468Q45.6782 -583.583 45.5159 -583.689Q45.3537 -583.796 45.1859 -583.894Q45.0181 -583.993 44.845 -584.083Q44.6719 -584.173 44.4939 -584.255Q44.3159 -584.336 44.1333 -584.41Q43.9508 -584.483 43.7641 -584.547Q43.5773 -584.611 43.3868 -584.666Q43.1963 -584.722 43.0024 -584.768Q42.8084 -584.814 42.6115 -584.851Q42.4146 -584.888 42.215 -584.916Q42.0155 -584.944 41.8137 -584.963Q41.612 -584.981 41.4085 -584.991Q41.2049 -585 41 -585L-318 -585Q-318.205 -585 -318.408 -584.991Q-318.612 -584.981 -318.814 -584.963Q-319.016 -584.944 -319.215 -584.916Q-319.415 -584.888 -319.612 -584.851Q-319.809 -584.814 -320.002 -584.768Q-320.196 -584.722 -320.387 -584.666Q-320.577 -584.611 -320.764 -584.547Q-320.951 -584.483 -321.133 -584.41Q-321.316 -584.336 -321.494 -584.255Q-321.672 -584.173 -321.845 -584.083Q-322.018 -583.993 -322.186 -583.894Q-322.354 -583.796 -322.516 -583.689Q-322.678 -583.583 -322.834 -583.468Q-322.991 -583.354 -323.141 -583.232Q-323.291 -583.11 -323.434 -582.98Q-323.578 -582.851 -323.714 -582.714Q-323.851 -582.578 -323.98 -582.434Q-324.11 -582.291 -324.232 -582.141Q-324.354 -581.991 -324.468 -581.834Q-324.583 -581.678 -324.689 -581.516Q-324.796 -581.354 -324.894 -581.186Q-324.993 -581.018 -325.083 -580.845Q-325.173 -580.672 -325.255 -580.494Q-325.337 -580.316 -325.41 -580.133Q-325.483 -579.951 -325.547 -579.764Q-325.611 -579.577 -325.666 -579.387Q-325.722 -579.196 -325.768 -579.002Q-325.814 -578.808 -325.851 -578.612Q-325.888 -578.415 -325.916 -578.215Q-325.944 -578.016 -325.963 -577.814Q-325.981 -577.612 -325.991 -577.408Q-326 -577.205 -326 -577L-326 74Q-326 74.2049 -325.991 74.4085Q-325.981 74.612 -325.963 74.8137Q-325.944 75.0155 -325.916 75.215Q-325.888 75.4146 -325.851 75.6115Q-325.814 75.8084 -325.768 76.0024Q-325.722 76.1963 -325.666 76.3868Q-325.611 76.5773 -325.547 76.7641Q-325.483 76.9508 -325.41 77.1333Q-325.337 77.3159 -325.255 77.4939Q-325.173 77.6719 -325.083 77.845Q-324.993 78.0181 -324.894 78.1859Q-324.796 78.3537 -324.689 78.5159Q-324.583 78.6782 -324.468 78.8344Q-324.354 78.9907 -324.232 79.1407Q-324.11 79.2908 -323.98 79.4342Q-323.851 79.5777 -323.714 79.7143Q-323.578 79.8509 -323.434 79.9804Q-323.291 80.1098 -323.141 80.2319Q-322.991 80.354 -322.834 80.4684Q-322.678 80.5829 -322.516 80.6894Q-322.354 80.796 -322.186 80.8944Q-322.018 80.9929 -321.845 81.083Q-321.672 81.1732 -321.494 81.2548Q-321.316 81.3365 -321.133 81.4095Q-320.951 81.4825 -320.764 81.5468Q-320.577 81.611 -320.387 81.6663Q-320.196 81.7216 -320.002 81.7678Q-319.809 81.8141 -319.612 81.8512Q-319.415 81.8883 -319.215 81.9162Q-319.016 81.9441 -318.814 81.9627Q-318.612 81.9814 -318.408 81.9907Q-318.205 82 -318 82L41 82Q41.2049 82 41.4085 81.9907Q41.612 81.9814 41.8137 81.9627Q42.0155 81.9441 42.215 81.9162Q42.4146 81.8883 42.6115 81.8512Q42.8084 81.8141 43.0024 81.7678Q43.1963 81.7216 43.3868 81.6663Q43.5773 81.611 43.7641 81.5468Q43.9508 81.4825 44.1333 81.4095Q44.3159 81.3365 44.4939 81.2548Q44.6719 81.1732 44.845 81.083Q45.0181 80.9929 45.1859 80.8944Q45.3537 80.796 45.5159 80.6894Q45.6782 80.5829 45.8344 80.4684Q45.9907 80.354 46.1407 80.2319Q46.2908 80.1098 46.4342 79.9804Q46.5777 79.8509 46.7143 79.7143Q46.8509 79.5777 46.9804 79.4342Q47.1098 79.2908 47.2319 79.1407Q47.354 78.9907 47.4684 78.8344Q47.5829 78.6782 47.6894 78.5159Q47.7959 78.3537 47.8944 78.1859Q47.9928 78.0181 48.083 77.845Q48.1732 77.6719 48.2548 77.4939Q48.3365 77.3159 48.4095 77.1333Q48.4825 76.9508 48.5467 76.7641Q48.611 76.5773 48.6663 76.3868Q48.7216 76.1963 48.7678 76.0024Q48.8141 75.8084 48.8512 75.6115Q48.8883 75.4146 48.9162 75.215Q48.9441 75.0155 48.9627 74.8137Q48.9813 74.612 48.9907 74.4085Q49 74.2049 49 74L49 -577Z" clip-rule="evenodd"/>
		</clipPath>
		<linearGradient id="gradient_0" gradientUnits="userSpaceOnUse" x1="30.352848" y1="-13.315336" x2="-1.65695" y2="17.245665">
			<stop offset="0" stop-color="rgb(184,87,226)"/>
			<stop offset="1" stop-color="rgb(250,103,51)"/>
		</linearGradient>
	</defs>
	<g clip-path="url(#clip_0)">
		<path fill="url(#gradient_0)" stroke="none" d="M2.2908 6.83056C2.2908 6.9549 2.3006 7.07599 2.3166 7.19606L0.261 8.80841C0.0878 8.30374 0 7.93438 0 7.40431C0 4.77936 2.1952 2.28566 4.761 2.28566L13.5 2.28566L13.5 0L18 3.42848L13.5 6.85677L13.5 4.57111L5.0242 4.57111C4.1344 4.57111 2.2908 5.39984 2.2908 6.83056ZM15.7094 9.16985C15.7094 9.0449 15.6994 8.92442 15.684 8.80374L17.7384 7.19057C17.9122 7.69565 18 8.06501 18 8.5963C18 11.221 15.8048 13.7143 13.2384 13.7143L4.5 13.7143L4.5 16L0 12.5715L4.5 9.14303L4.5 11.4287L12.976 11.4287C13.8658 11.4287 15.7094 10.6006 15.7094 9.16985Z" fill-rule="evenodd"/>
	</g>
</svg>
