<?xml version="1.0" encoding="utf-8" ?>
<svg xmlns="http://www.w3.org/2000/svg" xmlns:xlink="http://www.w3.org/1999/xlink" width="32" height="34">
	<defs>
		<clipPath id="clip_0">
			<path d="M96 -587Q96 -587.205 95.9907 -587.409Q95.9814 -587.612 95.9627 -587.814Q95.9441 -588.016 95.9162 -588.215Q95.8883 -588.415 95.8512 -588.612Q95.8141 -588.809 95.7678 -589.002Q95.7216 -589.196 95.6663 -589.387Q95.611 -589.577 95.5468 -589.764Q95.4825 -589.951 95.4095 -590.133Q95.3365 -590.316 95.2548 -590.494Q95.1732 -590.672 95.083 -590.845Q94.9929 -591.018 94.8944 -591.186Q94.796 -591.354 94.6894 -591.516Q94.5829 -591.678 94.4684 -591.834Q94.354 -591.991 94.2319 -592.141Q94.1099 -592.291 93.9804 -592.434Q93.8509 -592.578 93.7143 -592.714Q93.5777 -592.851 93.4342 -592.98Q93.2908 -593.11 93.1407 -593.232Q92.9907 -593.354 92.8344 -593.469Q92.6782 -593.583 92.5159 -593.69Q92.3537 -593.796 92.1859 -593.894Q92.0181 -593.993 91.845 -594.083Q91.6719 -594.173 91.4939 -594.255Q91.3159 -594.337 91.1333 -594.41Q90.9508 -594.483 90.7641 -594.547Q90.5773 -594.611 90.3868 -594.666Q90.1963 -594.722 90.0024 -594.768Q89.8084 -594.814 89.6115 -594.851Q89.4146 -594.888 89.215 -594.916Q89.0155 -594.944 88.8137 -594.963Q88.612 -594.981 88.4085 -594.991Q88.2049 -595 88 -595L-271 -595Q-271.205 -595 -271.408 -594.991Q-271.612 -594.981 -271.814 -594.963Q-272.016 -594.944 -272.215 -594.916Q-272.415 -594.888 -272.612 -594.851Q-272.808 -594.814 -273.002 -594.768Q-273.196 -594.722 -273.387 -594.666Q-273.577 -594.611 -273.764 -594.547Q-273.951 -594.483 -274.133 -594.41Q-274.316 -594.337 -274.494 -594.255Q-274.672 -594.173 -274.845 -594.083Q-275.018 -593.993 -275.186 -593.894Q-275.354 -593.796 -275.516 -593.689Q-275.678 -593.583 -275.834 -593.469Q-275.991 -593.354 -276.141 -593.232Q-276.291 -593.11 -276.434 -592.98Q-276.578 -592.851 -276.714 -592.714Q-276.851 -592.578 -276.98 -592.434Q-277.11 -592.291 -277.232 -592.141Q-277.354 -591.991 -277.469 -591.835Q-277.583 -591.678 -277.689 -591.516Q-277.796 -591.354 -277.895 -591.186Q-277.993 -591.018 -278.083 -590.845Q-278.173 -590.672 -278.255 -590.494Q-278.337 -590.316 -278.41 -590.133Q-278.483 -589.951 -278.547 -589.764Q-278.611 -589.577 -278.666 -589.387Q-278.722 -589.196 -278.768 -589.002Q-278.814 -588.809 -278.851 -588.612Q-278.888 -588.415 -278.916 -588.215Q-278.944 -588.016 -278.963 -587.814Q-278.981 -587.612 -278.991 -587.409Q-279 -587.205 -279 -587L-279 64Q-279 64.2049 -278.991 64.4084Q-278.981 64.612 -278.963 64.8137Q-278.944 65.0155 -278.916 65.215Q-278.888 65.4146 -278.851 65.6115Q-278.814 65.8084 -278.768 66.0024Q-278.722 66.1963 -278.666 66.3868Q-278.611 66.5773 -278.547 66.7641Q-278.483 66.9508 -278.41 67.1333Q-278.337 67.3159 -278.255 67.4939Q-278.173 67.6719 -278.083 67.845Q-277.993 68.0181 -277.895 68.1859Q-277.796 68.3537 -277.689 68.5159Q-277.583 68.6782 -277.469 68.8344Q-277.354 68.9907 -277.232 69.1407Q-277.11 69.2908 -276.98 69.4342Q-276.851 69.5777 -276.714 69.7143Q-276.578 69.8509 -276.434 69.9804Q-276.291 70.1098 -276.141 70.2319Q-275.991 70.354 -275.834 70.4684Q-275.678 70.5829 -275.516 70.6894Q-275.354 70.796 -275.186 70.8944Q-275.018 70.9928 -274.845 71.083Q-274.672 71.1731 -274.494 71.2548Q-274.316 71.3365 -274.133 71.4095Q-273.951 71.4825 -273.764 71.5467Q-273.577 71.611 -273.387 71.6663Q-273.196 71.7215 -273.002 71.7678Q-272.808 71.814 -272.612 71.8512Q-272.415 71.8883 -272.215 71.9162Q-272.016 71.9441 -271.814 71.9627Q-271.612 71.9813 -271.408 71.9907Q-271.205 72 -271 72L88 72Q88.2049 72 88.4085 71.9907Q88.612 71.9813 88.8137 71.9627Q89.0155 71.9441 89.215 71.9162Q89.4146 71.8883 89.6115 71.8512Q89.8084 71.814 90.0024 71.7678Q90.1963 71.7215 90.3868 71.6663Q90.5773 71.611 90.7641 71.5467Q90.9508 71.4825 91.1333 71.4095Q91.3159 71.3365 91.4939 71.2548Q91.6719 71.1731 91.845 71.083Q92.0181 70.9928 92.1859 70.8944Q92.3537 70.796 92.5159 70.6894Q92.6782 70.5829 92.8344 70.4684Q92.9907 70.354 93.1407 70.2319Q93.2908 70.1098 93.4342 69.9804Q93.5777 69.8509 93.7143 69.7143Q93.8509 69.5777 93.9804 69.4342Q94.1099 69.2908 94.2319 69.1407Q94.354 68.9907 94.4684 68.8344Q94.5829 68.6782 94.6894 68.5159Q94.796 68.3537 94.8944 68.1859Q94.9929 68.0181 95.083 67.845Q95.1732 67.6719 95.2548 67.4939Q95.3365 67.3159 95.4095 67.1333Q95.4825 66.9508 95.5468 66.7641Q95.611 66.5773 95.6663 66.3868Q95.7216 66.1963 95.7678 66.0024Q95.8141 65.8084 95.8512 65.6115Q95.8883 65.4146 95.9162 65.215Q95.9441 65.0155 95.9627 64.8137Q95.9814 64.612 95.9907 64.4084Q96 64.2049 96 64L96 -587Z" clip-rule="evenodd"/>
		</clipPath>
		<linearGradient id="gradient_0" gradientUnits="userSpaceOnUse" x1="37.948471" y1="-9.8217258" x2="-2.945689" y2="34.491329">
			<stop offset="0" stop-color="rgb(184,87,226)"/>
			<stop offset="1" stop-color="rgb(250,103,51)"/>
		</linearGradient>
	</defs>
	<g clip-path="url(#clip_0)">
		<path fill="url(#gradient_0)" stroke="none" d="M16 32C24.8366 32 32 24.8366 32 16C32 7.16344 24.8366 0 16 0C7.16344 0 0 7.16344 0 16C0 24.8366 7.16344 32 16 32Z"/>
	</g>
	<defs>
		<clipPath id="clip_1">
			<path d="M96 -587Q96 -587.205 95.9907 -587.409Q95.9814 -587.612 95.9627 -587.814Q95.9441 -588.016 95.9162 -588.215Q95.8883 -588.415 95.8512 -588.612Q95.8141 -588.809 95.7678 -589.002Q95.7216 -589.196 95.6663 -589.387Q95.611 -589.577 95.5468 -589.764Q95.4825 -589.951 95.4095 -590.133Q95.3365 -590.316 95.2548 -590.494Q95.1732 -590.672 95.083 -590.845Q94.9929 -591.018 94.8944 -591.186Q94.796 -591.354 94.6894 -591.516Q94.5829 -591.678 94.4684 -591.834Q94.354 -591.991 94.2319 -592.141Q94.1099 -592.291 93.9804 -592.434Q93.8509 -592.578 93.7143 -592.714Q93.5777 -592.851 93.4342 -592.98Q93.2908 -593.11 93.1407 -593.232Q92.9907 -593.354 92.8344 -593.469Q92.6782 -593.583 92.5159 -593.69Q92.3537 -593.796 92.1859 -593.894Q92.0181 -593.993 91.845 -594.083Q91.6719 -594.173 91.4939 -594.255Q91.3159 -594.337 91.1333 -594.41Q90.9508 -594.483 90.7641 -594.547Q90.5773 -594.611 90.3868 -594.666Q90.1963 -594.722 90.0024 -594.768Q89.8084 -594.814 89.6115 -594.851Q89.4146 -594.888 89.215 -594.916Q89.0155 -594.944 88.8137 -594.963Q88.612 -594.981 88.4085 -594.991Q88.2049 -595 88 -595L-271 -595Q-271.205 -595 -271.408 -594.991Q-271.612 -594.981 -271.814 -594.963Q-272.016 -594.944 -272.215 -594.916Q-272.415 -594.888 -272.612 -594.851Q-272.808 -594.814 -273.002 -594.768Q-273.196 -594.722 -273.387 -594.666Q-273.577 -594.611 -273.764 -594.547Q-273.951 -594.483 -274.133 -594.41Q-274.316 -594.337 -274.494 -594.255Q-274.672 -594.173 -274.845 -594.083Q-275.018 -593.993 -275.186 -593.894Q-275.354 -593.796 -275.516 -593.689Q-275.678 -593.583 -275.834 -593.469Q-275.991 -593.354 -276.141 -593.232Q-276.291 -593.11 -276.434 -592.98Q-276.578 -592.851 -276.714 -592.714Q-276.851 -592.578 -276.98 -592.434Q-277.11 -592.291 -277.232 -592.141Q-277.354 -591.991 -277.469 -591.835Q-277.583 -591.678 -277.689 -591.516Q-277.796 -591.354 -277.895 -591.186Q-277.993 -591.018 -278.083 -590.845Q-278.173 -590.672 -278.255 -590.494Q-278.337 -590.316 -278.41 -590.133Q-278.483 -589.951 -278.547 -589.764Q-278.611 -589.577 -278.666 -589.387Q-278.722 -589.196 -278.768 -589.002Q-278.814 -588.809 -278.851 -588.612Q-278.888 -588.415 -278.916 -588.215Q-278.944 -588.016 -278.963 -587.814Q-278.981 -587.612 -278.991 -587.409Q-279 -587.205 -279 -587L-279 64Q-279 64.2049 -278.991 64.4084Q-278.981 64.612 -278.963 64.8137Q-278.944 65.0155 -278.916 65.215Q-278.888 65.4146 -278.851 65.6115Q-278.814 65.8084 -278.768 66.0024Q-278.722 66.1963 -278.666 66.3868Q-278.611 66.5773 -278.547 66.7641Q-278.483 66.9508 -278.41 67.1333Q-278.337 67.3159 -278.255 67.4939Q-278.173 67.6719 -278.083 67.845Q-277.993 68.0181 -277.895 68.1859Q-277.796 68.3537 -277.689 68.5159Q-277.583 68.6782 -277.469 68.8344Q-277.354 68.9907 -277.232 69.1407Q-277.11 69.2908 -276.98 69.4342Q-276.851 69.5777 -276.714 69.7143Q-276.578 69.8509 -276.434 69.9804Q-276.291 70.1098 -276.141 70.2319Q-275.991 70.354 -275.834 70.4684Q-275.678 70.5829 -275.516 70.6894Q-275.354 70.796 -275.186 70.8944Q-275.018 70.9928 -274.845 71.083Q-274.672 71.1731 -274.494 71.2548Q-274.316 71.3365 -274.133 71.4095Q-273.951 71.4825 -273.764 71.5467Q-273.577 71.611 -273.387 71.6663Q-273.196 71.7215 -273.002 71.7678Q-272.808 71.814 -272.612 71.8512Q-272.415 71.8883 -272.215 71.9162Q-272.016 71.9441 -271.814 71.9627Q-271.612 71.9813 -271.408 71.9907Q-271.205 72 -271 72L88 72Q88.2049 72 88.4085 71.9907Q88.612 71.9813 88.8137 71.9627Q89.0155 71.9441 89.215 71.9162Q89.4146 71.8883 89.6115 71.8512Q89.8084 71.814 90.0024 71.7678Q90.1963 71.7215 90.3868 71.6663Q90.5773 71.611 90.7641 71.5467Q90.9508 71.4825 91.1333 71.4095Q91.3159 71.3365 91.4939 71.2548Q91.6719 71.1731 91.845 71.083Q92.0181 70.9928 92.1859 70.8944Q92.3537 70.796 92.5159 70.6894Q92.6782 70.5829 92.8344 70.4684Q92.9907 70.354 93.1407 70.2319Q93.2908 70.1098 93.4342 69.9804Q93.5777 69.8509 93.7143 69.7143Q93.8509 69.5777 93.9804 69.4342Q94.1099 69.2908 94.2319 69.1407Q94.354 68.9907 94.4684 68.8344Q94.5829 68.6782 94.6894 68.5159Q94.796 68.3537 94.8944 68.1859Q94.9929 68.0181 95.083 67.845Q95.1732 67.6719 95.2548 67.4939Q95.3365 67.3159 95.4095 67.1333Q95.4825 66.9508 95.5468 66.7641Q95.611 66.5773 95.6663 66.3868Q95.7216 66.1963 95.7678 66.0024Q95.8141 65.8084 95.8512 65.6115Q95.8883 65.4146 95.9162 65.215Q95.9441 65.0155 95.9627 64.8137Q95.9814 64.612 95.9907 64.4084Q96 64.2049 96 64L96 -587Z" clip-rule="evenodd"/>
		</clipPath>
	</defs>
	<g clip-path="url(#clip_1)">
		<path fill="rgb(255,255,255)" stroke="none" transform="translate(10 10)" d="M2 0L2 0Q2.10251 0 2.20343 0.00932124Q2.30436 0.0186425 2.40288 0.037209Q2.50139 0.0557754 2.5967 0.0834357Q2.69201 0.111096 2.78333 0.147624Q2.87465 0.184153 2.96124 0.229252Q3.04783 0.27435 3.12898 0.327651Q3.21013 0.380953 3.28518 0.442021Q3.36023 0.50309 3.42857 0.571429Q3.49691 0.639767 3.55798 0.714818Q3.61905 0.789868 3.67235 0.871019Q3.72565 0.95217 3.77075 1.03876Q3.81585 1.12535 3.85238 1.21667Q3.8889 1.30799 3.91656 1.4033Q3.94422 1.49861 3.96279 1.59713Q3.98136 1.69564 3.99068 1.79657Q4 1.89749 4 2L4 9Q4 9.10251 3.99068 9.20343Q3.98136 9.30436 3.96279 9.40287Q3.94422 9.50139 3.91656 9.5967Q3.8889 9.69201 3.85238 9.78333Q3.81585 9.87465 3.77075 9.96124Q3.72565 10.0478 3.67235 10.129Q3.61905 10.2101 3.55798 10.2852Q3.49691 10.3602 3.42857 10.4286Q3.36023 10.4969 3.28518 10.558Q3.21013 10.619 3.12898 10.6723Q3.04783 10.7256 2.96124 10.7707Q2.87465 10.8158 2.78333 10.8524Q2.69201 10.8889 2.5967 10.9166Q2.50139 10.9442 2.40288 10.9628Q2.30436 10.9814 2.20343 10.9907Q2.10251 11 2 11L2 11Q1.89749 11 1.79657 10.9907Q1.69564 10.9814 1.59713 10.9628Q1.49861 10.9442 1.4033 10.9166Q1.30799 10.8889 1.21667 10.8524Q1.12535 10.8158 1.03876 10.7707Q0.95217 10.7256 0.871019 10.6723Q0.789868 10.619 0.714818 10.558Q0.639767 10.4969 0.571429 10.4286Q0.50309 10.3602 0.442021 10.2852Q0.380953 10.2101 0.327651 10.129Q0.27435 10.0478 0.229252 9.96124Q0.184153 9.87465 0.147624 9.78333Q0.111096 9.69201 0.0834357 9.5967Q0.0557754 9.50139 0.037209 9.40287Q0.0186425 9.30436 0.00932124 9.20343Q0 9.10251 0 9L0 2Q0 1.89749 0.00932124 1.79657Q0.0186425 1.69564 0.037209 1.59713Q0.0557754 1.49861 0.0834357 1.4033Q0.111096 1.30799 0.147624 1.21667Q0.184153 1.12535 0.229252 1.03876Q0.27435 0.95217 0.327651 0.871019Q0.380953 0.789868 0.442021 0.714818Q0.50309 0.639767 0.571429 0.571429Q0.639767 0.50309 0.714818 0.442021Q0.789868 0.380953 0.871019 0.327651Q0.95217 0.27435 1.03876 0.229252Q1.12535 0.184153 1.21667 0.147624Q1.30799 0.111096 1.4033 0.0834357Q1.49861 0.0557754 1.59713 0.037209Q1.69564 0.0186425 1.79657 0.00932124Q1.89749 0 2 0Z"/>
	</g>
	<defs>
		<clipPath id="clip_2">
			<path d="M96 -587Q96 -587.205 95.9907 -587.409Q95.9814 -587.612 95.9627 -587.814Q95.9441 -588.016 95.9162 -588.215Q95.8883 -588.415 95.8512 -588.612Q95.8141 -588.809 95.7678 -589.002Q95.7216 -589.196 95.6663 -589.387Q95.611 -589.577 95.5468 -589.764Q95.4825 -589.951 95.4095 -590.133Q95.3365 -590.316 95.2548 -590.494Q95.1732 -590.672 95.083 -590.845Q94.9929 -591.018 94.8944 -591.186Q94.796 -591.354 94.6894 -591.516Q94.5829 -591.678 94.4684 -591.834Q94.354 -591.991 94.2319 -592.141Q94.1099 -592.291 93.9804 -592.434Q93.8509 -592.578 93.7143 -592.714Q93.5777 -592.851 93.4342 -592.98Q93.2908 -593.11 93.1407 -593.232Q92.9907 -593.354 92.8344 -593.469Q92.6782 -593.583 92.5159 -593.69Q92.3537 -593.796 92.1859 -593.894Q92.0181 -593.993 91.845 -594.083Q91.6719 -594.173 91.4939 -594.255Q91.3159 -594.337 91.1333 -594.41Q90.9508 -594.483 90.7641 -594.547Q90.5773 -594.611 90.3868 -594.666Q90.1963 -594.722 90.0024 -594.768Q89.8084 -594.814 89.6115 -594.851Q89.4146 -594.888 89.215 -594.916Q89.0155 -594.944 88.8137 -594.963Q88.612 -594.981 88.4085 -594.991Q88.2049 -595 88 -595L-271 -595Q-271.205 -595 -271.408 -594.991Q-271.612 -594.981 -271.814 -594.963Q-272.016 -594.944 -272.215 -594.916Q-272.415 -594.888 -272.612 -594.851Q-272.808 -594.814 -273.002 -594.768Q-273.196 -594.722 -273.387 -594.666Q-273.577 -594.611 -273.764 -594.547Q-273.951 -594.483 -274.133 -594.41Q-274.316 -594.337 -274.494 -594.255Q-274.672 -594.173 -274.845 -594.083Q-275.018 -593.993 -275.186 -593.894Q-275.354 -593.796 -275.516 -593.689Q-275.678 -593.583 -275.834 -593.469Q-275.991 -593.354 -276.141 -593.232Q-276.291 -593.11 -276.434 -592.98Q-276.578 -592.851 -276.714 -592.714Q-276.851 -592.578 -276.98 -592.434Q-277.11 -592.291 -277.232 -592.141Q-277.354 -591.991 -277.469 -591.835Q-277.583 -591.678 -277.689 -591.516Q-277.796 -591.354 -277.895 -591.186Q-277.993 -591.018 -278.083 -590.845Q-278.173 -590.672 -278.255 -590.494Q-278.337 -590.316 -278.41 -590.133Q-278.483 -589.951 -278.547 -589.764Q-278.611 -589.577 -278.666 -589.387Q-278.722 -589.196 -278.768 -589.002Q-278.814 -588.809 -278.851 -588.612Q-278.888 -588.415 -278.916 -588.215Q-278.944 -588.016 -278.963 -587.814Q-278.981 -587.612 -278.991 -587.409Q-279 -587.205 -279 -587L-279 64Q-279 64.2049 -278.991 64.4084Q-278.981 64.612 -278.963 64.8137Q-278.944 65.0155 -278.916 65.215Q-278.888 65.4146 -278.851 65.6115Q-278.814 65.8084 -278.768 66.0024Q-278.722 66.1963 -278.666 66.3868Q-278.611 66.5773 -278.547 66.7641Q-278.483 66.9508 -278.41 67.1333Q-278.337 67.3159 -278.255 67.4939Q-278.173 67.6719 -278.083 67.845Q-277.993 68.0181 -277.895 68.1859Q-277.796 68.3537 -277.689 68.5159Q-277.583 68.6782 -277.469 68.8344Q-277.354 68.9907 -277.232 69.1407Q-277.11 69.2908 -276.98 69.4342Q-276.851 69.5777 -276.714 69.7143Q-276.578 69.8509 -276.434 69.9804Q-276.291 70.1098 -276.141 70.2319Q-275.991 70.354 -275.834 70.4684Q-275.678 70.5829 -275.516 70.6894Q-275.354 70.796 -275.186 70.8944Q-275.018 70.9928 -274.845 71.083Q-274.672 71.1731 -274.494 71.2548Q-274.316 71.3365 -274.133 71.4095Q-273.951 71.4825 -273.764 71.5467Q-273.577 71.611 -273.387 71.6663Q-273.196 71.7215 -273.002 71.7678Q-272.808 71.814 -272.612 71.8512Q-272.415 71.8883 -272.215 71.9162Q-272.016 71.9441 -271.814 71.9627Q-271.612 71.9813 -271.408 71.9907Q-271.205 72 -271 72L88 72Q88.2049 72 88.4085 71.9907Q88.612 71.9813 88.8137 71.9627Q89.0155 71.9441 89.215 71.9162Q89.4146 71.8883 89.6115 71.8512Q89.8084 71.814 90.0024 71.7678Q90.1963 71.7215 90.3868 71.6663Q90.5773 71.611 90.7641 71.5467Q90.9508 71.4825 91.1333 71.4095Q91.3159 71.3365 91.4939 71.2548Q91.6719 71.1731 91.845 71.083Q92.0181 70.9928 92.1859 70.8944Q92.3537 70.796 92.5159 70.6894Q92.6782 70.5829 92.8344 70.4684Q92.9907 70.354 93.1407 70.2319Q93.2908 70.1098 93.4342 69.9804Q93.5777 69.8509 93.7143 69.7143Q93.8509 69.5777 93.9804 69.4342Q94.1099 69.2908 94.2319 69.1407Q94.354 68.9907 94.4684 68.8344Q94.5829 68.6782 94.6894 68.5159Q94.796 68.3537 94.8944 68.1859Q94.9929 68.0181 95.083 67.845Q95.1732 67.6719 95.2548 67.4939Q95.3365 67.3159 95.4095 67.1333Q95.4825 66.9508 95.5468 66.7641Q95.611 66.5773 95.6663 66.3868Q95.7216 66.1963 95.7678 66.0024Q95.8141 65.8084 95.8512 65.6115Q95.8883 65.4146 95.9162 65.215Q95.9441 65.0155 95.9627 64.8137Q95.9814 64.612 95.9907 64.4084Q96 64.2049 96 64L96 -587Z" clip-rule="evenodd"/>
		</clipPath>
	</defs>
	<g clip-path="url(#clip_2)">
		<path fill="rgb(255,255,255)" stroke="none" transform="translate(18 10)" d="M2 0L2 0Q2.10251 0 2.20343 0.00932124Q2.30436 0.0186425 2.40288 0.037209Q2.50139 0.0557754 2.5967 0.0834357Q2.69201 0.111096 2.78333 0.147624Q2.87465 0.184153 2.96124 0.229252Q3.04783 0.27435 3.12898 0.327651Q3.21013 0.380953 3.28518 0.442021Q3.36023 0.50309 3.42857 0.571429Q3.49691 0.639767 3.55798 0.714818Q3.61905 0.789868 3.67235 0.871019Q3.72565 0.95217 3.77075 1.03876Q3.81585 1.12535 3.85238 1.21667Q3.8889 1.30799 3.91656 1.4033Q3.94422 1.49861 3.96279 1.59713Q3.98136 1.69564 3.99068 1.79657Q4 1.89749 4 2L4 9Q4 9.10251 3.99068 9.20343Q3.98136 9.30436 3.96279 9.40287Q3.94422 9.50139 3.91656 9.5967Q3.8889 9.69201 3.85238 9.78333Q3.81585 9.87465 3.77075 9.96124Q3.72565 10.0478 3.67235 10.129Q3.61905 10.2101 3.55798 10.2852Q3.49691 10.3602 3.42857 10.4286Q3.36023 10.4969 3.28518 10.558Q3.21013 10.619 3.12898 10.6723Q3.04783 10.7256 2.96124 10.7707Q2.87465 10.8158 2.78333 10.8524Q2.69201 10.8889 2.5967 10.9166Q2.50139 10.9442 2.40288 10.9628Q2.30436 10.9814 2.20343 10.9907Q2.10251 11 2 11L2 11Q1.89749 11 1.79657 10.9907Q1.69564 10.9814 1.59713 10.9628Q1.49861 10.9442 1.4033 10.9166Q1.30799 10.8889 1.21667 10.8524Q1.12535 10.8158 1.03876 10.7707Q0.95217 10.7256 0.871019 10.6723Q0.789868 10.619 0.714818 10.558Q0.639767 10.4969 0.571429 10.4286Q0.50309 10.3602 0.442021 10.2852Q0.380953 10.2101 0.327651 10.129Q0.27435 10.0478 0.229252 9.96124Q0.184153 9.87465 0.147624 9.78333Q0.111096 9.69201 0.0834357 9.5967Q0.0557754 9.50139 0.037209 9.40287Q0.0186425 9.30436 0.00932124 9.20343Q0 9.10251 0 9L0 2Q0 1.89749 0.00932124 1.79657Q0.0186425 1.69564 0.037209 1.59713Q0.0557754 1.49861 0.0834357 1.4033Q0.111096 1.30799 0.147624 1.21667Q0.184153 1.12535 0.229252 1.03876Q0.27435 0.95217 0.327651 0.871019Q0.380953 0.789868 0.442021 0.714818Q0.50309 0.639767 0.571429 0.571429Q0.639767 0.50309 0.714818 0.442021Q0.789868 0.380953 0.871019 0.327651Q0.95217 0.27435 1.03876 0.229252Q1.12535 0.184153 1.21667 0.147624Q1.30799 0.111096 1.4033 0.0834357Q1.49861 0.0557754 1.59713 0.037209Q1.69564 0.0186425 1.79657 0.00932124Q1.89749 0 2 0Z"/>
	</g>
</svg>
