<?xml version="1.0" encoding="utf-8" ?>
<svg xmlns="http://www.w3.org/2000/svg" xmlns:xlink="http://www.w3.org/1999/xlink" width="53" height="53">
  <defs>
    <clipPath id="clip_0">
      <path d="M129 -558Q129 -558.205 128.991 -558.409Q128.981 -558.612 128.963 -558.814Q128.944 -559.016 128.916 -559.215Q128.888 -559.415 128.851 -559.612Q128.814 -559.809 128.768 -560.003Q128.722 -560.196 128.666 -560.387Q128.611 -560.577 128.547 -560.764Q128.483 -560.951 128.41 -561.133Q128.336 -561.316 128.255 -561.494Q128.173 -561.672 128.083 -561.845Q127.993 -562.018 127.894 -562.186Q127.796 -562.354 127.689 -562.516Q127.583 -562.678 127.468 -562.835Q127.354 -562.991 127.232 -563.141Q127.11 -563.291 126.98 -563.434Q126.851 -563.578 126.714 -563.714Q126.578 -563.851 126.434 -563.98Q126.291 -564.11 126.141 -564.232Q125.991 -564.354 125.834 -564.468Q125.678 -564.583 125.516 -564.689Q125.354 -564.796 125.186 -564.894Q125.018 -564.993 124.845 -565.083Q124.672 -565.173 124.494 -565.255Q124.316 -565.336 124.133 -565.409Q123.951 -565.483 123.764 -565.547Q123.577 -565.611 123.387 -565.666Q123.196 -565.722 123.002 -565.768Q122.808 -565.814 122.612 -565.851Q122.415 -565.888 122.215 -565.916Q122.015 -565.944 121.814 -565.963Q121.612 -565.981 121.408 -565.991Q121.205 -566 121 -566L-238 -566Q-238.205 -566 -238.408 -565.991Q-238.612 -565.981 -238.814 -565.963Q-239.015 -565.944 -239.215 -565.916Q-239.415 -565.888 -239.611 -565.851Q-239.808 -565.814 -240.002 -565.768Q-240.196 -565.722 -240.387 -565.666Q-240.577 -565.611 -240.764 -565.547Q-240.951 -565.483 -241.133 -565.409Q-241.316 -565.336 -241.494 -565.255Q-241.672 -565.173 -241.845 -565.083Q-242.018 -564.993 -242.186 -564.894Q-242.354 -564.796 -242.516 -564.689Q-242.678 -564.583 -242.834 -564.468Q-242.991 -564.354 -243.141 -564.232Q-243.291 -564.11 -243.434 -563.98Q-243.578 -563.851 -243.714 -563.714Q-243.851 -563.578 -243.98 -563.434Q-244.11 -563.291 -244.232 -563.141Q-244.354 -562.991 -244.468 -562.834Q-244.583 -562.678 -244.689 -562.516Q-244.796 -562.354 -244.894 -562.186Q-244.993 -562.018 -245.083 -561.845Q-245.173 -561.672 -245.255 -561.494Q-245.337 -561.316 -245.41 -561.133Q-245.483 -560.951 -245.547 -560.764Q-245.611 -560.577 -245.666 -560.387Q-245.722 -560.196 -245.768 -560.003Q-245.814 -559.809 -245.851 -559.612Q-245.888 -559.415 -245.916 -559.215Q-245.944 -559.016 -245.963 -558.814Q-245.981 -558.612 -245.991 -558.409Q-246 -558.205 -246 -558L-246 93Q-246 93.2049 -245.991 93.4085Q-245.981 93.612 -245.963 93.8137Q-245.944 94.0155 -245.916 94.215Q-245.888 94.4146 -245.851 94.6115Q-245.814 94.8084 -245.768 95.0024Q-245.722 95.1963 -245.666 95.3868Q-245.611 95.5773 -245.547 95.7641Q-245.483 95.9508 -245.41 96.1333Q-245.337 96.3159 -245.255 96.4939Q-245.173 96.6719 -245.083 96.845Q-244.993 97.0181 -244.894 97.1859Q-244.796 97.3537 -244.689 97.5159Q-244.583 97.6781 -244.468 97.8344Q-244.354 97.9907 -244.232 98.1407Q-244.11 98.2908 -243.98 98.4342Q-243.851 98.5777 -243.714 98.7143Q-243.578 98.8509 -243.434 98.9804Q-243.291 99.1098 -243.141 99.2319Q-242.991 99.354 -242.835 99.4684Q-242.678 99.5829 -242.516 99.6894Q-242.354 99.796 -242.186 99.8944Q-242.018 99.9929 -241.845 100.083Q-241.672 100.173 -241.494 100.255Q-241.316 100.336 -241.133 100.41Q-240.951 100.483 -240.764 100.547Q-240.577 100.611 -240.387 100.666Q-240.196 100.722 -240.002 100.768Q-239.808 100.814 -239.612 100.851Q-239.415 100.888 -239.215 100.916Q-239.016 100.944 -238.814 100.963Q-238.612 100.981 -238.408 100.991Q-238.205 101 -238 101L121 101Q121.205 101 121.408 100.991Q121.612 100.981 121.814 100.963Q122.015 100.944 122.215 100.916Q122.415 100.888 122.612 100.851Q122.808 100.814 123.002 100.768Q123.196 100.722 123.387 100.666Q123.577 100.611 123.764 100.547Q123.951 100.483 124.133 100.41Q124.316 100.336 124.494 100.255Q124.672 100.173 124.845 100.083Q125.018 99.9929 125.186 99.8944Q125.354 99.796 125.516 99.6894Q125.678 99.5829 125.834 99.4684Q125.991 99.354 126.141 99.2319Q126.291 99.1098 126.434 98.9804Q126.578 98.8509 126.714 98.7143Q126.851 98.5777 126.98 98.4342Q127.11 98.2908 127.232 98.1407Q127.354 97.9907 127.468 97.8344Q127.583 97.6781 127.689 97.5159Q127.796 97.3537 127.894 97.1859Q127.993 97.0181 128.083 96.845Q128.173 96.6719 128.255 96.4939Q128.336 96.3159 128.41 96.1333Q128.483 95.9508 128.547 95.7641Q128.611 95.5773 128.666 95.3868Q128.722 95.1963 128.768 95.0024Q128.814 94.8084 128.851 94.6115Q128.888 94.4146 128.916 94.215Q128.944 94.0155 128.963 93.8137Q128.981 93.612 128.991 93.4085Q129 93.2049 129 93L129 -558Z" clip-rule="evenodd"/>
    </clipPath>
  </defs>
  <g clip-path="url(#clip_0)">
    <path fill="rgb(225,225,225)" stroke="none" d="M26.5 53C41.1355 53 53 41.1355 53 26.5C53 11.8645 41.1355 0 26.5 0C11.8645 0 0 11.8645 0 26.5C0 41.1355 11.8645 53 26.5 53Z"/>
  </g>
  <defs>
    <clipPath id="clip_1">
      <path d="M129 -558Q129 -558.205 128.991 -558.409Q128.981 -558.612 128.963 -558.814Q128.944 -559.016 128.916 -559.215Q128.888 -559.415 128.851 -559.612Q128.814 -559.809 128.768 -560.003Q128.722 -560.196 128.666 -560.387Q128.611 -560.577 128.547 -560.764Q128.483 -560.951 128.41 -561.133Q128.336 -561.316 128.255 -561.494Q128.173 -561.672 128.083 -561.845Q127.993 -562.018 127.894 -562.186Q127.796 -562.354 127.689 -562.516Q127.583 -562.678 127.468 -562.835Q127.354 -562.991 127.232 -563.141Q127.11 -563.291 126.98 -563.434Q126.851 -563.578 126.714 -563.714Q126.578 -563.851 126.434 -563.98Q126.291 -564.11 126.141 -564.232Q125.991 -564.354 125.834 -564.468Q125.678 -564.583 125.516 -564.689Q125.354 -564.796 125.186 -564.894Q125.018 -564.993 124.845 -565.083Q124.672 -565.173 124.494 -565.255Q124.316 -565.336 124.133 -565.409Q123.951 -565.483 123.764 -565.547Q123.577 -565.611 123.387 -565.666Q123.196 -565.722 123.002 -565.768Q122.808 -565.814 122.612 -565.851Q122.415 -565.888 122.215 -565.916Q122.015 -565.944 121.814 -565.963Q121.612 -565.981 121.408 -565.991Q121.205 -566 121 -566L-238 -566Q-238.205 -566 -238.408 -565.991Q-238.612 -565.981 -238.814 -565.963Q-239.015 -565.944 -239.215 -565.916Q-239.415 -565.888 -239.611 -565.851Q-239.808 -565.814 -240.002 -565.768Q-240.196 -565.722 -240.387 -565.666Q-240.577 -565.611 -240.764 -565.547Q-240.951 -565.483 -241.133 -565.409Q-241.316 -565.336 -241.494 -565.255Q-241.672 -565.173 -241.845 -565.083Q-242.018 -564.993 -242.186 -564.894Q-242.354 -564.796 -242.516 -564.689Q-242.678 -564.583 -242.834 -564.468Q-242.991 -564.354 -243.141 -564.232Q-243.291 -564.11 -243.434 -563.98Q-243.578 -563.851 -243.714 -563.714Q-243.851 -563.578 -243.98 -563.434Q-244.11 -563.291 -244.232 -563.141Q-244.354 -562.991 -244.468 -562.834Q-244.583 -562.678 -244.689 -562.516Q-244.796 -562.354 -244.894 -562.186Q-244.993 -562.018 -245.083 -561.845Q-245.173 -561.672 -245.255 -561.494Q-245.337 -561.316 -245.41 -561.133Q-245.483 -560.951 -245.547 -560.764Q-245.611 -560.577 -245.666 -560.387Q-245.722 -560.196 -245.768 -560.003Q-245.814 -559.809 -245.851 -559.612Q-245.888 -559.415 -245.916 -559.215Q-245.944 -559.016 -245.963 -558.814Q-245.981 -558.612 -245.991 -558.409Q-246 -558.205 -246 -558L-246 93Q-246 93.2049 -245.991 93.4085Q-245.981 93.612 -245.963 93.8137Q-245.944 94.0155 -245.916 94.215Q-245.888 94.4146 -245.851 94.6115Q-245.814 94.8084 -245.768 95.0024Q-245.722 95.1963 -245.666 95.3868Q-245.611 95.5773 -245.547 95.7641Q-245.483 95.9508 -245.41 96.1333Q-245.337 96.3159 -245.255 96.4939Q-245.173 96.6719 -245.083 96.845Q-244.993 97.0181 -244.894 97.1859Q-244.796 97.3537 -244.689 97.5159Q-244.583 97.6781 -244.468 97.8344Q-244.354 97.9907 -244.232 98.1407Q-244.11 98.2908 -243.98 98.4342Q-243.851 98.5777 -243.714 98.7143Q-243.578 98.8509 -243.434 98.9804Q-243.291 99.1098 -243.141 99.2319Q-242.991 99.354 -242.835 99.4684Q-242.678 99.5829 -242.516 99.6894Q-242.354 99.796 -242.186 99.8944Q-242.018 99.9929 -241.845 100.083Q-241.672 100.173 -241.494 100.255Q-241.316 100.336 -241.133 100.41Q-240.951 100.483 -240.764 100.547Q-240.577 100.611 -240.387 100.666Q-240.196 100.722 -240.002 100.768Q-239.808 100.814 -239.612 100.851Q-239.415 100.888 -239.215 100.916Q-239.016 100.944 -238.814 100.963Q-238.612 100.981 -238.408 100.991Q-238.205 101 -238 101L121 101Q121.205 101 121.408 100.991Q121.612 100.981 121.814 100.963Q122.015 100.944 122.215 100.916Q122.415 100.888 122.612 100.851Q122.808 100.814 123.002 100.768Q123.196 100.722 123.387 100.666Q123.577 100.611 123.764 100.547Q123.951 100.483 124.133 100.41Q124.316 100.336 124.494 100.255Q124.672 100.173 124.845 100.083Q125.018 99.9929 125.186 99.8944Q125.354 99.796 125.516 99.6894Q125.678 99.5829 125.834 99.4684Q125.991 99.354 126.141 99.2319Q126.291 99.1098 126.434 98.9804Q126.578 98.8509 126.714 98.7143Q126.851 98.5777 126.98 98.4342Q127.11 98.2908 127.232 98.1407Q127.354 97.9907 127.468 97.8344Q127.583 97.6781 127.689 97.5159Q127.796 97.3537 127.894 97.1859Q127.993 97.0181 128.083 96.845Q128.173 96.6719 128.255 96.4939Q128.336 96.3159 128.41 96.1333Q128.483 95.9508 128.547 95.7641Q128.611 95.5773 128.666 95.3868Q128.722 95.1963 128.768 95.0024Q128.814 94.8084 128.851 94.6115Q128.888 94.4146 128.916 94.215Q128.944 94.0155 128.963 93.8137Q128.981 93.612 128.991 93.4085Q129 93.2049 129 93L129 -558Z" clip-rule="evenodd"/>
    </clipPath>
  </defs>
  <g clip-path="url(#clip_1)">
    <path fill="rgb(255,255,255)" stroke="none" transform="translate(16.4455 17.528)" d="M1.70971 0.253848L14.0212 7.72649Q14.1088 7.77968 14.1871 7.83688Q14.2654 7.89409 14.3338 7.95484Q14.4021 8.01559 14.46 8.07939Q14.5178 8.1432 14.5646 8.20954Q14.6115 8.27587 14.6469 8.3442Q14.6824 8.41253 14.7062 8.48229Q14.73 8.55205 14.742 8.62268Q14.7539 8.69331 14.7539 8.76423Q14.7539 8.83515 14.742 8.90577Q14.73 8.9764 14.7062 9.04616Q14.6824 9.11593 14.6469 9.18426Q14.6115 9.25258 14.5646 9.31892Q14.5178 9.38526 14.46 9.44906Q14.4021 9.51287 14.3338 9.57362Q14.2654 9.63437 14.1871 9.69157Q14.1088 9.74877 14.0212 9.80196L1.70971 17.2746Q1.62208 17.3278 1.5358 17.3708Q1.44953 17.4139 1.36531 17.4464Q1.28109 17.479 1.19962 17.5008Q1.11814 17.5226 1.04008 17.5334Q0.962009 17.5443 0.887988 17.5441Q0.813967 17.5439 0.744595 17.5327Q0.675223 17.5216 0.611066 17.4994Q0.546908 17.4773 0.488489 17.4444Q0.430069 17.4115 0.377864 17.3682Q0.325659 17.3248 0.280094 17.2713Q0.23453 17.2178 0.195977 17.1546Q0.157424 17.0914 0.126197 17.0191Q0.0949709 16.9467 0.0713254 16.8658Q0.0476799 16.7848 0.0318083 16.6959Q0.0159366 16.607 0.00796831 16.5109Q0 16.4149 0 16.3123L0 1.21611Q0 1.11361 0.00796831 1.01752Q0.0159366 0.92143 0.0318083 0.832545Q0.0476799 0.743661 0.0713254 0.662704Q0.0949709 0.581748 0.126197 0.50938Q0.157424 0.437013 0.195977 0.373824Q0.23453 0.310635 0.280094 0.25714Q0.325659 0.203646 0.377864 0.160282Q0.430069 0.116918 0.488489 0.0840376Q0.546908 0.0511578 0.611066 0.0290303Q0.675223 0.00690277 0.744595 -0.00429186Q0.813967 -0.0154865 0.887988 -0.015657Q0.962009 -0.0158274 1.04008 -0.00497235Q1.11814 0.00588273 1.19962 0.0276748Q1.28109 0.0494669 1.36531 0.0820183Q1.44953 0.11457 1.5358 0.157615Q1.62208 0.20066 1.70971 0.253848Z"/>
  </g>
  <defs>
    <clipPath id="clip_2">
      <path d="M129 -558Q129 -558.205 128.991 -558.409Q128.981 -558.612 128.963 -558.814Q128.944 -559.016 128.916 -559.215Q128.888 -559.415 128.851 -559.612Q128.814 -559.809 128.768 -560.003Q128.722 -560.196 128.666 -560.387Q128.611 -560.577 128.547 -560.764Q128.483 -560.951 128.41 -561.133Q128.336 -561.316 128.255 -561.494Q128.173 -561.672 128.083 -561.845Q127.993 -562.018 127.894 -562.186Q127.796 -562.354 127.689 -562.516Q127.583 -562.678 127.468 -562.835Q127.354 -562.991 127.232 -563.141Q127.11 -563.291 126.98 -563.434Q126.851 -563.578 126.714 -563.714Q126.578 -563.851 126.434 -563.98Q126.291 -564.11 126.141 -564.232Q125.991 -564.354 125.834 -564.468Q125.678 -564.583 125.516 -564.689Q125.354 -564.796 125.186 -564.894Q125.018 -564.993 124.845 -565.083Q124.672 -565.173 124.494 -565.255Q124.316 -565.336 124.133 -565.409Q123.951 -565.483 123.764 -565.547Q123.577 -565.611 123.387 -565.666Q123.196 -565.722 123.002 -565.768Q122.808 -565.814 122.612 -565.851Q122.415 -565.888 122.215 -565.916Q122.015 -565.944 121.814 -565.963Q121.612 -565.981 121.408 -565.991Q121.205 -566 121 -566L-238 -566Q-238.205 -566 -238.408 -565.991Q-238.612 -565.981 -238.814 -565.963Q-239.015 -565.944 -239.215 -565.916Q-239.415 -565.888 -239.611 -565.851Q-239.808 -565.814 -240.002 -565.768Q-240.196 -565.722 -240.387 -565.666Q-240.577 -565.611 -240.764 -565.547Q-240.951 -565.483 -241.133 -565.409Q-241.316 -565.336 -241.494 -565.255Q-241.672 -565.173 -241.845 -565.083Q-242.018 -564.993 -242.186 -564.894Q-242.354 -564.796 -242.516 -564.689Q-242.678 -564.583 -242.834 -564.468Q-242.991 -564.354 -243.141 -564.232Q-243.291 -564.11 -243.434 -563.98Q-243.578 -563.851 -243.714 -563.714Q-243.851 -563.578 -243.98 -563.434Q-244.11 -563.291 -244.232 -563.141Q-244.354 -562.991 -244.468 -562.834Q-244.583 -562.678 -244.689 -562.516Q-244.796 -562.354 -244.894 -562.186Q-244.993 -562.018 -245.083 -561.845Q-245.173 -561.672 -245.255 -561.494Q-245.337 -561.316 -245.41 -561.133Q-245.483 -560.951 -245.547 -560.764Q-245.611 -560.577 -245.666 -560.387Q-245.722 -560.196 -245.768 -560.003Q-245.814 -559.809 -245.851 -559.612Q-245.888 -559.415 -245.916 -559.215Q-245.944 -559.016 -245.963 -558.814Q-245.981 -558.612 -245.991 -558.409Q-246 -558.205 -246 -558L-246 93Q-246 93.2049 -245.991 93.4085Q-245.981 93.612 -245.963 93.8137Q-245.944 94.0155 -245.916 94.215Q-245.888 94.4146 -245.851 94.6115Q-245.814 94.8084 -245.768 95.0024Q-245.722 95.1963 -245.666 95.3868Q-245.611 95.5773 -245.547 95.7641Q-245.483 95.9508 -245.41 96.1333Q-245.337 96.3159 -245.255 96.4939Q-245.173 96.6719 -245.083 96.845Q-244.993 97.0181 -244.894 97.1859Q-244.796 97.3537 -244.689 97.5159Q-244.583 97.6781 -244.468 97.8344Q-244.354 97.9907 -244.232 98.1407Q-244.11 98.2908 -243.98 98.4342Q-243.851 98.5777 -243.714 98.7143Q-243.578 98.8509 -243.434 98.9804Q-243.291 99.1098 -243.141 99.2319Q-242.991 99.354 -242.835 99.4684Q-242.678 99.5829 -242.516 99.6894Q-242.354 99.796 -242.186 99.8944Q-242.018 99.9929 -241.845 100.083Q-241.672 100.173 -241.494 100.255Q-241.316 100.336 -241.133 100.41Q-240.951 100.483 -240.764 100.547Q-240.577 100.611 -240.387 100.666Q-240.196 100.722 -240.002 100.768Q-239.808 100.814 -239.612 100.851Q-239.415 100.888 -239.215 100.916Q-239.016 100.944 -238.814 100.963Q-238.612 100.981 -238.408 100.991Q-238.205 101 -238 101L121 101Q121.205 101 121.408 100.991Q121.612 100.981 121.814 100.963Q122.015 100.944 122.215 100.916Q122.415 100.888 122.612 100.851Q122.808 100.814 123.002 100.768Q123.196 100.722 123.387 100.666Q123.577 100.611 123.764 100.547Q123.951 100.483 124.133 100.41Q124.316 100.336 124.494 100.255Q124.672 100.173 124.845 100.083Q125.018 99.9929 125.186 99.8944Q125.354 99.796 125.516 99.6894Q125.678 99.5829 125.834 99.4684Q125.991 99.354 126.141 99.2319Q126.291 99.1098 126.434 98.9804Q126.578 98.8509 126.714 98.7143Q126.851 98.5777 126.98 98.4342Q127.11 98.2908 127.232 98.1407Q127.354 97.9907 127.468 97.8344Q127.583 97.6781 127.689 97.5159Q127.796 97.3537 127.894 97.1859Q127.993 97.0181 128.083 96.845Q128.173 96.6719 128.255 96.4939Q128.336 96.3159 128.41 96.1333Q128.483 95.9508 128.547 95.7641Q128.611 95.5773 128.666 95.3868Q128.722 95.1963 128.768 95.0024Q128.814 94.8084 128.851 94.6115Q128.888 94.4146 128.916 94.215Q128.944 94.0155 128.963 93.8137Q128.981 93.612 128.991 93.4085Q129 93.2049 129 93L129 -558Z" clip-rule="evenodd"/>
    </clipPath>
  </defs>
  <g clip-path="url(#clip_2)">
    <path fill="rgb(255,255,255)" stroke="none" transform="translate(34 18)" d="M2 0L1 0Q1.10251 0 1.20343 0.00932124Q1.30436 0.0186425 1.40287 0.037209Q1.50139 0.0557754 1.5967 0.0834357Q1.69201 0.111096 1.78333 0.147624Q1.87465 0.184153 1.96124 0.229252Q2.04783 0.27435 2.12898 0.327651Q2.21013 0.380953 2.28518 0.442021Q2.36023 0.50309 2.42857 0.571429Q2.49691 0.639767 2.55798 0.714818Q2.61905 0.789868 2.67235 0.871019Q2.72565 0.95217 2.77075 1.03876Q2.81585 1.12535 2.85238 1.21667Q2.8889 1.30799 2.91656 1.4033Q2.94423 1.49861 2.96279 1.59713Q2.98136 1.69564 2.99068 1.79657Q3 1.89749 3 2L3 15Q3 15.1025 2.99068 15.2034Q2.98136 15.3044 2.96279 15.4029Q2.94423 15.5014 2.91656 15.5967Q2.8889 15.692 2.85238 15.7833Q2.81585 15.8747 2.77075 15.9612Q2.72565 16.0478 2.67235 16.129Q2.61905 16.2101 2.55798 16.2852Q2.49691 16.3602 2.42857 16.4286Q2.36023 16.4969 2.28518 16.558Q2.21013 16.619 2.12898 16.6723Q2.04783 16.7257 1.96124 16.7708Q1.87465 16.8158 1.78333 16.8524Q1.69201 16.8889 1.5967 16.9166Q1.50139 16.9442 1.40287 16.9628Q1.30436 16.9814 1.20343 16.9907Q1.10251 17 1 17L2 17Q1.89749 17 1.79657 16.9907Q1.69564 16.9814 1.59713 16.9628Q1.49861 16.9442 1.4033 16.9166Q1.30799 16.8889 1.21667 16.8524Q1.12535 16.8158 1.03876 16.7708Q0.95217 16.7257 0.871019 16.6723Q0.789868 16.619 0.714818 16.558Q0.639767 16.4969 0.571429 16.4286Q0.50309 16.3602 0.442021 16.2852Q0.380953 16.2101 0.327651 16.129Q0.27435 16.0478 0.229252 15.9612Q0.184153 15.8747 0.147624 15.7833Q0.111096 15.692 0.0834357 15.5967Q0.0557754 15.5014 0.037209 15.4029Q0.0186425 15.3044 0.00932124 15.2034Q0 15.1025 0 15L0 2Q0 1.89749 0.00932124 1.79657Q0.0186425 1.69564 0.037209 1.59713Q0.0557754 1.49861 0.0834357 1.4033Q0.111096 1.30799 0.147624 1.21667Q0.184153 1.12535 0.229252 1.03876Q0.27435 0.95217 0.327651 0.871019Q0.380953 0.789868 0.442021 0.714818Q0.50309 0.639767 0.571429 0.571429Q0.639767 0.50309 0.714818 0.442021Q0.789868 0.380953 0.871019 0.327651Q0.95217 0.27435 1.03876 0.229252Q1.12535 0.184153 1.21667 0.147624Q1.30799 0.111096 1.4033 0.0834357Q1.49861 0.0557754 1.59713 0.037209Q1.69564 0.0186425 1.79657 0.00932124Q1.89749 0 2 0Z"/>
  </g>
</svg>
