<?xml version="1.0" encoding="utf-8" ?>
<svg xmlns="http://www.w3.org/2000/svg" xmlns:xlink="http://www.w3.org/1999/xlink" width="20" height="16">
  <defs>
    <clipPath id="clip_0">
      <path d="M335.03 -558.72Q335.03 -558.919 335.021 -559.116Q335.012 -559.314 334.994 -559.509Q334.976 -559.705 334.949 -559.899Q334.922 -560.092 334.886 -560.283Q334.85 -560.474 334.805 -560.662Q334.76 -560.85 334.706 -561.035Q334.653 -561.22 334.59 -561.401Q334.528 -561.582 334.457 -561.759Q334.386 -561.936 334.307 -562.109Q334.228 -562.282 334.141 -562.45Q334.053 -562.618 333.958 -562.78Q333.862 -562.943 333.759 -563.1Q333.655 -563.258 333.544 -563.409Q333.433 -563.561 333.315 -563.707Q333.197 -563.852 333.071 -563.991Q332.945 -564.13 332.813 -564.263Q332.68 -564.395 332.541 -564.521Q332.402 -564.647 332.257 -564.765Q332.111 -564.883 331.959 -564.994Q331.808 -565.105 331.65 -565.209Q331.493 -565.312 331.33 -565.408Q331.168 -565.503 331 -565.591Q330.832 -565.678 330.659 -565.757Q330.486 -565.836 330.309 -565.907Q330.132 -565.978 329.951 -566.04Q329.77 -566.103 329.585 -566.156Q329.4 -566.21 329.212 -566.255Q329.024 -566.3 328.833 -566.336Q328.642 -566.372 328.449 -566.399Q328.255 -566.426 328.059 -566.444Q327.864 -566.462 327.666 -566.471Q327.469 -566.48 327.27 -566.48L-20.96 -566.48Q-21.1588 -566.48 -21.3562 -566.471Q-21.5536 -566.462 -21.7493 -566.444Q-21.945 -566.426 -22.1386 -566.399Q-22.3321 -566.372 -22.5232 -566.336Q-22.7142 -566.3 -22.9023 -566.255Q-23.0904 -566.21 -23.2752 -566.156Q-23.46 -566.103 -23.6411 -566.04Q-23.8223 -565.978 -23.9993 -565.907Q-24.1764 -565.836 -24.3491 -565.757Q-24.5217 -565.678 -24.6896 -565.591Q-24.8575 -565.503 -25.0203 -565.408Q-25.1831 -565.312 -25.3404 -565.209Q-25.4978 -565.105 -25.6494 -564.994Q-25.801 -564.883 -25.9465 -564.765Q-26.092 -564.647 -26.2312 -564.521Q-26.3704 -564.395 -26.5029 -564.263Q-26.6354 -564.13 -26.761 -563.991Q-26.8865 -563.852 -27.005 -563.707Q-27.1234 -563.561 -27.2344 -563.409Q-27.3454 -563.258 -27.4487 -563.1Q-27.5521 -562.943 -27.6476 -562.78Q-27.7431 -562.618 -27.8305 -562.45Q-27.918 -562.282 -27.9972 -562.109Q-28.0764 -561.936 -28.1472 -561.759Q-28.2181 -561.582 -28.2803 -561.401Q-28.3426 -561.22 -28.3963 -561.035Q-28.4499 -560.85 -28.4948 -560.662Q-28.5396 -560.474 -28.5756 -560.283Q-28.6116 -560.092 -28.6387 -559.899Q-28.6658 -559.705 -28.6838 -559.509Q-28.7019 -559.314 -28.711 -559.116Q-28.72 -558.919 -28.72 -558.72L-28.72 72.7501Q-28.72 72.9488 -28.711 73.1463Q-28.7019 73.3437 -28.6838 73.5394Q-28.6658 73.7351 -28.6387 73.9286Q-28.6116 74.1222 -28.5756 74.3132Q-28.5396 74.5042 -28.4948 74.6924Q-28.4499 74.8805 -28.3963 75.0653Q-28.3426 75.2501 -28.2803 75.4312Q-28.2181 75.6123 -28.1472 75.7894Q-28.0764 75.9665 -27.9972 76.1391Q-27.918 76.3118 -27.8305 76.4797Q-27.7431 76.6476 -27.6476 76.8103Q-27.5521 76.9731 -27.4487 77.1305Q-27.3454 77.2878 -27.2344 77.4394Q-27.1234 77.591 -27.005 77.7365Q-26.8865 77.8821 -26.761 78.0212Q-26.6354 78.1604 -26.5029 78.2929Q-26.3704 78.4254 -26.2312 78.551Q-26.092 78.6766 -25.9465 78.795Q-25.801 78.9134 -25.6494 79.0244Q-25.4978 79.1354 -25.3404 79.2387Q-25.1831 79.3421 -25.0203 79.4376Q-24.8575 79.5331 -24.6896 79.6205Q-24.5217 79.708 -24.3491 79.7872Q-24.1764 79.8664 -23.9993 79.9372Q-23.8223 80.0081 -23.6411 80.0704Q-23.46 80.1327 -23.2752 80.1863Q-23.0904 80.2399 -22.9023 80.2848Q-22.7142 80.3296 -22.5232 80.3656Q-22.3321 80.4016 -22.1386 80.4287Q-21.945 80.4558 -21.7493 80.4738Q-21.5536 80.4919 -21.3562 80.501Q-21.1588 80.51 -20.96 80.51L327.27 80.51Q327.469 80.51 327.666 80.501Q327.864 80.4919 328.059 80.4738Q328.255 80.4558 328.449 80.4287Q328.642 80.4016 328.833 80.3656Q329.024 80.3296 329.212 80.2848Q329.4 80.2399 329.585 80.1863Q329.77 80.1327 329.951 80.0704Q330.132 80.0081 330.309 79.9372Q330.486 79.8664 330.659 79.7872Q330.832 79.708 331 79.6205Q331.168 79.5331 331.33 79.4376Q331.493 79.3421 331.65 79.2387Q331.808 79.1354 331.959 79.0244Q332.111 78.9134 332.257 78.795Q332.402 78.6766 332.541 78.551Q332.68 78.4254 332.813 78.2929Q332.945 78.1604 333.071 78.0212Q333.197 77.8821 333.315 77.7365Q333.433 77.591 333.544 77.4394Q333.655 77.2878 333.759 77.1305Q333.862 76.9731 333.958 76.8104Q334.053 76.6476 334.141 76.4797Q334.228 76.3118 334.307 76.1391Q334.386 75.9665 334.457 75.7894Q334.528 75.6123 334.59 75.4312Q334.653 75.2501 334.706 75.0653Q334.76 74.8805 334.805 74.6924Q334.85 74.5042 334.886 74.3132Q334.922 74.1222 334.949 73.9286Q334.976 73.7351 334.994 73.5394Q335.012 73.3437 335.021 73.1463Q335.03 72.9488 335.03 72.7501L335.03 -558.72Z" clip-rule="evenodd"/>
    </clipPath>
  </defs>
  <g clip-path="url(#clip_0)">
    <path fill="rgb(225,225,225)" stroke="none" transform="matrix(0.97 0 0 0.97 0.37999 0.970001)" d="M16.171 4.57158L15.4265 4.57158C13.0961 4.57158 11.6119 6.38968 9.89498 8.64277C8.07273 11.0312 6.00785 13.7143 2.56691 13.7143L0 13.7143L0 11.4286L2.56691 11.4286C4.87069 11.4286 6.34844 9.42294 8.05789 7.18194C9.888 4.784 11.9614 2.28568 15.4265 2.28568L16.171 2.28568L16.171 0L19.6364 3.43435L16.171 6.85727L16.171 4.57158ZM6.55375 7.06774C6.64844 6.94556 7.76684 5.71227 8.208 5.16589C6.66502 3.32598 5.21869 2.2859 2.54378 2.2859L0 2.2859L0 4.57158L2.54356 4.57158C4.44044 4.57158 5.19665 5.37399 6.55375 7.06774ZM11.0459 8.81991L11.0455 8.82051L11.0455 8.82043L11.0459 8.81991ZM11.0455 8.82051C12.4015 10.5159 13.1887 11.4288 15.07 11.4288L16.171 11.4288L16.171 9.14295L19.6364 12.565L16.1712 16L16.1712 13.7143L15.0703 13.7143C12.408 13.7143 11.1133 12.5626 9.57578 10.7234C10.0887 10.0851 11.0235 8.85178 11.0455 8.82051Z" fill-rule="evenodd"/>
  </g>
</svg>