<?xml version="1.0" encoding="utf-8" ?>
<svg xmlns="http://www.w3.org/2000/svg" xmlns:xlink="http://www.w3.org/1999/xlink" width="24" height="24">
  <defs>
    <clipPath id="clip_0">
      <path d="M52 -573Q52 -573.205 51.9907 -573.409Q51.9814 -573.612 51.9627 -573.814Q51.9441 -574.016 51.9162 -574.215Q51.8883 -574.415 51.8512 -574.612Q51.8141 -574.808 51.7678 -575.002Q51.7216 -575.196 51.6663 -575.387Q51.611 -575.577 51.5468 -575.764Q51.4825 -575.951 51.4095 -576.133Q51.3365 -576.316 51.2548 -576.494Q51.1732 -576.672 51.083 -576.845Q50.9929 -577.018 50.8944 -577.186Q50.796 -577.354 50.6894 -577.516Q50.5829 -577.678 50.4684 -577.835Q50.354 -577.991 50.2319 -578.141Q50.1098 -578.291 49.9804 -578.434Q49.8509 -578.578 49.7143 -578.714Q49.5777 -578.851 49.4342 -578.98Q49.2908 -579.11 49.1407 -579.232Q48.9907 -579.354 48.8344 -579.469Q48.6782 -579.583 48.5159 -579.689Q48.3537 -579.796 48.1859 -579.895Q48.0181 -579.993 47.845 -580.083Q47.6719 -580.173 47.4939 -580.255Q47.3159 -580.337 47.1333 -580.41Q46.9508 -580.483 46.7641 -580.547Q46.5773 -580.611 46.3868 -580.666Q46.1963 -580.722 46.0024 -580.768Q45.8084 -580.814 45.6115 -580.851Q45.4146 -580.888 45.215 -580.916Q45.0155 -580.944 44.8137 -580.963Q44.612 -580.981 44.4084 -580.991Q44.2049 -581 44 -581L-315 -581Q-315.205 -581 -315.408 -580.991Q-315.612 -580.981 -315.814 -580.963Q-316.016 -580.944 -316.215 -580.916Q-316.415 -580.888 -316.612 -580.851Q-316.808 -580.814 -317.002 -580.768Q-317.196 -580.722 -317.387 -580.666Q-317.577 -580.611 -317.764 -580.547Q-317.951 -580.483 -318.133 -580.41Q-318.316 -580.337 -318.494 -580.255Q-318.672 -580.173 -318.845 -580.083Q-319.018 -579.993 -319.186 -579.895Q-319.354 -579.796 -319.516 -579.689Q-319.678 -579.583 -319.834 -579.469Q-319.991 -579.354 -320.141 -579.232Q-320.291 -579.11 -320.434 -578.98Q-320.578 -578.851 -320.714 -578.714Q-320.851 -578.578 -320.98 -578.434Q-321.11 -578.291 -321.232 -578.141Q-321.354 -577.991 -321.468 -577.834Q-321.583 -577.678 -321.689 -577.516Q-321.796 -577.354 -321.894 -577.186Q-321.993 -577.018 -322.083 -576.845Q-322.173 -576.672 -322.255 -576.494Q-322.337 -576.316 -322.41 -576.133Q-322.483 -575.951 -322.547 -575.764Q-322.611 -575.577 -322.666 -575.387Q-322.722 -575.196 -322.768 -575.002Q-322.814 -574.808 -322.851 -574.612Q-322.888 -574.415 -322.916 -574.215Q-322.944 -574.016 -322.963 -573.814Q-322.981 -573.612 -322.991 -573.409Q-323 -573.205 -323 -573L-323 78Q-323 78.2049 -322.991 78.4084Q-322.981 78.612 -322.963 78.8137Q-322.944 79.0155 -322.916 79.215Q-322.888 79.4146 -322.851 79.6115Q-322.814 79.8084 -322.768 80.0024Q-322.722 80.1963 -322.666 80.3868Q-322.611 80.5773 -322.547 80.7641Q-322.483 80.9508 -322.41 81.1333Q-322.337 81.3159 -322.255 81.4939Q-322.173 81.6719 -322.083 81.845Q-321.993 82.0181 -321.894 82.1859Q-321.796 82.3537 -321.689 82.5159Q-321.583 82.6781 -321.468 82.8344Q-321.354 82.9907 -321.232 83.1407Q-321.11 83.2908 -320.98 83.4342Q-320.851 83.5777 -320.714 83.7143Q-320.578 83.8509 -320.434 83.9804Q-320.291 84.1098 -320.141 84.2319Q-319.991 84.354 -319.834 84.4684Q-319.678 84.5829 -319.516 84.6894Q-319.354 84.796 -319.186 84.8944Q-319.018 84.9928 -318.845 85.083Q-318.672 85.1732 -318.494 85.2548Q-318.316 85.3365 -318.133 85.4095Q-317.951 85.4825 -317.764 85.5467Q-317.577 85.611 -317.387 85.6663Q-317.196 85.7216 -317.002 85.7678Q-316.808 85.814 -316.612 85.8512Q-316.415 85.8883 -316.215 85.9162Q-316.016 85.9441 -315.814 85.9627Q-315.612 85.9814 -315.408 85.9907Q-315.205 86 -315 86L44 86Q44.2049 86 44.4084 85.9907Q44.612 85.9814 44.8137 85.9627Q45.0155 85.9441 45.215 85.9162Q45.4146 85.8883 45.6115 85.8512Q45.8084 85.814 46.0024 85.7678Q46.1963 85.7216 46.3868 85.6663Q46.5773 85.611 46.7641 85.5468Q46.9508 85.4825 47.1333 85.4095Q47.3159 85.3365 47.4939 85.2548Q47.6719 85.1732 47.845 85.083Q48.0181 84.9928 48.1859 84.8944Q48.3537 84.796 48.5159 84.6894Q48.6782 84.5829 48.8344 84.4684Q48.9907 84.354 49.1407 84.2319Q49.2908 84.1098 49.4342 83.9804Q49.5777 83.8509 49.7143 83.7143Q49.8509 83.5777 49.9804 83.4342Q50.1098 83.2908 50.2319 83.1407Q50.354 82.9907 50.4684 82.8344Q50.5829 82.6781 50.6894 82.5159Q50.796 82.3537 50.8944 82.1859Q50.9929 82.0181 51.083 81.845Q51.1732 81.6719 51.2548 81.4939Q51.3365 81.3159 51.4095 81.1333Q51.4825 80.9508 51.5468 80.7641Q51.611 80.5773 51.6663 80.3868Q51.7216 80.1963 51.7678 80.0024Q51.8141 79.8084 51.8512 79.6115Q51.8883 79.4146 51.9162 79.215Q51.9441 79.0155 51.9627 78.8137Q51.9814 78.612 51.9907 78.4084Q52 78.2049 52 78L52 -573Z" clip-rule="evenodd"/>
    </clipPath>
  </defs>
  <g clip-path="url(#clip_0)">
    <path fill="rgb(225,225,225)" stroke="none" transform="translate(3 4)" d="M2.2908 6.83056C2.2908 6.9549 2.3006 7.07599 2.3166 7.19606L0.261 8.80841C0.0878 8.30374 0 7.93438 0 7.40431C0 4.77936 2.1952 2.28566 4.761 2.28566L13.5 2.28566L13.5 0L18 3.42848L13.5 6.85677L13.5 4.57111L5.0242 4.57111C4.1344 4.57111 2.2908 5.39984 2.2908 6.83056ZM15.7094 9.16985C15.7094 9.0449 15.6994 8.92442 15.684 8.80374L17.7384 7.19057C17.9122 7.69565 18 8.06501 18 8.5963C18 11.221 15.8048 13.7143 13.2384 13.7143L4.5 13.7143L4.5 16L0 12.5715L4.5 9.14303L4.5 11.4287L12.976 11.4287C13.8658 11.4287 15.7094 10.6006 15.7094 9.16985Z" fill-rule="evenodd"/>
  </g>
</svg>

