<?xml version="1.0" encoding="utf-8" ?>
<svg xmlns="http://www.w3.org/2000/svg" xmlns:xlink="http://www.w3.org/1999/xlink" width="32" height="32">
	<defs>
		<clipPath id="clip_0">
			<path d="M144 -587Q144 -587.205 143.991 -587.409Q143.981 -587.612 143.963 -587.814Q143.944 -588.016 143.916 -588.215Q143.888 -588.415 143.851 -588.612Q143.814 -588.809 143.768 -589.002Q143.722 -589.196 143.666 -589.387Q143.611 -589.577 143.547 -589.764Q143.483 -589.951 143.41 -590.133Q143.337 -590.316 143.255 -590.494Q143.173 -590.672 143.083 -590.845Q142.993 -591.018 142.894 -591.186Q142.796 -591.354 142.689 -591.516Q142.583 -591.678 142.468 -591.834Q142.354 -591.991 142.232 -592.141Q142.11 -592.291 141.98 -592.434Q141.851 -592.578 141.714 -592.714Q141.578 -592.851 141.434 -592.98Q141.291 -593.11 141.141 -593.232Q140.991 -593.354 140.834 -593.469Q140.678 -593.583 140.516 -593.69Q140.354 -593.796 140.186 -593.894Q140.018 -593.993 139.845 -594.083Q139.672 -594.173 139.494 -594.255Q139.316 -594.337 139.133 -594.41Q138.951 -594.483 138.764 -594.547Q138.577 -594.611 138.387 -594.666Q138.196 -594.722 138.002 -594.768Q137.808 -594.814 137.612 -594.851Q137.415 -594.888 137.215 -594.916Q137.016 -594.944 136.814 -594.963Q136.612 -594.981 136.408 -594.991Q136.205 -595 136 -595L-223 -595Q-223.205 -595 -223.408 -594.991Q-223.612 -594.981 -223.814 -594.963Q-224.016 -594.944 -224.215 -594.916Q-224.415 -594.888 -224.612 -594.851Q-224.808 -594.814 -225.002 -594.768Q-225.196 -594.722 -225.387 -594.666Q-225.577 -594.611 -225.764 -594.547Q-225.951 -594.483 -226.133 -594.41Q-226.316 -594.337 -226.494 -594.255Q-226.672 -594.173 -226.845 -594.083Q-227.018 -593.993 -227.186 -593.894Q-227.354 -593.796 -227.516 -593.689Q-227.678 -593.583 -227.834 -593.469Q-227.991 -593.354 -228.141 -593.232Q-228.291 -593.11 -228.434 -592.98Q-228.578 -592.851 -228.714 -592.714Q-228.851 -592.578 -228.98 -592.434Q-229.11 -592.291 -229.232 -592.141Q-229.354 -591.991 -229.468 -591.835Q-229.583 -591.678 -229.689 -591.516Q-229.796 -591.354 -229.894 -591.186Q-229.993 -591.018 -230.083 -590.845Q-230.173 -590.672 -230.255 -590.494Q-230.337 -590.316 -230.41 -590.133Q-230.483 -589.951 -230.547 -589.764Q-230.611 -589.577 -230.666 -589.387Q-230.722 -589.196 -230.768 -589.002Q-230.814 -588.809 -230.851 -588.612Q-230.888 -588.415 -230.916 -588.215Q-230.944 -588.016 -230.963 -587.814Q-230.981 -587.612 -230.991 -587.409Q-231 -587.205 -231 -587L-231 64Q-231 64.2049 -230.991 64.4084Q-230.981 64.612 -230.963 64.8137Q-230.944 65.0155 -230.916 65.215Q-230.888 65.4146 -230.851 65.6115Q-230.814 65.8084 -230.768 66.0024Q-230.722 66.1963 -230.666 66.3868Q-230.611 66.5773 -230.547 66.7641Q-230.483 66.9508 -230.41 67.1333Q-230.337 67.3159 -230.255 67.4939Q-230.173 67.6719 -230.083 67.845Q-229.993 68.0181 -229.894 68.1859Q-229.796 68.3537 -229.689 68.5159Q-229.583 68.6782 -229.468 68.8344Q-229.354 68.9907 -229.232 69.1407Q-229.11 69.2908 -228.98 69.4342Q-228.851 69.5777 -228.714 69.7143Q-228.578 69.8509 -228.434 69.9804Q-228.291 70.1098 -228.141 70.2319Q-227.991 70.354 -227.834 70.4684Q-227.678 70.5829 -227.516 70.6894Q-227.354 70.796 -227.186 70.8944Q-227.018 70.9928 -226.845 71.083Q-226.672 71.1731 -226.494 71.2548Q-226.316 71.3365 -226.133 71.4095Q-225.951 71.4825 -225.764 71.5467Q-225.577 71.611 -225.387 71.6663Q-225.196 71.7215 -225.002 71.7678Q-224.808 71.814 -224.612 71.8512Q-224.415 71.8883 -224.215 71.9162Q-224.016 71.9441 -223.814 71.9627Q-223.612 71.9813 -223.408 71.9907Q-223.205 72 -223 72L136 72Q136.205 72 136.408 71.9907Q136.612 71.9813 136.814 71.9627Q137.016 71.9441 137.215 71.9162Q137.415 71.8883 137.612 71.8512Q137.808 71.814 138.002 71.7678Q138.196 71.7215 138.387 71.6663Q138.577 71.611 138.764 71.5467Q138.951 71.4825 139.133 71.4095Q139.316 71.3365 139.494 71.2548Q139.672 71.1731 139.845 71.083Q140.018 70.9928 140.186 70.8944Q140.354 70.796 140.516 70.6894Q140.678 70.5829 140.834 70.4684Q140.991 70.354 141.141 70.2319Q141.291 70.1098 141.434 69.9804Q141.578 69.8509 141.714 69.7143Q141.851 69.5777 141.98 69.4342Q142.11 69.2908 142.232 69.1407Q142.354 68.9907 142.468 68.8344Q142.583 68.6782 142.689 68.5159Q142.796 68.3537 142.894 68.1859Q142.993 68.0181 143.083 67.845Q143.173 67.6719 143.255 67.4939Q143.337 67.3159 143.41 67.1333Q143.483 66.9508 143.547 66.7641Q143.611 66.5773 143.666 66.3868Q143.722 66.1963 143.768 66.0024Q143.814 65.8084 143.851 65.6115Q143.888 65.4146 143.916 65.215Q143.944 65.0155 143.963 64.8137Q143.981 64.612 143.991 64.4084Q144 64.2049 144 64L144 -587Z" clip-rule="evenodd"/>
		</clipPath>
	</defs>
	<g clip-path="url(#clip_0)">
		<path fill="rgb(225,225,225)" stroke="none" transform="matrix(-1 8.74228e-08 -8.74228e-08 -1 32 32)" d="M16 32C24.8366 32 32 24.8366 32 16C32 7.16344 24.8366 0 16 0C7.16344 0 0 7.16344 0 16C0 24.8366 7.16344 32 16 32Z"/>
	</g>
	<defs>
		<clipPath id="clip_1">
			<path d="M144 -587Q144 -587.205 143.991 -587.409Q143.981 -587.612 143.963 -587.814Q143.944 -588.016 143.916 -588.215Q143.888 -588.415 143.851 -588.612Q143.814 -588.809 143.768 -589.002Q143.722 -589.196 143.666 -589.387Q143.611 -589.577 143.547 -589.764Q143.483 -589.951 143.41 -590.133Q143.337 -590.316 143.255 -590.494Q143.173 -590.672 143.083 -590.845Q142.993 -591.018 142.894 -591.186Q142.796 -591.354 142.689 -591.516Q142.583 -591.678 142.468 -591.834Q142.354 -591.991 142.232 -592.141Q142.11 -592.291 141.98 -592.434Q141.851 -592.578 141.714 -592.714Q141.578 -592.851 141.434 -592.98Q141.291 -593.11 141.141 -593.232Q140.991 -593.354 140.834 -593.469Q140.678 -593.583 140.516 -593.69Q140.354 -593.796 140.186 -593.894Q140.018 -593.993 139.845 -594.083Q139.672 -594.173 139.494 -594.255Q139.316 -594.337 139.133 -594.41Q138.951 -594.483 138.764 -594.547Q138.577 -594.611 138.387 -594.666Q138.196 -594.722 138.002 -594.768Q137.808 -594.814 137.612 -594.851Q137.415 -594.888 137.215 -594.916Q137.016 -594.944 136.814 -594.963Q136.612 -594.981 136.408 -594.991Q136.205 -595 136 -595L-223 -595Q-223.205 -595 -223.408 -594.991Q-223.612 -594.981 -223.814 -594.963Q-224.016 -594.944 -224.215 -594.916Q-224.415 -594.888 -224.612 -594.851Q-224.808 -594.814 -225.002 -594.768Q-225.196 -594.722 -225.387 -594.666Q-225.577 -594.611 -225.764 -594.547Q-225.951 -594.483 -226.133 -594.41Q-226.316 -594.337 -226.494 -594.255Q-226.672 -594.173 -226.845 -594.083Q-227.018 -593.993 -227.186 -593.894Q-227.354 -593.796 -227.516 -593.689Q-227.678 -593.583 -227.834 -593.469Q-227.991 -593.354 -228.141 -593.232Q-228.291 -593.11 -228.434 -592.98Q-228.578 -592.851 -228.714 -592.714Q-228.851 -592.578 -228.98 -592.434Q-229.11 -592.291 -229.232 -592.141Q-229.354 -591.991 -229.468 -591.835Q-229.583 -591.678 -229.689 -591.516Q-229.796 -591.354 -229.894 -591.186Q-229.993 -591.018 -230.083 -590.845Q-230.173 -590.672 -230.255 -590.494Q-230.337 -590.316 -230.41 -590.133Q-230.483 -589.951 -230.547 -589.764Q-230.611 -589.577 -230.666 -589.387Q-230.722 -589.196 -230.768 -589.002Q-230.814 -588.809 -230.851 -588.612Q-230.888 -588.415 -230.916 -588.215Q-230.944 -588.016 -230.963 -587.814Q-230.981 -587.612 -230.991 -587.409Q-231 -587.205 -231 -587L-231 64Q-231 64.2049 -230.991 64.4084Q-230.981 64.612 -230.963 64.8137Q-230.944 65.0155 -230.916 65.215Q-230.888 65.4146 -230.851 65.6115Q-230.814 65.8084 -230.768 66.0024Q-230.722 66.1963 -230.666 66.3868Q-230.611 66.5773 -230.547 66.7641Q-230.483 66.9508 -230.41 67.1333Q-230.337 67.3159 -230.255 67.4939Q-230.173 67.6719 -230.083 67.845Q-229.993 68.0181 -229.894 68.1859Q-229.796 68.3537 -229.689 68.5159Q-229.583 68.6782 -229.468 68.8344Q-229.354 68.9907 -229.232 69.1407Q-229.11 69.2908 -228.98 69.4342Q-228.851 69.5777 -228.714 69.7143Q-228.578 69.8509 -228.434 69.9804Q-228.291 70.1098 -228.141 70.2319Q-227.991 70.354 -227.834 70.4684Q-227.678 70.5829 -227.516 70.6894Q-227.354 70.796 -227.186 70.8944Q-227.018 70.9928 -226.845 71.083Q-226.672 71.1731 -226.494 71.2548Q-226.316 71.3365 -226.133 71.4095Q-225.951 71.4825 -225.764 71.5467Q-225.577 71.611 -225.387 71.6663Q-225.196 71.7215 -225.002 71.7678Q-224.808 71.814 -224.612 71.8512Q-224.415 71.8883 -224.215 71.9162Q-224.016 71.9441 -223.814 71.9627Q-223.612 71.9813 -223.408 71.9907Q-223.205 72 -223 72L136 72Q136.205 72 136.408 71.9907Q136.612 71.9813 136.814 71.9627Q137.016 71.9441 137.215 71.9162Q137.415 71.8883 137.612 71.8512Q137.808 71.814 138.002 71.7678Q138.196 71.7215 138.387 71.6663Q138.577 71.611 138.764 71.5467Q138.951 71.4825 139.133 71.4095Q139.316 71.3365 139.494 71.2548Q139.672 71.1731 139.845 71.083Q140.018 70.9928 140.186 70.8944Q140.354 70.796 140.516 70.6894Q140.678 70.5829 140.834 70.4684Q140.991 70.354 141.141 70.2319Q141.291 70.1098 141.434 69.9804Q141.578 69.8509 141.714 69.7143Q141.851 69.5777 141.98 69.4342Q142.11 69.2908 142.232 69.1407Q142.354 68.9907 142.468 68.8344Q142.583 68.6782 142.689 68.5159Q142.796 68.3537 142.894 68.1859Q142.993 68.0181 143.083 67.845Q143.173 67.6719 143.255 67.4939Q143.337 67.3159 143.41 67.1333Q143.483 66.9508 143.547 66.7641Q143.611 66.5773 143.666 66.3868Q143.722 66.1963 143.768 66.0024Q143.814 65.8084 143.851 65.6115Q143.888 65.4146 143.916 65.215Q143.944 65.0155 143.963 64.8137Q143.981 64.612 143.991 64.4084Q144 64.2049 144 64L144 -587Z" clip-rule="evenodd"/>
		</clipPath>
	</defs>
	<g clip-path="url(#clip_1)">
		<path fill="rgb(255,255,255)" stroke="none" transform="matrix(-1 8.74228e-08 -8.74228e-08 -1 22.0707 21.4171)" d="M1.01316 0.141664L8.48475 4.67665Q8.53668 4.70817 8.58308 4.74207Q8.62948 4.77597 8.66999 4.81197Q8.71049 4.84797 8.74476 4.88578Q8.77903 4.92359 8.80678 4.9629Q8.83454 5.00221 8.85556 5.0427Q8.87658 5.0832 8.89068 5.12454Q8.90479 5.16588 8.91188 5.20773Q8.91896 5.24958 8.91896 5.29161Q8.91896 5.33363 8.91188 5.37549Q8.90479 5.41734 8.89068 5.45868Q8.87658 5.50002 8.85556 5.54051Q8.83454 5.581 8.80678 5.62032Q8.77903 5.65963 8.74476 5.69744Q8.71049 5.73525 8.66999 5.77125Q8.62948 5.80725 8.58308 5.84115Q8.53668 5.87504 8.48475 5.90656L1.01316 10.4416Q0.961233 10.4731 0.910107 10.4986Q0.85898 10.5241 0.809073 10.5434Q0.759165 10.5627 0.710884 10.5756Q0.662603 10.5885 0.616341 10.5949Q0.57008 10.6014 0.526215 10.6013Q0.482351 10.6012 0.441242 10.5945Q0.400132 10.5879 0.362113 10.5748Q0.324094 10.5617 0.289475 10.5422Q0.254856 10.5227 0.223919 10.497Q0.192983 10.4713 0.165982 10.4396Q0.138981 10.4079 0.116134 10.3705Q0.0932883 10.333 0.0747836 10.2901Q0.056279 10.2472 0.0422669 10.1993Q0.0282547 10.1513 0.0188493 10.0986Q0.00944392 10.046 0.00472196 9.98901Q0 9.93207 0 9.87132L0 0.711895Q0 0.65115 0.00472196 0.594209Q0.00944393 0.537268 0.0188493 0.484596Q0.0282547 0.431923 0.0422669 0.383949Q0.0562791 0.335975 0.0747837 0.29309Q0.0932883 0.250206 0.116134 0.212761Q0.138981 0.175315 0.165982 0.143615Q0.192983 0.111914 0.223919 0.0862171Q0.254856 0.0605198 0.289475 0.0410355Q0.324094 0.0215511 0.362113 0.00843849Q0.400132 -0.0046741 0.441242 -0.011308Q0.482351 -0.0179418 0.526215 -0.0180428Q0.57008 -0.0181439 0.616341 -0.0117112Q0.662603 -0.00527859 0.710884 0.00763524Q0.759165 0.0205491 0.809073 0.0398388Q0.85898 0.0591285 0.910107 0.0846367Q0.961233 0.110145 1.01316 0.141664Z"/>
	</g>
	<defs>
		<clipPath id="clip_2">
			<path d="M144 -587Q144 -587.205 143.991 -587.409Q143.981 -587.612 143.963 -587.814Q143.944 -588.016 143.916 -588.215Q143.888 -588.415 143.851 -588.612Q143.814 -588.809 143.768 -589.002Q143.722 -589.196 143.666 -589.387Q143.611 -589.577 143.547 -589.764Q143.483 -589.951 143.41 -590.133Q143.337 -590.316 143.255 -590.494Q143.173 -590.672 143.083 -590.845Q142.993 -591.018 142.894 -591.186Q142.796 -591.354 142.689 -591.516Q142.583 -591.678 142.468 -591.834Q142.354 -591.991 142.232 -592.141Q142.11 -592.291 141.98 -592.434Q141.851 -592.578 141.714 -592.714Q141.578 -592.851 141.434 -592.98Q141.291 -593.11 141.141 -593.232Q140.991 -593.354 140.834 -593.469Q140.678 -593.583 140.516 -593.69Q140.354 -593.796 140.186 -593.894Q140.018 -593.993 139.845 -594.083Q139.672 -594.173 139.494 -594.255Q139.316 -594.337 139.133 -594.41Q138.951 -594.483 138.764 -594.547Q138.577 -594.611 138.387 -594.666Q138.196 -594.722 138.002 -594.768Q137.808 -594.814 137.612 -594.851Q137.415 -594.888 137.215 -594.916Q137.016 -594.944 136.814 -594.963Q136.612 -594.981 136.408 -594.991Q136.205 -595 136 -595L-223 -595Q-223.205 -595 -223.408 -594.991Q-223.612 -594.981 -223.814 -594.963Q-224.016 -594.944 -224.215 -594.916Q-224.415 -594.888 -224.612 -594.851Q-224.808 -594.814 -225.002 -594.768Q-225.196 -594.722 -225.387 -594.666Q-225.577 -594.611 -225.764 -594.547Q-225.951 -594.483 -226.133 -594.41Q-226.316 -594.337 -226.494 -594.255Q-226.672 -594.173 -226.845 -594.083Q-227.018 -593.993 -227.186 -593.894Q-227.354 -593.796 -227.516 -593.689Q-227.678 -593.583 -227.834 -593.469Q-227.991 -593.354 -228.141 -593.232Q-228.291 -593.11 -228.434 -592.98Q-228.578 -592.851 -228.714 -592.714Q-228.851 -592.578 -228.98 -592.434Q-229.11 -592.291 -229.232 -592.141Q-229.354 -591.991 -229.468 -591.835Q-229.583 -591.678 -229.689 -591.516Q-229.796 -591.354 -229.894 -591.186Q-229.993 -591.018 -230.083 -590.845Q-230.173 -590.672 -230.255 -590.494Q-230.337 -590.316 -230.41 -590.133Q-230.483 -589.951 -230.547 -589.764Q-230.611 -589.577 -230.666 -589.387Q-230.722 -589.196 -230.768 -589.002Q-230.814 -588.809 -230.851 -588.612Q-230.888 -588.415 -230.916 -588.215Q-230.944 -588.016 -230.963 -587.814Q-230.981 -587.612 -230.991 -587.409Q-231 -587.205 -231 -587L-231 64Q-231 64.2049 -230.991 64.4084Q-230.981 64.612 -230.963 64.8137Q-230.944 65.0155 -230.916 65.215Q-230.888 65.4146 -230.851 65.6115Q-230.814 65.8084 -230.768 66.0024Q-230.722 66.1963 -230.666 66.3868Q-230.611 66.5773 -230.547 66.7641Q-230.483 66.9508 -230.41 67.1333Q-230.337 67.3159 -230.255 67.4939Q-230.173 67.6719 -230.083 67.845Q-229.993 68.0181 -229.894 68.1859Q-229.796 68.3537 -229.689 68.5159Q-229.583 68.6782 -229.468 68.8344Q-229.354 68.9907 -229.232 69.1407Q-229.11 69.2908 -228.98 69.4342Q-228.851 69.5777 -228.714 69.7143Q-228.578 69.8509 -228.434 69.9804Q-228.291 70.1098 -228.141 70.2319Q-227.991 70.354 -227.834 70.4684Q-227.678 70.5829 -227.516 70.6894Q-227.354 70.796 -227.186 70.8944Q-227.018 70.9928 -226.845 71.083Q-226.672 71.1731 -226.494 71.2548Q-226.316 71.3365 -226.133 71.4095Q-225.951 71.4825 -225.764 71.5467Q-225.577 71.611 -225.387 71.6663Q-225.196 71.7215 -225.002 71.7678Q-224.808 71.814 -224.612 71.8512Q-224.415 71.8883 -224.215 71.9162Q-224.016 71.9441 -223.814 71.9627Q-223.612 71.9813 -223.408 71.9907Q-223.205 72 -223 72L136 72Q136.205 72 136.408 71.9907Q136.612 71.9813 136.814 71.9627Q137.016 71.9441 137.215 71.9162Q137.415 71.8883 137.612 71.8512Q137.808 71.814 138.002 71.7678Q138.196 71.7215 138.387 71.6663Q138.577 71.611 138.764 71.5467Q138.951 71.4825 139.133 71.4095Q139.316 71.3365 139.494 71.2548Q139.672 71.1731 139.845 71.083Q140.018 70.9928 140.186 70.8944Q140.354 70.796 140.516 70.6894Q140.678 70.5829 140.834 70.4684Q140.991 70.354 141.141 70.2319Q141.291 70.1098 141.434 69.9804Q141.578 69.8509 141.714 69.7143Q141.851 69.5777 141.98 69.4342Q142.11 69.2908 142.232 69.1407Q142.354 68.9907 142.468 68.8344Q142.583 68.6782 142.689 68.5159Q142.796 68.3537 142.894 68.1859Q142.993 68.0181 143.083 67.845Q143.173 67.6719 143.255 67.4939Q143.337 67.3159 143.41 67.1333Q143.483 66.9508 143.547 66.7641Q143.611 66.5773 143.666 66.3868Q143.722 66.1963 143.768 66.0024Q143.814 65.8084 143.851 65.6115Q143.888 65.4146 143.916 65.215Q143.944 65.0155 143.963 64.8137Q143.981 64.612 143.991 64.4084Q144 64.2049 144 64L144 -587Z" clip-rule="evenodd"/>
		</clipPath>
	</defs>
	<g clip-path="url(#clip_2)">
		<path fill="rgb(255,255,255)" stroke="none" transform="matrix(-1 8.74228e-08 -8.74228e-08 -1 11.4717 21.1321)" d="M1 0L0.811321 0Q0.914038 0 1.01276 0.0186045Q1.11148 0.037209 1.20299 0.0738122Q1.29449 0.110415 1.37581 0.163826Q1.45713 0.217236 1.52561 0.285714Q1.59408 0.354193 1.6475 0.43551Q1.70091 0.516827 1.73751 0.608335Q1.77411 0.699843 1.79272 0.798563Q1.81132 0.897283 1.81132 1L1.81132 9.26415Q1.81132 9.36687 1.79272 9.46559Q1.77411 9.56431 1.73751 9.65582Q1.70091 9.74732 1.6475 9.82864Q1.59408 9.90996 1.52561 9.97844Q1.45713 10.0469 1.37581 10.1003Q1.29449 10.1537 1.20299 10.1903Q1.11148 10.2269 1.01276 10.2455Q0.914038 10.2642 0.811321 10.2642L1 10.2642Q0.897283 10.2642 0.798563 10.2455Q0.699843 10.2269 0.608335 10.1903Q0.516827 10.1537 0.43551 10.1003Q0.354193 10.0469 0.285714 9.97844Q0.217236 9.90996 0.163826 9.82864Q0.110415 9.74732 0.0738122 9.65582Q0.037209 9.56431 0.0186045 9.46559Q0 9.36687 0 9.26415L0 1Q0 0.897283 0.0186045 0.798563Q0.037209 0.699843 0.0738122 0.608335Q0.110415 0.516827 0.163826 0.43551Q0.217236 0.354193 0.285714 0.285714Q0.354193 0.217236 0.43551 0.163826Q0.516827 0.110415 0.608335 0.0738122Q0.699843 0.037209 0.798563 0.0186045Q0.897283 0 1 0Z"/>
	</g>
</svg>
