<?xml version="1.0" encoding="utf-8" ?>
<svg xmlns="http://www.w3.org/2000/svg" xmlns:xlink="http://www.w3.org/1999/xlink" width="53" height="53">
	<defs>
		<clipPath id="clip_0">
			<path d="M299 -558Q299 -558.205 298.991 -558.409Q298.981 -558.612 298.963 -558.814Q298.944 -559.016 298.916 -559.215Q298.888 -559.415 298.851 -559.612Q298.814 -559.809 298.768 -560.003Q298.722 -560.196 298.666 -560.387Q298.611 -560.577 298.547 -560.764Q298.483 -560.951 298.41 -561.133Q298.336 -561.316 298.255 -561.494Q298.173 -561.672 298.083 -561.845Q297.993 -562.018 297.894 -562.186Q297.796 -562.354 297.689 -562.516Q297.583 -562.678 297.468 -562.835Q297.354 -562.991 297.232 -563.141Q297.11 -563.291 296.98 -563.434Q296.851 -563.578 296.714 -563.714Q296.578 -563.851 296.434 -563.98Q296.291 -564.11 296.141 -564.232Q295.991 -564.354 295.834 -564.468Q295.678 -564.583 295.516 -564.689Q295.354 -564.796 295.186 -564.894Q295.018 -564.993 294.845 -565.083Q294.672 -565.173 294.494 -565.255Q294.316 -565.336 294.133 -565.409Q293.951 -565.483 293.764 -565.547Q293.577 -565.611 293.387 -565.666Q293.196 -565.722 293.002 -565.768Q292.808 -565.814 292.612 -565.851Q292.415 -565.888 292.215 -565.916Q292.016 -565.944 291.814 -565.963Q291.612 -565.981 291.408 -565.991Q291.205 -566 291 -566L-68 -566Q-68.2049 -566 -68.4085 -565.991Q-68.612 -565.981 -68.8137 -565.963Q-69.0155 -565.944 -69.215 -565.916Q-69.4146 -565.888 -69.6115 -565.851Q-69.8084 -565.814 -70.0024 -565.768Q-70.1963 -565.722 -70.3868 -565.666Q-70.5773 -565.611 -70.7641 -565.547Q-70.9508 -565.483 -71.1333 -565.409Q-71.3159 -565.336 -71.4939 -565.255Q-71.6719 -565.173 -71.845 -565.083Q-72.0181 -564.993 -72.1859 -564.894Q-72.3537 -564.796 -72.5159 -564.689Q-72.6782 -564.583 -72.8344 -564.468Q-72.9907 -564.354 -73.1407 -564.232Q-73.2908 -564.11 -73.4342 -563.98Q-73.5777 -563.851 -73.7143 -563.714Q-73.8509 -563.578 -73.9804 -563.434Q-74.1099 -563.291 -74.2319 -563.141Q-74.354 -562.991 -74.4684 -562.834Q-74.5829 -562.678 -74.6894 -562.516Q-74.796 -562.354 -74.8944 -562.186Q-74.9929 -562.018 -75.083 -561.845Q-75.1732 -561.672 -75.2548 -561.494Q-75.3365 -561.316 -75.4095 -561.133Q-75.4825 -560.951 -75.5467 -560.764Q-75.611 -560.577 -75.6663 -560.387Q-75.7215 -560.196 -75.7678 -560.003Q-75.8141 -559.809 -75.8512 -559.612Q-75.8883 -559.415 -75.9162 -559.215Q-75.9441 -559.016 -75.9627 -558.814Q-75.9814 -558.612 -75.9907 -558.409Q-76 -558.205 -76 -558L-76 93Q-76 93.2049 -75.9907 93.4085Q-75.9814 93.612 -75.9627 93.8137Q-75.9441 94.0155 -75.9162 94.215Q-75.8883 94.4146 -75.8512 94.6115Q-75.8141 94.8084 -75.7678 95.0024Q-75.7215 95.1963 -75.6663 95.3868Q-75.611 95.5773 -75.5467 95.7641Q-75.4825 95.9508 -75.4095 96.1333Q-75.3365 96.3159 -75.2548 96.4939Q-75.1732 96.6719 -75.083 96.845Q-74.9929 97.0181 -74.8944 97.1859Q-74.796 97.3537 -74.6894 97.5159Q-74.5829 97.6781 -74.4684 97.8344Q-74.354 97.9907 -74.2319 98.1407Q-74.1099 98.2908 -73.9804 98.4342Q-73.8509 98.5777 -73.7143 98.7143Q-73.5777 98.8509 -73.4342 98.9804Q-73.2908 99.1098 -73.1407 99.2319Q-72.9907 99.354 -72.8344 99.4684Q-72.6782 99.5829 -72.5159 99.6894Q-72.3537 99.796 -72.1859 99.8944Q-72.0181 99.9929 -71.845 100.083Q-71.6719 100.173 -71.4939 100.255Q-71.3159 100.336 -71.1333 100.41Q-70.9508 100.483 -70.7641 100.547Q-70.5773 100.611 -70.3868 100.666Q-70.1963 100.722 -70.0024 100.768Q-69.8084 100.814 -69.6115 100.851Q-69.4146 100.888 -69.215 100.916Q-69.0155 100.944 -68.8137 100.963Q-68.612 100.981 -68.4085 100.991Q-68.2049 101 -68 101L291 101Q291.205 101 291.408 100.991Q291.612 100.981 291.814 100.963Q292.016 100.944 292.215 100.916Q292.415 100.888 292.612 100.851Q292.808 100.814 293.002 100.768Q293.196 100.722 293.387 100.666Q293.577 100.611 293.764 100.547Q293.951 100.483 294.133 100.41Q294.316 100.336 294.494 100.255Q294.672 100.173 294.845 100.083Q295.018 99.9929 295.186 99.8944Q295.354 99.796 295.516 99.6894Q295.678 99.5829 295.834 99.4684Q295.991 99.354 296.141 99.2319Q296.291 99.1098 296.434 98.9804Q296.578 98.8509 296.714 98.7143Q296.851 98.5777 296.98 98.4342Q297.11 98.2908 297.232 98.1407Q297.354 97.9907 297.468 97.8344Q297.583 97.6781 297.689 97.5159Q297.796 97.3537 297.894 97.1859Q297.993 97.0181 298.083 96.845Q298.173 96.6719 298.255 96.4939Q298.336 96.3159 298.41 96.1333Q298.483 95.9508 298.547 95.7641Q298.611 95.5773 298.666 95.3868Q298.722 95.1963 298.768 95.0024Q298.814 94.8084 298.851 94.6115Q298.888 94.4146 298.916 94.215Q298.944 94.0155 298.963 93.8137Q298.981 93.612 298.991 93.4085Q299 93.2049 299 93L299 -558Z" clip-rule="evenodd"/>
		</clipPath>
	</defs>
	<g clip-path="url(#clip_0)">
		<path fill="rgb(225,225,225)" stroke="none" transform="matrix(-1 7.51062e-08 -7.51062e-08 -1 53 53)" d="M26.5 53C41.1355 53 53 41.1355 53 26.5C53 11.8645 41.1355 0 26.5 0C11.8645 0 0 11.8645 0 26.5C0 41.1355 11.8645 53 26.5 53Z"/>
	</g>
	<defs>
		<clipPath id="clip_1">
			<path d="M299 -558Q299 -558.205 298.991 -558.409Q298.981 -558.612 298.963 -558.814Q298.944 -559.016 298.916 -559.215Q298.888 -559.415 298.851 -559.612Q298.814 -559.809 298.768 -560.003Q298.722 -560.196 298.666 -560.387Q298.611 -560.577 298.547 -560.764Q298.483 -560.951 298.41 -561.133Q298.336 -561.316 298.255 -561.494Q298.173 -561.672 298.083 -561.845Q297.993 -562.018 297.894 -562.186Q297.796 -562.354 297.689 -562.516Q297.583 -562.678 297.468 -562.835Q297.354 -562.991 297.232 -563.141Q297.11 -563.291 296.98 -563.434Q296.851 -563.578 296.714 -563.714Q296.578 -563.851 296.434 -563.98Q296.291 -564.11 296.141 -564.232Q295.991 -564.354 295.834 -564.468Q295.678 -564.583 295.516 -564.689Q295.354 -564.796 295.186 -564.894Q295.018 -564.993 294.845 -565.083Q294.672 -565.173 294.494 -565.255Q294.316 -565.336 294.133 -565.409Q293.951 -565.483 293.764 -565.547Q293.577 -565.611 293.387 -565.666Q293.196 -565.722 293.002 -565.768Q292.808 -565.814 292.612 -565.851Q292.415 -565.888 292.215 -565.916Q292.016 -565.944 291.814 -565.963Q291.612 -565.981 291.408 -565.991Q291.205 -566 291 -566L-68 -566Q-68.2049 -566 -68.4085 -565.991Q-68.612 -565.981 -68.8137 -565.963Q-69.0155 -565.944 -69.215 -565.916Q-69.4146 -565.888 -69.6115 -565.851Q-69.8084 -565.814 -70.0024 -565.768Q-70.1963 -565.722 -70.3868 -565.666Q-70.5773 -565.611 -70.7641 -565.547Q-70.9508 -565.483 -71.1333 -565.409Q-71.3159 -565.336 -71.4939 -565.255Q-71.6719 -565.173 -71.845 -565.083Q-72.0181 -564.993 -72.1859 -564.894Q-72.3537 -564.796 -72.5159 -564.689Q-72.6782 -564.583 -72.8344 -564.468Q-72.9907 -564.354 -73.1407 -564.232Q-73.2908 -564.11 -73.4342 -563.98Q-73.5777 -563.851 -73.7143 -563.714Q-73.8509 -563.578 -73.9804 -563.434Q-74.1099 -563.291 -74.2319 -563.141Q-74.354 -562.991 -74.4684 -562.834Q-74.5829 -562.678 -74.6894 -562.516Q-74.796 -562.354 -74.8944 -562.186Q-74.9929 -562.018 -75.083 -561.845Q-75.1732 -561.672 -75.2548 -561.494Q-75.3365 -561.316 -75.4095 -561.133Q-75.4825 -560.951 -75.5467 -560.764Q-75.611 -560.577 -75.6663 -560.387Q-75.7215 -560.196 -75.7678 -560.003Q-75.8141 -559.809 -75.8512 -559.612Q-75.8883 -559.415 -75.9162 -559.215Q-75.9441 -559.016 -75.9627 -558.814Q-75.9814 -558.612 -75.9907 -558.409Q-76 -558.205 -76 -558L-76 93Q-76 93.2049 -75.9907 93.4085Q-75.9814 93.612 -75.9627 93.8137Q-75.9441 94.0155 -75.9162 94.215Q-75.8883 94.4146 -75.8512 94.6115Q-75.8141 94.8084 -75.7678 95.0024Q-75.7215 95.1963 -75.6663 95.3868Q-75.611 95.5773 -75.5467 95.7641Q-75.4825 95.9508 -75.4095 96.1333Q-75.3365 96.3159 -75.2548 96.4939Q-75.1732 96.6719 -75.083 96.845Q-74.9929 97.0181 -74.8944 97.1859Q-74.796 97.3537 -74.6894 97.5159Q-74.5829 97.6781 -74.4684 97.8344Q-74.354 97.9907 -74.2319 98.1407Q-74.1099 98.2908 -73.9804 98.4342Q-73.8509 98.5777 -73.7143 98.7143Q-73.5777 98.8509 -73.4342 98.9804Q-73.2908 99.1098 -73.1407 99.2319Q-72.9907 99.354 -72.8344 99.4684Q-72.6782 99.5829 -72.5159 99.6894Q-72.3537 99.796 -72.1859 99.8944Q-72.0181 99.9929 -71.845 100.083Q-71.6719 100.173 -71.4939 100.255Q-71.3159 100.336 -71.1333 100.41Q-70.9508 100.483 -70.7641 100.547Q-70.5773 100.611 -70.3868 100.666Q-70.1963 100.722 -70.0024 100.768Q-69.8084 100.814 -69.6115 100.851Q-69.4146 100.888 -69.215 100.916Q-69.0155 100.944 -68.8137 100.963Q-68.612 100.981 -68.4085 100.991Q-68.2049 101 -68 101L291 101Q291.205 101 291.408 100.991Q291.612 100.981 291.814 100.963Q292.016 100.944 292.215 100.916Q292.415 100.888 292.612 100.851Q292.808 100.814 293.002 100.768Q293.196 100.722 293.387 100.666Q293.577 100.611 293.764 100.547Q293.951 100.483 294.133 100.41Q294.316 100.336 294.494 100.255Q294.672 100.173 294.845 100.083Q295.018 99.9929 295.186 99.8944Q295.354 99.796 295.516 99.6894Q295.678 99.5829 295.834 99.4684Q295.991 99.354 296.141 99.2319Q296.291 99.1098 296.434 98.9804Q296.578 98.8509 296.714 98.7143Q296.851 98.5777 296.98 98.4342Q297.11 98.2908 297.232 98.1407Q297.354 97.9907 297.468 97.8344Q297.583 97.6781 297.689 97.5159Q297.796 97.3537 297.894 97.1859Q297.993 97.0181 298.083 96.845Q298.173 96.6719 298.255 96.4939Q298.336 96.3159 298.41 96.1333Q298.483 95.9508 298.547 95.7641Q298.611 95.5773 298.666 95.3868Q298.722 95.1963 298.768 95.0024Q298.814 94.8084 298.851 94.6115Q298.888 94.4146 298.916 94.215Q298.944 94.0155 298.963 93.8137Q298.981 93.612 298.991 93.4085Q299 93.2049 299 93L299 -558Z" clip-rule="evenodd"/>
		</clipPath>
	</defs>
	<g clip-path="url(#clip_1)">
		<path fill="rgb(255,255,255)" stroke="none" transform="matrix(-1 7.51062e-08 -7.51062e-08 -1 36.5546 35.472)" d="M1.70971 0.253848L14.0212 7.72649Q14.1088 7.77968 14.1871 7.83688Q14.2654 7.89409 14.3338 7.95484Q14.4021 8.01559 14.46 8.07939Q14.5178 8.1432 14.5646 8.20954Q14.6115 8.27587 14.6469 8.3442Q14.6824 8.41253 14.7062 8.48229Q14.73 8.55205 14.742 8.62268Q14.7539 8.69331 14.7539 8.76423Q14.7539 8.83515 14.742 8.90577Q14.73 8.9764 14.7062 9.04616Q14.6824 9.11593 14.6469 9.18426Q14.6115 9.25258 14.5646 9.31892Q14.5178 9.38526 14.46 9.44906Q14.4021 9.51287 14.3338 9.57362Q14.2654 9.63437 14.1871 9.69157Q14.1088 9.74877 14.0212 9.80196L1.70971 17.2746Q1.62208 17.3278 1.5358 17.3708Q1.44953 17.4139 1.36531 17.4464Q1.28109 17.479 1.19962 17.5008Q1.11814 17.5226 1.04008 17.5334Q0.962009 17.5443 0.887988 17.5441Q0.813967 17.5439 0.744595 17.5327Q0.675223 17.5216 0.611066 17.4994Q0.546908 17.4773 0.488489 17.4444Q0.430069 17.4115 0.377864 17.3682Q0.325659 17.3248 0.280094 17.2713Q0.23453 17.2178 0.195977 17.1546Q0.157424 17.0914 0.126197 17.0191Q0.0949709 16.9467 0.0713254 16.8658Q0.0476799 16.7848 0.0318083 16.6959Q0.0159366 16.607 0.00796831 16.5109Q0 16.4149 0 16.3123L0 1.21611Q0 1.11361 0.00796831 1.01752Q0.0159366 0.92143 0.0318083 0.832545Q0.0476799 0.743661 0.0713254 0.662704Q0.0949709 0.581748 0.126197 0.50938Q0.157424 0.437013 0.195977 0.373824Q0.23453 0.310635 0.280094 0.25714Q0.325659 0.203646 0.377864 0.160282Q0.430069 0.116918 0.488489 0.0840376Q0.546908 0.0511578 0.611066 0.0290303Q0.675223 0.00690277 0.744595 -0.00429186Q0.813967 -0.0154865 0.887988 -0.015657Q0.962009 -0.0158274 1.04008 -0.00497235Q1.11814 0.00588273 1.19962 0.0276748Q1.28109 0.0494669 1.36531 0.0820183Q1.44953 0.11457 1.5358 0.157615Q1.62208 0.20066 1.70971 0.253848Z"/>
	</g>
	<defs>
		<clipPath id="clip_2">
			<path d="M299 -558Q299 -558.205 298.991 -558.409Q298.981 -558.612 298.963 -558.814Q298.944 -559.016 298.916 -559.215Q298.888 -559.415 298.851 -559.612Q298.814 -559.809 298.768 -560.003Q298.722 -560.196 298.666 -560.387Q298.611 -560.577 298.547 -560.764Q298.483 -560.951 298.41 -561.133Q298.336 -561.316 298.255 -561.494Q298.173 -561.672 298.083 -561.845Q297.993 -562.018 297.894 -562.186Q297.796 -562.354 297.689 -562.516Q297.583 -562.678 297.468 -562.835Q297.354 -562.991 297.232 -563.141Q297.11 -563.291 296.98 -563.434Q296.851 -563.578 296.714 -563.714Q296.578 -563.851 296.434 -563.98Q296.291 -564.11 296.141 -564.232Q295.991 -564.354 295.834 -564.468Q295.678 -564.583 295.516 -564.689Q295.354 -564.796 295.186 -564.894Q295.018 -564.993 294.845 -565.083Q294.672 -565.173 294.494 -565.255Q294.316 -565.336 294.133 -565.409Q293.951 -565.483 293.764 -565.547Q293.577 -565.611 293.387 -565.666Q293.196 -565.722 293.002 -565.768Q292.808 -565.814 292.612 -565.851Q292.415 -565.888 292.215 -565.916Q292.016 -565.944 291.814 -565.963Q291.612 -565.981 291.408 -565.991Q291.205 -566 291 -566L-68 -566Q-68.2049 -566 -68.4085 -565.991Q-68.612 -565.981 -68.8137 -565.963Q-69.0155 -565.944 -69.215 -565.916Q-69.4146 -565.888 -69.6115 -565.851Q-69.8084 -565.814 -70.0024 -565.768Q-70.1963 -565.722 -70.3868 -565.666Q-70.5773 -565.611 -70.7641 -565.547Q-70.9508 -565.483 -71.1333 -565.409Q-71.3159 -565.336 -71.4939 -565.255Q-71.6719 -565.173 -71.845 -565.083Q-72.0181 -564.993 -72.1859 -564.894Q-72.3537 -564.796 -72.5159 -564.689Q-72.6782 -564.583 -72.8344 -564.468Q-72.9907 -564.354 -73.1407 -564.232Q-73.2908 -564.11 -73.4342 -563.98Q-73.5777 -563.851 -73.7143 -563.714Q-73.8509 -563.578 -73.9804 -563.434Q-74.1099 -563.291 -74.2319 -563.141Q-74.354 -562.991 -74.4684 -562.834Q-74.5829 -562.678 -74.6894 -562.516Q-74.796 -562.354 -74.8944 -562.186Q-74.9929 -562.018 -75.083 -561.845Q-75.1732 -561.672 -75.2548 -561.494Q-75.3365 -561.316 -75.4095 -561.133Q-75.4825 -560.951 -75.5467 -560.764Q-75.611 -560.577 -75.6663 -560.387Q-75.7215 -560.196 -75.7678 -560.003Q-75.8141 -559.809 -75.8512 -559.612Q-75.8883 -559.415 -75.9162 -559.215Q-75.9441 -559.016 -75.9627 -558.814Q-75.9814 -558.612 -75.9907 -558.409Q-76 -558.205 -76 -558L-76 93Q-76 93.2049 -75.9907 93.4085Q-75.9814 93.612 -75.9627 93.8137Q-75.9441 94.0155 -75.9162 94.215Q-75.8883 94.4146 -75.8512 94.6115Q-75.8141 94.8084 -75.7678 95.0024Q-75.7215 95.1963 -75.6663 95.3868Q-75.611 95.5773 -75.5467 95.7641Q-75.4825 95.9508 -75.4095 96.1333Q-75.3365 96.3159 -75.2548 96.4939Q-75.1732 96.6719 -75.083 96.845Q-74.9929 97.0181 -74.8944 97.1859Q-74.796 97.3537 -74.6894 97.5159Q-74.5829 97.6781 -74.4684 97.8344Q-74.354 97.9907 -74.2319 98.1407Q-74.1099 98.2908 -73.9804 98.4342Q-73.8509 98.5777 -73.7143 98.7143Q-73.5777 98.8509 -73.4342 98.9804Q-73.2908 99.1098 -73.1407 99.2319Q-72.9907 99.354 -72.8344 99.4684Q-72.6782 99.5829 -72.5159 99.6894Q-72.3537 99.796 -72.1859 99.8944Q-72.0181 99.9929 -71.845 100.083Q-71.6719 100.173 -71.4939 100.255Q-71.3159 100.336 -71.1333 100.41Q-70.9508 100.483 -70.7641 100.547Q-70.5773 100.611 -70.3868 100.666Q-70.1963 100.722 -70.0024 100.768Q-69.8084 100.814 -69.6115 100.851Q-69.4146 100.888 -69.215 100.916Q-69.0155 100.944 -68.8137 100.963Q-68.612 100.981 -68.4085 100.991Q-68.2049 101 -68 101L291 101Q291.205 101 291.408 100.991Q291.612 100.981 291.814 100.963Q292.016 100.944 292.215 100.916Q292.415 100.888 292.612 100.851Q292.808 100.814 293.002 100.768Q293.196 100.722 293.387 100.666Q293.577 100.611 293.764 100.547Q293.951 100.483 294.133 100.41Q294.316 100.336 294.494 100.255Q294.672 100.173 294.845 100.083Q295.018 99.9929 295.186 99.8944Q295.354 99.796 295.516 99.6894Q295.678 99.5829 295.834 99.4684Q295.991 99.354 296.141 99.2319Q296.291 99.1098 296.434 98.9804Q296.578 98.8509 296.714 98.7143Q296.851 98.5777 296.98 98.4342Q297.11 98.2908 297.232 98.1407Q297.354 97.9907 297.468 97.8344Q297.583 97.6781 297.689 97.5159Q297.796 97.3537 297.894 97.1859Q297.993 97.0181 298.083 96.845Q298.173 96.6719 298.255 96.4939Q298.336 96.3159 298.41 96.1333Q298.483 95.9508 298.547 95.7641Q298.611 95.5773 298.666 95.3868Q298.722 95.1963 298.768 95.0024Q298.814 94.8084 298.851 94.6115Q298.888 94.4146 298.916 94.215Q298.944 94.0155 298.963 93.8137Q298.981 93.612 298.991 93.4085Q299 93.2049 299 93L299 -558Z" clip-rule="evenodd"/>
		</clipPath>
	</defs>
	<g clip-path="url(#clip_2)">
		<path fill="rgb(255,255,255)" stroke="none" transform="matrix(-1 7.51062e-08 -7.51062e-08 -1 19 35)" d="M2 0L1 0Q1.10251 0 1.20343 0.00932124Q1.30436 0.0186425 1.40287 0.037209Q1.50139 0.0557754 1.5967 0.0834357Q1.69201 0.111096 1.78333 0.147624Q1.87465 0.184153 1.96124 0.229252Q2.04783 0.27435 2.12898 0.327651Q2.21013 0.380953 2.28518 0.442021Q2.36023 0.50309 2.42857 0.571429Q2.49691 0.639767 2.55798 0.714818Q2.61905 0.789868 2.67235 0.871019Q2.72565 0.95217 2.77075 1.03876Q2.81585 1.12535 2.85238 1.21667Q2.8889 1.30799 2.91656 1.4033Q2.94423 1.49861 2.96279 1.59713Q2.98136 1.69564 2.99068 1.79657Q3 1.89749 3 2L3 15Q3 15.1025 2.99068 15.2034Q2.98136 15.3044 2.96279 15.4029Q2.94423 15.5014 2.91656 15.5967Q2.8889 15.692 2.85238 15.7833Q2.81585 15.8747 2.77075 15.9612Q2.72565 16.0478 2.67235 16.129Q2.61905 16.2101 2.55798 16.2852Q2.49691 16.3602 2.42857 16.4286Q2.36023 16.4969 2.28518 16.558Q2.21013 16.619 2.12898 16.6723Q2.04783 16.7257 1.96124 16.7708Q1.87465 16.8158 1.78333 16.8524Q1.69201 16.8889 1.5967 16.9166Q1.50139 16.9442 1.40287 16.9628Q1.30436 16.9814 1.20343 16.9907Q1.10251 17 1 17L2 17Q1.89749 17 1.79657 16.9907Q1.69564 16.9814 1.59713 16.9628Q1.49861 16.9442 1.4033 16.9166Q1.30799 16.8889 1.21667 16.8524Q1.12535 16.8158 1.03876 16.7708Q0.95217 16.7257 0.871019 16.6723Q0.789868 16.619 0.714818 16.558Q0.639767 16.4969 0.571429 16.4286Q0.50309 16.3602 0.442021 16.2852Q0.380953 16.2101 0.327651 16.129Q0.27435 16.0478 0.229252 15.9612Q0.184153 15.8747 0.147624 15.7833Q0.111096 15.692 0.0834357 15.5967Q0.0557754 15.5014 0.037209 15.4029Q0.0186425 15.3044 0.00932124 15.2034Q0 15.1025 0 15L0 2Q0 1.89749 0.00932124 1.79657Q0.0186425 1.69564 0.037209 1.59713Q0.0557754 1.49861 0.0834357 1.4033Q0.111096 1.30799 0.147624 1.21667Q0.184153 1.12535 0.229252 1.03876Q0.27435 0.95217 0.327651 0.871019Q0.380953 0.789868 0.442021 0.714818Q0.50309 0.639767 0.571429 0.571429Q0.639767 0.50309 0.714818 0.442021Q0.789868 0.380953 0.871019 0.327651Q0.95217 0.27435 1.03876 0.229252Q1.12535 0.184153 1.21667 0.147624Q1.30799 0.111096 1.4033 0.0834357Q1.49861 0.0557754 1.59713 0.037209Q1.69564 0.0186425 1.79657 0.00932124Q1.89749 0 2 0Z"/>
	</g>
</svg>
