<?xml version="1.0" encoding="utf-8" ?>
<svg xmlns="http://www.w3.org/2000/svg" xmlns:xlink="http://www.w3.org/1999/xlink" width="32" height="32">
	<defs>
		<clipPath id="clip_0">
			<path d="M48 -587Q48 -587.205 47.9907 -587.409Q47.9814 -587.612 47.9627 -587.814Q47.9441 -588.016 47.9162 -588.215Q47.8883 -588.415 47.8512 -588.612Q47.8141 -588.809 47.7678 -589.002Q47.7216 -589.196 47.6663 -589.387Q47.611 -589.577 47.5468 -589.764Q47.4825 -589.951 47.4095 -590.133Q47.3365 -590.316 47.2548 -590.494Q47.1732 -590.672 47.083 -590.845Q46.9929 -591.018 46.8944 -591.186Q46.7959 -591.354 46.6894 -591.516Q46.5829 -591.678 46.4684 -591.834Q46.354 -591.991 46.2319 -592.141Q46.1098 -592.291 45.9804 -592.434Q45.8509 -592.578 45.7143 -592.714Q45.5777 -592.851 45.4342 -592.98Q45.2908 -593.11 45.1407 -593.232Q44.9907 -593.354 44.8344 -593.469Q44.6781 -593.583 44.5159 -593.69Q44.3537 -593.796 44.1859 -593.894Q44.0181 -593.993 43.845 -594.083Q43.6719 -594.173 43.4939 -594.255Q43.3159 -594.337 43.1333 -594.41Q42.9508 -594.483 42.7641 -594.547Q42.5773 -594.611 42.3868 -594.666Q42.1963 -594.722 42.0024 -594.768Q41.8084 -594.814 41.6115 -594.851Q41.4146 -594.888 41.215 -594.916Q41.0155 -594.944 40.8137 -594.963Q40.612 -594.981 40.4085 -594.991Q40.2049 -595 40 -595L-319 -595Q-319.205 -595 -319.408 -594.991Q-319.612 -594.981 -319.814 -594.963Q-320.016 -594.944 -320.215 -594.916Q-320.415 -594.888 -320.612 -594.851Q-320.809 -594.814 -321.002 -594.768Q-321.196 -594.722 -321.387 -594.666Q-321.577 -594.611 -321.764 -594.547Q-321.951 -594.483 -322.133 -594.41Q-322.316 -594.337 -322.494 -594.255Q-322.672 -594.173 -322.845 -594.083Q-323.018 -593.993 -323.186 -593.894Q-323.354 -593.796 -323.516 -593.689Q-323.678 -593.583 -323.834 -593.469Q-323.991 -593.354 -324.141 -593.232Q-324.291 -593.11 -324.434 -592.98Q-324.578 -592.851 -324.714 -592.714Q-324.851 -592.578 -324.98 -592.434Q-325.11 -592.291 -325.232 -592.141Q-325.354 -591.991 -325.468 -591.835Q-325.583 -591.678 -325.689 -591.516Q-325.796 -591.354 -325.894 -591.186Q-325.993 -591.018 -326.083 -590.845Q-326.173 -590.672 -326.255 -590.494Q-326.337 -590.316 -326.41 -590.133Q-326.483 -589.951 -326.547 -589.764Q-326.611 -589.577 -326.666 -589.387Q-326.722 -589.196 -326.768 -589.002Q-326.814 -588.809 -326.851 -588.612Q-326.888 -588.415 -326.916 -588.215Q-326.944 -588.016 -326.963 -587.814Q-326.981 -587.612 -326.991 -587.409Q-327 -587.205 -327 -587L-327 64Q-327 64.2049 -326.991 64.4084Q-326.981 64.612 -326.963 64.8137Q-326.944 65.0155 -326.916 65.215Q-326.888 65.4146 -326.851 65.6115Q-326.814 65.8084 -326.768 66.0024Q-326.722 66.1963 -326.666 66.3868Q-326.611 66.5773 -326.547 66.7641Q-326.483 66.9508 -326.41 67.1333Q-326.337 67.3159 -326.255 67.4939Q-326.173 67.6719 -326.083 67.845Q-325.993 68.0181 -325.894 68.1859Q-325.796 68.3537 -325.689 68.5159Q-325.583 68.6782 -325.468 68.8344Q-325.354 68.9907 -325.232 69.1407Q-325.11 69.2908 -324.98 69.4342Q-324.851 69.5777 -324.714 69.7143Q-324.578 69.8509 -324.434 69.9804Q-324.291 70.1098 -324.141 70.2319Q-323.991 70.354 -323.834 70.4684Q-323.678 70.5829 -323.516 70.6894Q-323.354 70.796 -323.186 70.8944Q-323.018 70.9928 -322.845 71.083Q-322.672 71.1731 -322.494 71.2548Q-322.316 71.3365 -322.133 71.4095Q-321.951 71.4825 -321.764 71.5467Q-321.577 71.611 -321.387 71.6663Q-321.196 71.7215 -321.002 71.7678Q-320.809 71.814 -320.612 71.8512Q-320.415 71.8883 -320.215 71.9162Q-320.016 71.9441 -319.814 71.9627Q-319.612 71.9813 -319.408 71.9907Q-319.205 72 -319 72L40 72Q40.2049 72 40.4085 71.9907Q40.612 71.9813 40.8137 71.9627Q41.0155 71.9441 41.215 71.9162Q41.4146 71.8883 41.6115 71.8512Q41.8084 71.814 42.0024 71.7678Q42.1963 71.7215 42.3868 71.6663Q42.5773 71.611 42.7641 71.5467Q42.9508 71.4825 43.1333 71.4095Q43.3159 71.3365 43.4939 71.2548Q43.6719 71.1731 43.845 71.083Q44.0181 70.9928 44.1859 70.8944Q44.3537 70.796 44.5159 70.6894Q44.6781 70.5829 44.8344 70.4684Q44.9907 70.354 45.1407 70.2319Q45.2908 70.1098 45.4342 69.9804Q45.5777 69.8509 45.7143 69.7143Q45.8509 69.5777 45.9804 69.4342Q46.1098 69.2908 46.2319 69.1407Q46.354 68.9907 46.4684 68.8344Q46.5829 68.6782 46.6894 68.5159Q46.7959 68.3537 46.8944 68.1859Q46.9929 68.0181 47.083 67.845Q47.1732 67.6719 47.2548 67.4939Q47.3365 67.3159 47.4095 67.1333Q47.4825 66.9508 47.5468 66.7641Q47.611 66.5773 47.6663 66.3868Q47.7216 66.1963 47.7678 66.0024Q47.8141 65.8084 47.8512 65.6115Q47.8883 65.4146 47.9162 65.215Q47.9441 65.0155 47.9627 64.8137Q47.9814 64.612 47.9907 64.4084Q48 64.2049 48 64L48 -587Z" clip-rule="evenodd"/>
		</clipPath>
	</defs>
	<g clip-path="url(#clip_0)">
		<path fill="rgb(225,225,225)" stroke="none" d="M16 32C24.8366 32 32 24.8366 32 16C32 7.16344 24.8366 0 16 0C7.16344 0 0 7.16344 0 16C0 24.8366 7.16344 32 16 32Z"/>
	</g>
	<defs>
		<clipPath id="clip_1">
			<path d="M48 -587Q48 -587.205 47.9907 -587.409Q47.9814 -587.612 47.9627 -587.814Q47.9441 -588.016 47.9162 -588.215Q47.8883 -588.415 47.8512 -588.612Q47.8141 -588.809 47.7678 -589.002Q47.7216 -589.196 47.6663 -589.387Q47.611 -589.577 47.5468 -589.764Q47.4825 -589.951 47.4095 -590.133Q47.3365 -590.316 47.2548 -590.494Q47.1732 -590.672 47.083 -590.845Q46.9929 -591.018 46.8944 -591.186Q46.7959 -591.354 46.6894 -591.516Q46.5829 -591.678 46.4684 -591.834Q46.354 -591.991 46.2319 -592.141Q46.1098 -592.291 45.9804 -592.434Q45.8509 -592.578 45.7143 -592.714Q45.5777 -592.851 45.4342 -592.98Q45.2908 -593.11 45.1407 -593.232Q44.9907 -593.354 44.8344 -593.469Q44.6781 -593.583 44.5159 -593.69Q44.3537 -593.796 44.1859 -593.894Q44.0181 -593.993 43.845 -594.083Q43.6719 -594.173 43.4939 -594.255Q43.3159 -594.337 43.1333 -594.41Q42.9508 -594.483 42.7641 -594.547Q42.5773 -594.611 42.3868 -594.666Q42.1963 -594.722 42.0024 -594.768Q41.8084 -594.814 41.6115 -594.851Q41.4146 -594.888 41.215 -594.916Q41.0155 -594.944 40.8137 -594.963Q40.612 -594.981 40.4085 -594.991Q40.2049 -595 40 -595L-319 -595Q-319.205 -595 -319.408 -594.991Q-319.612 -594.981 -319.814 -594.963Q-320.016 -594.944 -320.215 -594.916Q-320.415 -594.888 -320.612 -594.851Q-320.809 -594.814 -321.002 -594.768Q-321.196 -594.722 -321.387 -594.666Q-321.577 -594.611 -321.764 -594.547Q-321.951 -594.483 -322.133 -594.41Q-322.316 -594.337 -322.494 -594.255Q-322.672 -594.173 -322.845 -594.083Q-323.018 -593.993 -323.186 -593.894Q-323.354 -593.796 -323.516 -593.689Q-323.678 -593.583 -323.834 -593.469Q-323.991 -593.354 -324.141 -593.232Q-324.291 -593.11 -324.434 -592.98Q-324.578 -592.851 -324.714 -592.714Q-324.851 -592.578 -324.98 -592.434Q-325.11 -592.291 -325.232 -592.141Q-325.354 -591.991 -325.468 -591.835Q-325.583 -591.678 -325.689 -591.516Q-325.796 -591.354 -325.894 -591.186Q-325.993 -591.018 -326.083 -590.845Q-326.173 -590.672 -326.255 -590.494Q-326.337 -590.316 -326.41 -590.133Q-326.483 -589.951 -326.547 -589.764Q-326.611 -589.577 -326.666 -589.387Q-326.722 -589.196 -326.768 -589.002Q-326.814 -588.809 -326.851 -588.612Q-326.888 -588.415 -326.916 -588.215Q-326.944 -588.016 -326.963 -587.814Q-326.981 -587.612 -326.991 -587.409Q-327 -587.205 -327 -587L-327 64Q-327 64.2049 -326.991 64.4084Q-326.981 64.612 -326.963 64.8137Q-326.944 65.0155 -326.916 65.215Q-326.888 65.4146 -326.851 65.6115Q-326.814 65.8084 -326.768 66.0024Q-326.722 66.1963 -326.666 66.3868Q-326.611 66.5773 -326.547 66.7641Q-326.483 66.9508 -326.41 67.1333Q-326.337 67.3159 -326.255 67.4939Q-326.173 67.6719 -326.083 67.845Q-325.993 68.0181 -325.894 68.1859Q-325.796 68.3537 -325.689 68.5159Q-325.583 68.6782 -325.468 68.8344Q-325.354 68.9907 -325.232 69.1407Q-325.11 69.2908 -324.98 69.4342Q-324.851 69.5777 -324.714 69.7143Q-324.578 69.8509 -324.434 69.9804Q-324.291 70.1098 -324.141 70.2319Q-323.991 70.354 -323.834 70.4684Q-323.678 70.5829 -323.516 70.6894Q-323.354 70.796 -323.186 70.8944Q-323.018 70.9928 -322.845 71.083Q-322.672 71.1731 -322.494 71.2548Q-322.316 71.3365 -322.133 71.4095Q-321.951 71.4825 -321.764 71.5467Q-321.577 71.611 -321.387 71.6663Q-321.196 71.7215 -321.002 71.7678Q-320.809 71.814 -320.612 71.8512Q-320.415 71.8883 -320.215 71.9162Q-320.016 71.9441 -319.814 71.9627Q-319.612 71.9813 -319.408 71.9907Q-319.205 72 -319 72L40 72Q40.2049 72 40.4085 71.9907Q40.612 71.9813 40.8137 71.9627Q41.0155 71.9441 41.215 71.9162Q41.4146 71.8883 41.6115 71.8512Q41.8084 71.814 42.0024 71.7678Q42.1963 71.7215 42.3868 71.6663Q42.5773 71.611 42.7641 71.5467Q42.9508 71.4825 43.1333 71.4095Q43.3159 71.3365 43.4939 71.2548Q43.6719 71.1731 43.845 71.083Q44.0181 70.9928 44.1859 70.8944Q44.3537 70.796 44.5159 70.6894Q44.6781 70.5829 44.8344 70.4684Q44.9907 70.354 45.1407 70.2319Q45.2908 70.1098 45.4342 69.9804Q45.5777 69.8509 45.7143 69.7143Q45.8509 69.5777 45.9804 69.4342Q46.1098 69.2908 46.2319 69.1407Q46.354 68.9907 46.4684 68.8344Q46.5829 68.6782 46.6894 68.5159Q46.7959 68.3537 46.8944 68.1859Q46.9929 68.0181 47.083 67.845Q47.1732 67.6719 47.2548 67.4939Q47.3365 67.3159 47.4095 67.1333Q47.4825 66.9508 47.5468 66.7641Q47.611 66.5773 47.6663 66.3868Q47.7216 66.1963 47.7678 66.0024Q47.8141 65.8084 47.8512 65.6115Q47.8883 65.4146 47.9162 65.215Q47.9441 65.0155 47.9627 64.8137Q47.9814 64.612 47.9907 64.4084Q48 64.2049 48 64L48 -587Z" clip-rule="evenodd"/>
		</clipPath>
	</defs>
	<g clip-path="url(#clip_1)">
		<path fill="rgb(255,255,255)" stroke="none" transform="translate(9.92938 10.5829)" d="M1.01316 0.141664L8.48475 4.67665Q8.53668 4.70817 8.58308 4.74207Q8.62948 4.77597 8.66999 4.81197Q8.71049 4.84797 8.74476 4.88578Q8.77903 4.92359 8.80678 4.9629Q8.83454 5.00221 8.85556 5.0427Q8.87658 5.0832 8.89068 5.12454Q8.90479 5.16588 8.91188 5.20773Q8.91896 5.24958 8.91896 5.29161Q8.91896 5.33363 8.91188 5.37549Q8.90479 5.41734 8.89068 5.45868Q8.87658 5.50002 8.85556 5.54051Q8.83454 5.581 8.80678 5.62032Q8.77903 5.65963 8.74476 5.69744Q8.71049 5.73525 8.66999 5.77125Q8.62948 5.80725 8.58308 5.84115Q8.53668 5.87504 8.48475 5.90656L1.01316 10.4416Q0.961233 10.4731 0.910107 10.4986Q0.85898 10.5241 0.809073 10.5434Q0.759165 10.5627 0.710884 10.5756Q0.662603 10.5885 0.616341 10.5949Q0.57008 10.6014 0.526215 10.6013Q0.482351 10.6012 0.441242 10.5945Q0.400132 10.5879 0.362113 10.5748Q0.324094 10.5617 0.289475 10.5422Q0.254856 10.5227 0.223919 10.497Q0.192983 10.4713 0.165982 10.4396Q0.138981 10.4079 0.116134 10.3705Q0.0932883 10.333 0.0747836 10.2901Q0.056279 10.2472 0.0422669 10.1993Q0.0282547 10.1513 0.0188493 10.0986Q0.00944392 10.046 0.00472196 9.98901Q0 9.93207 0 9.87132L0 0.711895Q0 0.65115 0.00472196 0.594209Q0.00944393 0.537268 0.0188493 0.484596Q0.0282547 0.431923 0.0422669 0.383949Q0.0562791 0.335975 0.0747837 0.29309Q0.0932883 0.250206 0.116134 0.212761Q0.138981 0.175315 0.165982 0.143615Q0.192983 0.111914 0.223919 0.0862171Q0.254856 0.0605198 0.289475 0.0410355Q0.324094 0.0215511 0.362113 0.00843849Q0.400132 -0.0046741 0.441242 -0.011308Q0.482351 -0.0179418 0.526215 -0.0180428Q0.57008 -0.0181439 0.616341 -0.0117112Q0.662603 -0.00527859 0.710884 0.00763524Q0.759165 0.0205491 0.809073 0.0398388Q0.85898 0.0591285 0.910107 0.0846367Q0.961233 0.110145 1.01316 0.141664Z"/>
	</g>
	<defs>
		<clipPath id="clip_2">
			<path d="M48 -587Q48 -587.205 47.9907 -587.409Q47.9814 -587.612 47.9627 -587.814Q47.9441 -588.016 47.9162 -588.215Q47.8883 -588.415 47.8512 -588.612Q47.8141 -588.809 47.7678 -589.002Q47.7216 -589.196 47.6663 -589.387Q47.611 -589.577 47.5468 -589.764Q47.4825 -589.951 47.4095 -590.133Q47.3365 -590.316 47.2548 -590.494Q47.1732 -590.672 47.083 -590.845Q46.9929 -591.018 46.8944 -591.186Q46.7959 -591.354 46.6894 -591.516Q46.5829 -591.678 46.4684 -591.834Q46.354 -591.991 46.2319 -592.141Q46.1098 -592.291 45.9804 -592.434Q45.8509 -592.578 45.7143 -592.714Q45.5777 -592.851 45.4342 -592.98Q45.2908 -593.11 45.1407 -593.232Q44.9907 -593.354 44.8344 -593.469Q44.6781 -593.583 44.5159 -593.69Q44.3537 -593.796 44.1859 -593.894Q44.0181 -593.993 43.845 -594.083Q43.6719 -594.173 43.4939 -594.255Q43.3159 -594.337 43.1333 -594.41Q42.9508 -594.483 42.7641 -594.547Q42.5773 -594.611 42.3868 -594.666Q42.1963 -594.722 42.0024 -594.768Q41.8084 -594.814 41.6115 -594.851Q41.4146 -594.888 41.215 -594.916Q41.0155 -594.944 40.8137 -594.963Q40.612 -594.981 40.4085 -594.991Q40.2049 -595 40 -595L-319 -595Q-319.205 -595 -319.408 -594.991Q-319.612 -594.981 -319.814 -594.963Q-320.016 -594.944 -320.215 -594.916Q-320.415 -594.888 -320.612 -594.851Q-320.809 -594.814 -321.002 -594.768Q-321.196 -594.722 -321.387 -594.666Q-321.577 -594.611 -321.764 -594.547Q-321.951 -594.483 -322.133 -594.41Q-322.316 -594.337 -322.494 -594.255Q-322.672 -594.173 -322.845 -594.083Q-323.018 -593.993 -323.186 -593.894Q-323.354 -593.796 -323.516 -593.689Q-323.678 -593.583 -323.834 -593.469Q-323.991 -593.354 -324.141 -593.232Q-324.291 -593.11 -324.434 -592.98Q-324.578 -592.851 -324.714 -592.714Q-324.851 -592.578 -324.98 -592.434Q-325.11 -592.291 -325.232 -592.141Q-325.354 -591.991 -325.468 -591.835Q-325.583 -591.678 -325.689 -591.516Q-325.796 -591.354 -325.894 -591.186Q-325.993 -591.018 -326.083 -590.845Q-326.173 -590.672 -326.255 -590.494Q-326.337 -590.316 -326.41 -590.133Q-326.483 -589.951 -326.547 -589.764Q-326.611 -589.577 -326.666 -589.387Q-326.722 -589.196 -326.768 -589.002Q-326.814 -588.809 -326.851 -588.612Q-326.888 -588.415 -326.916 -588.215Q-326.944 -588.016 -326.963 -587.814Q-326.981 -587.612 -326.991 -587.409Q-327 -587.205 -327 -587L-327 64Q-327 64.2049 -326.991 64.4084Q-326.981 64.612 -326.963 64.8137Q-326.944 65.0155 -326.916 65.215Q-326.888 65.4146 -326.851 65.6115Q-326.814 65.8084 -326.768 66.0024Q-326.722 66.1963 -326.666 66.3868Q-326.611 66.5773 -326.547 66.7641Q-326.483 66.9508 -326.41 67.1333Q-326.337 67.3159 -326.255 67.4939Q-326.173 67.6719 -326.083 67.845Q-325.993 68.0181 -325.894 68.1859Q-325.796 68.3537 -325.689 68.5159Q-325.583 68.6782 -325.468 68.8344Q-325.354 68.9907 -325.232 69.1407Q-325.11 69.2908 -324.98 69.4342Q-324.851 69.5777 -324.714 69.7143Q-324.578 69.8509 -324.434 69.9804Q-324.291 70.1098 -324.141 70.2319Q-323.991 70.354 -323.834 70.4684Q-323.678 70.5829 -323.516 70.6894Q-323.354 70.796 -323.186 70.8944Q-323.018 70.9928 -322.845 71.083Q-322.672 71.1731 -322.494 71.2548Q-322.316 71.3365 -322.133 71.4095Q-321.951 71.4825 -321.764 71.5467Q-321.577 71.611 -321.387 71.6663Q-321.196 71.7215 -321.002 71.7678Q-320.809 71.814 -320.612 71.8512Q-320.415 71.8883 -320.215 71.9162Q-320.016 71.9441 -319.814 71.9627Q-319.612 71.9813 -319.408 71.9907Q-319.205 72 -319 72L40 72Q40.2049 72 40.4085 71.9907Q40.612 71.9813 40.8137 71.9627Q41.0155 71.9441 41.215 71.9162Q41.4146 71.8883 41.6115 71.8512Q41.8084 71.814 42.0024 71.7678Q42.1963 71.7215 42.3868 71.6663Q42.5773 71.611 42.7641 71.5467Q42.9508 71.4825 43.1333 71.4095Q43.3159 71.3365 43.4939 71.2548Q43.6719 71.1731 43.845 71.083Q44.0181 70.9928 44.1859 70.8944Q44.3537 70.796 44.5159 70.6894Q44.6781 70.5829 44.8344 70.4684Q44.9907 70.354 45.1407 70.2319Q45.2908 70.1098 45.4342 69.9804Q45.5777 69.8509 45.7143 69.7143Q45.8509 69.5777 45.9804 69.4342Q46.1098 69.2908 46.2319 69.1407Q46.354 68.9907 46.4684 68.8344Q46.5829 68.6782 46.6894 68.5159Q46.7959 68.3537 46.8944 68.1859Q46.9929 68.0181 47.083 67.845Q47.1732 67.6719 47.2548 67.4939Q47.3365 67.3159 47.4095 67.1333Q47.4825 66.9508 47.5468 66.7641Q47.611 66.5773 47.6663 66.3868Q47.7216 66.1963 47.7678 66.0024Q47.8141 65.8084 47.8512 65.6115Q47.8883 65.4146 47.9162 65.215Q47.9441 65.0155 47.9627 64.8137Q47.9814 64.612 47.9907 64.4084Q48 64.2049 48 64L48 -587Z" clip-rule="evenodd"/>
		</clipPath>
	</defs>
	<g clip-path="url(#clip_2)">
		<path fill="rgb(255,255,255)" stroke="none" transform="translate(20.5283 10.8679)" d="M1 0L0.811321 0Q0.914038 0 1.01276 0.0186045Q1.11148 0.037209 1.20299 0.0738122Q1.29449 0.110415 1.37581 0.163826Q1.45713 0.217236 1.52561 0.285714Q1.59408 0.354193 1.6475 0.43551Q1.70091 0.516827 1.73751 0.608335Q1.77411 0.699843 1.79272 0.798563Q1.81132 0.897283 1.81132 1L1.81132 9.26415Q1.81132 9.36687 1.79272 9.46559Q1.77411 9.56431 1.73751 9.65582Q1.70091 9.74732 1.6475 9.82864Q1.59408 9.90996 1.52561 9.97844Q1.45713 10.0469 1.37581 10.1003Q1.29449 10.1537 1.20299 10.1903Q1.11148 10.2269 1.01276 10.2455Q0.914038 10.2642 0.811321 10.2642L1 10.2642Q0.897283 10.2642 0.798563 10.2455Q0.699843 10.2269 0.608335 10.1903Q0.516827 10.1537 0.43551 10.1003Q0.354193 10.0469 0.285714 9.97844Q0.217236 9.90996 0.163826 9.82864Q0.110415 9.74732 0.0738122 9.65582Q0.037209 9.56431 0.0186045 9.46559Q0 9.36687 0 9.26415L0 1Q0 0.897283 0.0186045 0.798563Q0.037209 0.699843 0.0738122 0.608335Q0.110415 0.516827 0.163826 0.43551Q0.217236 0.354193 0.285714 0.285714Q0.354193 0.217236 0.43551 0.163826Q0.516827 0.110415 0.608335 0.0738122Q0.699843 0.037209 0.798563 0.0186045Q0.897283 0 1 0Z"/>
	</g>
</svg>
