<?xml version="1.0" encoding="utf-8" ?>
<svg xmlns="http://www.w3.org/2000/svg" xmlns:xlink="http://www.w3.org/1999/xlink" width="32" height="34">
	<defs>
		<clipPath id="clip_0">
			<path d="M96 -587Q96 -587.205 95.9907 -587.409Q95.9814 -587.612 95.9627 -587.814Q95.9441 -588.016 95.9162 -588.215Q95.8883 -588.415 95.8512 -588.612Q95.8141 -588.809 95.7678 -589.002Q95.7216 -589.196 95.6663 -589.387Q95.611 -589.577 95.5468 -589.764Q95.4825 -589.951 95.4095 -590.133Q95.3365 -590.316 95.2548 -590.494Q95.1732 -590.672 95.083 -590.845Q94.9929 -591.018 94.8944 -591.186Q94.796 -591.354 94.6894 -591.516Q94.5829 -591.678 94.4684 -591.834Q94.354 -591.991 94.2319 -592.141Q94.1099 -592.291 93.9804 -592.434Q93.8509 -592.578 93.7143 -592.714Q93.5777 -592.851 93.4342 -592.98Q93.2908 -593.11 93.1407 -593.232Q92.9907 -593.354 92.8344 -593.469Q92.6782 -593.583 92.5159 -593.69Q92.3537 -593.796 92.1859 -593.894Q92.0181 -593.993 91.845 -594.083Q91.6719 -594.173 91.4939 -594.255Q91.3159 -594.337 91.1333 -594.41Q90.9508 -594.483 90.7641 -594.547Q90.5773 -594.611 90.3868 -594.666Q90.1963 -594.722 90.0024 -594.768Q89.8084 -594.814 89.6115 -594.851Q89.4146 -594.888 89.215 -594.916Q89.0155 -594.944 88.8137 -594.963Q88.612 -594.981 88.4085 -594.991Q88.2049 -595 88 -595L-271 -595Q-271.205 -595 -271.408 -594.991Q-271.612 -594.981 -271.814 -594.963Q-272.016 -594.944 -272.215 -594.916Q-272.415 -594.888 -272.612 -594.851Q-272.808 -594.814 -273.002 -594.768Q-273.196 -594.722 -273.387 -594.666Q-273.577 -594.611 -273.764 -594.547Q-273.951 -594.483 -274.133 -594.41Q-274.316 -594.337 -274.494 -594.255Q-274.672 -594.173 -274.845 -594.083Q-275.018 -593.993 -275.186 -593.894Q-275.354 -593.796 -275.516 -593.689Q-275.678 -593.583 -275.834 -593.469Q-275.991 -593.354 -276.141 -593.232Q-276.291 -593.11 -276.434 -592.98Q-276.578 -592.851 -276.714 -592.714Q-276.851 -592.578 -276.98 -592.434Q-277.11 -592.291 -277.232 -592.141Q-277.354 -591.991 -277.469 -591.835Q-277.583 -591.678 -277.689 -591.516Q-277.796 -591.354 -277.895 -591.186Q-277.993 -591.018 -278.083 -590.845Q-278.173 -590.672 -278.255 -590.494Q-278.337 -590.316 -278.41 -590.133Q-278.483 -589.951 -278.547 -589.764Q-278.611 -589.577 -278.666 -589.387Q-278.722 -589.196 -278.768 -589.002Q-278.814 -588.809 -278.851 -588.612Q-278.888 -588.415 -278.916 -588.215Q-278.944 -588.016 -278.963 -587.814Q-278.981 -587.612 -278.991 -587.409Q-279 -587.205 -279 -587L-279 64Q-279 64.2049 -278.991 64.4084Q-278.981 64.612 -278.963 64.8137Q-278.944 65.0155 -278.916 65.215Q-278.888 65.4146 -278.851 65.6115Q-278.814 65.8084 -278.768 66.0024Q-278.722 66.1963 -278.666 66.3868Q-278.611 66.5773 -278.547 66.7641Q-278.483 66.9508 -278.41 67.1333Q-278.337 67.3159 -278.255 67.4939Q-278.173 67.6719 -278.083 67.845Q-277.993 68.0181 -277.895 68.1859Q-277.796 68.3537 -277.689 68.5159Q-277.583 68.6782 -277.469 68.8344Q-277.354 68.9907 -277.232 69.1407Q-277.11 69.2908 -276.98 69.4342Q-276.851 69.5777 -276.714 69.7143Q-276.578 69.8509 -276.434 69.9804Q-276.291 70.1098 -276.141 70.2319Q-275.991 70.354 -275.834 70.4684Q-275.678 70.5829 -275.516 70.6894Q-275.354 70.796 -275.186 70.8944Q-275.018 70.9928 -274.845 71.083Q-274.672 71.1731 -274.494 71.2548Q-274.316 71.3365 -274.133 71.4095Q-273.951 71.4825 -273.764 71.5467Q-273.577 71.611 -273.387 71.6663Q-273.196 71.7215 -273.002 71.7678Q-272.808 71.814 -272.612 71.8512Q-272.415 71.8883 -272.215 71.9162Q-272.016 71.9441 -271.814 71.9627Q-271.612 71.9813 -271.408 71.9907Q-271.205 72 -271 72L88 72Q88.2049 72 88.4085 71.9907Q88.612 71.9813 88.8137 71.9627Q89.0155 71.9441 89.215 71.9162Q89.4146 71.8883 89.6115 71.8512Q89.8084 71.814 90.0024 71.7678Q90.1963 71.7215 90.3868 71.6663Q90.5773 71.611 90.7641 71.5467Q90.9508 71.4825 91.1333 71.4095Q91.3159 71.3365 91.4939 71.2548Q91.6719 71.1731 91.845 71.083Q92.0181 70.9928 92.1859 70.8944Q92.3537 70.796 92.5159 70.6894Q92.6782 70.5829 92.8344 70.4684Q92.9907 70.354 93.1407 70.2319Q93.2908 70.1098 93.4342 69.9804Q93.5777 69.8509 93.7143 69.7143Q93.8509 69.5777 93.9804 69.4342Q94.1099 69.2908 94.2319 69.1407Q94.354 68.9907 94.4684 68.8344Q94.5829 68.6782 94.6894 68.5159Q94.796 68.3537 94.8944 68.1859Q94.9929 68.0181 95.083 67.845Q95.1732 67.6719 95.2548 67.4939Q95.3365 67.3159 95.4095 67.1333Q95.4825 66.9508 95.5468 66.7641Q95.611 66.5773 95.6663 66.3868Q95.7216 66.1963 95.7678 66.0024Q95.8141 65.8084 95.8512 65.6115Q95.8883 65.4146 95.9162 65.215Q95.9441 65.0155 95.9627 64.8137Q95.9814 64.612 95.9907 64.4084Q96 64.2049 96 64L96 -587Z" clip-rule="evenodd"/>
		</clipPath>
		<linearGradient id="gradient_0" gradientUnits="userSpaceOnUse" x1="37.948471" y1="-9.8217258" x2="-2.945689" y2="34.491329">
			<stop offset="0" stop-color="rgb(184,87,226)"/>
			<stop offset="1" stop-color="rgb(250,103,51)"/>
		</linearGradient>
	</defs>
	<g clip-path="url(#clip_0)">
		<path fill="url(#gradient_0)" stroke="none" d="M16 32C24.8366 32 32 24.8366 32 16C32 7.16344 24.8366 0 16 0C7.16344 0 0 7.16344 0 16C0 24.8366 7.16344 32 16 32Z"/>
	</g>
	<defs>
		<clipPath id="clip_1">
			<path d="M96 -587Q96 -587.205 95.9907 -587.409Q95.9814 -587.612 95.9627 -587.814Q95.9441 -588.016 95.9162 -588.215Q95.8883 -588.415 95.8512 -588.612Q95.8141 -588.809 95.7678 -589.002Q95.7216 -589.196 95.6663 -589.387Q95.611 -589.577 95.5468 -589.764Q95.4825 -589.951 95.4095 -590.133Q95.3365 -590.316 95.2548 -590.494Q95.1732 -590.672 95.083 -590.845Q94.9929 -591.018 94.8944 -591.186Q94.796 -591.354 94.6894 -591.516Q94.5829 -591.678 94.4684 -591.834Q94.354 -591.991 94.2319 -592.141Q94.1099 -592.291 93.9804 -592.434Q93.8509 -592.578 93.7143 -592.714Q93.5777 -592.851 93.4342 -592.98Q93.2908 -593.11 93.1407 -593.232Q92.9907 -593.354 92.8344 -593.469Q92.6782 -593.583 92.5159 -593.69Q92.3537 -593.796 92.1859 -593.894Q92.0181 -593.993 91.845 -594.083Q91.6719 -594.173 91.4939 -594.255Q91.3159 -594.337 91.1333 -594.41Q90.9508 -594.483 90.7641 -594.547Q90.5773 -594.611 90.3868 -594.666Q90.1963 -594.722 90.0024 -594.768Q89.8084 -594.814 89.6115 -594.851Q89.4146 -594.888 89.215 -594.916Q89.0155 -594.944 88.8137 -594.963Q88.612 -594.981 88.4085 -594.991Q88.2049 -595 88 -595L-271 -595Q-271.205 -595 -271.408 -594.991Q-271.612 -594.981 -271.814 -594.963Q-272.016 -594.944 -272.215 -594.916Q-272.415 -594.888 -272.612 -594.851Q-272.808 -594.814 -273.002 -594.768Q-273.196 -594.722 -273.387 -594.666Q-273.577 -594.611 -273.764 -594.547Q-273.951 -594.483 -274.133 -594.41Q-274.316 -594.337 -274.494 -594.255Q-274.672 -594.173 -274.845 -594.083Q-275.018 -593.993 -275.186 -593.894Q-275.354 -593.796 -275.516 -593.689Q-275.678 -593.583 -275.834 -593.469Q-275.991 -593.354 -276.141 -593.232Q-276.291 -593.11 -276.434 -592.98Q-276.578 -592.851 -276.714 -592.714Q-276.851 -592.578 -276.98 -592.434Q-277.11 -592.291 -277.232 -592.141Q-277.354 -591.991 -277.469 -591.835Q-277.583 -591.678 -277.689 -591.516Q-277.796 -591.354 -277.895 -591.186Q-277.993 -591.018 -278.083 -590.845Q-278.173 -590.672 -278.255 -590.494Q-278.337 -590.316 -278.41 -590.133Q-278.483 -589.951 -278.547 -589.764Q-278.611 -589.577 -278.666 -589.387Q-278.722 -589.196 -278.768 -589.002Q-278.814 -588.809 -278.851 -588.612Q-278.888 -588.415 -278.916 -588.215Q-278.944 -588.016 -278.963 -587.814Q-278.981 -587.612 -278.991 -587.409Q-279 -587.205 -279 -587L-279 64Q-279 64.2049 -278.991 64.4084Q-278.981 64.612 -278.963 64.8137Q-278.944 65.0155 -278.916 65.215Q-278.888 65.4146 -278.851 65.6115Q-278.814 65.8084 -278.768 66.0024Q-278.722 66.1963 -278.666 66.3868Q-278.611 66.5773 -278.547 66.7641Q-278.483 66.9508 -278.41 67.1333Q-278.337 67.3159 -278.255 67.4939Q-278.173 67.6719 -278.083 67.845Q-277.993 68.0181 -277.895 68.1859Q-277.796 68.3537 -277.689 68.5159Q-277.583 68.6782 -277.469 68.8344Q-277.354 68.9907 -277.232 69.1407Q-277.11 69.2908 -276.98 69.4342Q-276.851 69.5777 -276.714 69.7143Q-276.578 69.8509 -276.434 69.9804Q-276.291 70.1098 -276.141 70.2319Q-275.991 70.354 -275.834 70.4684Q-275.678 70.5829 -275.516 70.6894Q-275.354 70.796 -275.186 70.8944Q-275.018 70.9928 -274.845 71.083Q-274.672 71.1731 -274.494 71.2548Q-274.316 71.3365 -274.133 71.4095Q-273.951 71.4825 -273.764 71.5467Q-273.577 71.611 -273.387 71.6663Q-273.196 71.7215 -273.002 71.7678Q-272.808 71.814 -272.612 71.8512Q-272.415 71.8883 -272.215 71.9162Q-272.016 71.9441 -271.814 71.9627Q-271.612 71.9813 -271.408 71.9907Q-271.205 72 -271 72L88 72Q88.2049 72 88.4085 71.9907Q88.612 71.9813 88.8137 71.9627Q89.0155 71.9441 89.215 71.9162Q89.4146 71.8883 89.6115 71.8512Q89.8084 71.814 90.0024 71.7678Q90.1963 71.7215 90.3868 71.6663Q90.5773 71.611 90.7641 71.5467Q90.9508 71.4825 91.1333 71.4095Q91.3159 71.3365 91.4939 71.2548Q91.6719 71.1731 91.845 71.083Q92.0181 70.9928 92.1859 70.8944Q92.3537 70.796 92.5159 70.6894Q92.6782 70.5829 92.8344 70.4684Q92.9907 70.354 93.1407 70.2319Q93.2908 70.1098 93.4342 69.9804Q93.5777 69.8509 93.7143 69.7143Q93.8509 69.5777 93.9804 69.4342Q94.1099 69.2908 94.2319 69.1407Q94.354 68.9907 94.4684 68.8344Q94.5829 68.6782 94.6894 68.5159Q94.796 68.3537 94.8944 68.1859Q94.9929 68.0181 95.083 67.845Q95.1732 67.6719 95.2548 67.4939Q95.3365 67.3159 95.4095 67.1333Q95.4825 66.9508 95.5468 66.7641Q95.611 66.5773 95.6663 66.3868Q95.7216 66.1963 95.7678 66.0024Q95.8141 65.8084 95.8512 65.6115Q95.8883 65.4146 95.9162 65.215Q95.9441 65.0155 95.9627 64.8137Q95.9814 64.612 95.9907 64.4084Q96 64.2049 96 64L96 -587Z" clip-rule="evenodd"/>
		</clipPath>
	</defs>
	<g clip-path="url(#clip_1)">
		<path fill="rgb(255,255,255)" stroke="none" transform="translate(12.5262 10.7695)" d="M1.28103 0.185933L8.38426 4.46477Q8.44991 4.50432 8.50859 4.54686Q8.56726 4.5894 8.61847 4.63457Q8.66968 4.67975 8.71301 4.72719Q8.75634 4.77464 8.79144 4.82396Q8.82653 4.87329 8.85311 4.9241Q8.87968 4.97491 8.89752 5.02679Q8.91536 5.07866 8.92431 5.13118Q8.93327 5.1837 8.93327 5.23644Q8.93327 5.28917 8.92431 5.34169Q8.91536 5.39421 8.89752 5.44609Q8.87968 5.49796 8.85311 5.54877Q8.82653 5.59958 8.79144 5.64891Q8.75634 5.69824 8.71301 5.74569Q8.66968 5.79313 8.61847 5.83831Q8.56726 5.88348 8.50859 5.92602Q8.44991 5.96855 8.38426 6.0081L1.28103 10.2869Q1.21537 10.3265 1.15073 10.3585Q1.08609 10.3904 1.02298 10.4146Q0.959881 10.4387 0.898835 10.4548Q0.837788 10.4709 0.779296 10.4788Q0.720803 10.4867 0.665342 10.4864Q0.60988 10.4861 0.557902 10.4775Q0.505923 10.469 0.457852 10.4523Q0.409781 10.4356 0.366009 10.4108Q0.322237 10.3861 0.283122 10.3536Q0.244006 10.321 0.209866 10.2809Q0.175726 10.2408 0.146839 10.1934Q0.117953 10.1461 0.0945557 10.0919Q0.0711587 10.0377 0.0534418 9.9771Q0.035725 9.91651 0.0238329 9.85001Q0.0119408 9.7835 0.0059704 9.71163Q0 9.63976 0 9.56311L0 0.909763Q0 0.833113 0.0059704 0.761243Q0.0119408 0.689373 0.0238329 0.62287Q0.035725 0.556367 0.0534418 0.495773Q0.0711587 0.435178 0.0945557 0.380987Q0.117953 0.326796 0.146839 0.279449Q0.175726 0.232103 0.209866 0.191988Q0.244006 0.151873 0.283122 0.119316Q0.322237 0.0867597 0.366009 0.062027Q0.409781 0.0372943 0.457852 0.0205872Q0.505923 0.00388016 0.557902 -0.00466497Q0.60988 -0.0132101 0.665342 -0.0135236Q0.720803 -0.0138371 0.779296 -0.00591646Q0.837788 0.0020042 0.898835 0.0180944Q0.959881 0.0341847 1.02298 0.0583132Q1.08609 0.0824418 1.15073 0.114412Q1.21537 0.146382 1.28103 0.185933Z"/>
	</g>
</svg>
