<?xml version="1.0" encoding="utf-8" ?>
<svg xmlns="http://www.w3.org/2000/svg" xmlns:xlink="http://www.w3.org/1999/xlink" width="24" height="24">
  <defs>
    <clipPath id="clip_0">
      <path d="M351 -422Q351 -422.205 350.991 -422.408Q350.981 -422.612 350.963 -422.814Q350.944 -423.016 350.916 -423.215Q350.888 -423.415 350.851 -423.612Q350.814 -423.809 350.768 -424.002Q350.722 -424.196 350.666 -424.387Q350.611 -424.577 350.547 -424.764Q350.483 -424.951 350.41 -425.133Q350.337 -425.316 350.255 -425.494Q350.173 -425.672 350.083 -425.845Q349.993 -426.018 349.894 -426.186Q349.796 -426.354 349.689 -426.516Q349.583 -426.678 349.468 -426.835Q349.354 -426.991 349.232 -427.141Q349.11 -427.291 348.98 -427.434Q348.851 -427.578 348.714 -427.714Q348.578 -427.851 348.434 -427.98Q348.291 -428.11 348.141 -428.232Q347.991 -428.354 347.834 -428.468Q347.678 -428.583 347.516 -428.689Q347.354 -428.796 347.186 -428.894Q347.018 -428.993 346.845 -429.083Q346.672 -429.173 346.494 -429.255Q346.316 -429.337 346.133 -429.41Q345.951 -429.483 345.764 -429.547Q345.577 -429.611 345.387 -429.666Q345.196 -429.722 345.002 -429.768Q344.809 -429.814 344.612 -429.851Q344.415 -429.888 344.215 -429.916Q344.016 -429.944 343.814 -429.963Q343.612 -429.981 343.408 -429.991Q343.205 -430 343 -430L-16 -430Q-16.2049 -430 -16.4084 -429.991Q-16.612 -429.981 -16.8137 -429.963Q-17.0155 -429.944 -17.215 -429.916Q-17.4146 -429.888 -17.6115 -429.851Q-17.8084 -429.814 -18.0024 -429.768Q-18.1963 -429.722 -18.3868 -429.666Q-18.5773 -429.611 -18.7641 -429.547Q-18.9508 -429.483 -19.1333 -429.41Q-19.3159 -429.337 -19.4939 -429.255Q-19.6719 -429.173 -19.845 -429.083Q-20.0181 -428.993 -20.1859 -428.894Q-20.3537 -428.796 -20.5159 -428.689Q-20.6781 -428.583 -20.8344 -428.468Q-20.9907 -428.354 -21.1407 -428.232Q-21.2908 -428.11 -21.4342 -427.98Q-21.5777 -427.851 -21.7143 -427.714Q-21.8509 -427.578 -21.9804 -427.434Q-22.1098 -427.291 -22.2319 -427.141Q-22.354 -426.991 -22.4684 -426.835Q-22.5828 -426.678 -22.6894 -426.516Q-22.7959 -426.354 -22.8944 -426.186Q-22.9928 -426.018 -23.083 -425.845Q-23.1731 -425.672 -23.2548 -425.494Q-23.3365 -425.316 -23.4095 -425.133Q-23.4825 -424.951 -23.5467 -424.764Q-23.611 -424.577 -23.6663 -424.387Q-23.7216 -424.196 -23.7678 -424.002Q-23.8141 -423.809 -23.8512 -423.612Q-23.8883 -423.415 -23.9162 -423.215Q-23.9441 -423.016 -23.9627 -422.814Q-23.9813 -422.612 -23.9907 -422.408Q-24 -422.205 -24 -422L-24 229Q-24 229.205 -23.9907 229.408Q-23.9813 229.612 -23.9627 229.814Q-23.9441 230.016 -23.9162 230.215Q-23.8883 230.415 -23.8512 230.612Q-23.8141 230.808 -23.7678 231.002Q-23.7216 231.196 -23.6663 231.387Q-23.611 231.577 -23.5467 231.764Q-23.4825 231.951 -23.4095 232.133Q-23.3365 232.316 -23.2548 232.494Q-23.1732 232.672 -23.083 232.845Q-22.9928 233.018 -22.8944 233.186Q-22.7959 233.354 -22.6894 233.516Q-22.5828 233.678 -22.4684 233.834Q-22.354 233.991 -22.2319 234.141Q-22.1098 234.291 -21.9804 234.434Q-21.8509 234.578 -21.7143 234.714Q-21.5777 234.851 -21.4342 234.98Q-21.2908 235.11 -21.1407 235.232Q-20.9907 235.354 -20.8344 235.468Q-20.6781 235.583 -20.5159 235.689Q-20.3537 235.796 -20.1859 235.894Q-20.0181 235.993 -19.845 236.083Q-19.6719 236.173 -19.4939 236.255Q-19.3159 236.337 -19.1333 236.41Q-18.9508 236.483 -18.7641 236.547Q-18.5773 236.611 -18.3868 236.666Q-18.1963 236.722 -18.0024 236.768Q-17.8084 236.814 -17.6115 236.851Q-17.4146 236.888 -17.215 236.916Q-17.0155 236.944 -16.8137 236.963Q-16.612 236.981 -16.4084 236.991Q-16.2049 237 -16 237L343 237Q343.205 237 343.409 236.991Q343.612 236.981 343.814 236.963Q344.016 236.944 344.215 236.916Q344.415 236.888 344.612 236.851Q344.809 236.814 345.002 236.768Q345.196 236.722 345.387 236.666Q345.577 236.611 345.764 236.547Q345.951 236.483 346.133 236.41Q346.316 236.337 346.494 236.255Q346.672 236.173 346.845 236.083Q347.018 235.993 347.186 235.894Q347.354 235.796 347.516 235.689Q347.678 235.583 347.834 235.468Q347.991 235.354 348.141 235.232Q348.291 235.11 348.434 234.98Q348.578 234.851 348.714 234.714Q348.851 234.578 348.98 234.434Q349.11 234.291 349.232 234.141Q349.354 233.991 349.468 233.834Q349.583 233.678 349.689 233.516Q349.796 233.354 349.894 233.186Q349.993 233.018 350.083 232.845Q350.173 232.672 350.255 232.494Q350.337 232.316 350.41 232.133Q350.483 231.951 350.547 231.764Q350.611 231.577 350.666 231.387Q350.722 231.196 350.768 231.002Q350.814 230.808 350.851 230.612Q350.888 230.415 350.916 230.215Q350.944 230.016 350.963 229.814Q350.981 229.612 350.991 229.408Q351 229.205 351 229L351 -422Z" clip-rule="evenodd"/>
    </clipPath>
  </defs>
  <g clip-path="url(#clip_0)">
    <path fill="rgb(225,225,225)" stroke="none" transform="translate(2 3)" d="M10 18.35L8.55 17.03C3.4 12.36 0 9.27 0 5.5C0 2.41 2.42 0 5.5 0C7.24 0 8.91 0.81 10 2.08C11.09 0.81 12.76 0 14.5 0C17.58 0 20 2.41 20 5.5C20 9.27 16.6 12.36 11.45 17.03L10 18.35L10 18.35Z"/>
  </g>
</svg>
