<?xml version="1.0" encoding="utf-8" ?>
<svg xmlns="http://www.w3.org/2000/svg" xmlns:xlink="http://www.w3.org/1999/xlink" width="24" height="25">
  <defs>
    <clipPath id="clip_0">
      <path d="M40 -134Q40 -134.205 39.9907 -134.408Q39.9813 -134.612 39.9627 -134.814Q39.9441 -135.015 39.9162 -135.215Q39.8883 -135.415 39.8512 -135.611Q39.8141 -135.808 39.7678 -136.002Q39.7216 -136.196 39.6663 -136.387Q39.611 -136.577 39.5467 -136.764Q39.4825 -136.951 39.4095 -137.133Q39.3365 -137.316 39.2548 -137.494Q39.1731 -137.672 39.083 -137.845Q38.9929 -138.018 38.8944 -138.186Q38.796 -138.354 38.6894 -138.516Q38.5829 -138.678 38.4684 -138.834Q38.354 -138.991 38.2319 -139.141Q38.1098 -139.291 37.9804 -139.434Q37.8509 -139.578 37.7143 -139.714Q37.5777 -139.851 37.4342 -139.98Q37.2908 -140.11 37.1407 -140.232Q36.9907 -140.354 36.8344 -140.468Q36.6781 -140.583 36.5159 -140.689Q36.3537 -140.796 36.1859 -140.894Q36.0181 -140.993 35.845 -141.083Q35.6719 -141.173 35.4939 -141.255Q35.3159 -141.336 35.1333 -141.41Q34.9508 -141.483 34.7641 -141.547Q34.5773 -141.611 34.3868 -141.666Q34.1963 -141.722 34.0024 -141.768Q33.8084 -141.814 33.6115 -141.851Q33.4146 -141.888 33.215 -141.916Q33.0155 -141.944 32.8137 -141.963Q32.612 -141.981 32.4084 -141.991Q32.2049 -142 32 -142L-327 -142Q-327.205 -142 -327.408 -141.991Q-327.612 -141.981 -327.814 -141.963Q-328.016 -141.944 -328.215 -141.916Q-328.415 -141.888 -328.612 -141.851Q-328.808 -141.814 -329.002 -141.768Q-329.196 -141.722 -329.387 -141.666Q-329.577 -141.611 -329.764 -141.547Q-329.951 -141.483 -330.133 -141.41Q-330.316 -141.336 -330.494 -141.255Q-330.672 -141.173 -330.845 -141.083Q-331.018 -140.993 -331.186 -140.894Q-331.354 -140.796 -331.516 -140.689Q-331.678 -140.583 -331.834 -140.468Q-331.991 -140.354 -332.141 -140.232Q-332.291 -140.11 -332.434 -139.98Q-332.578 -139.851 -332.714 -139.714Q-332.851 -139.578 -332.98 -139.434Q-333.11 -139.291 -333.232 -139.141Q-333.354 -138.991 -333.468 -138.834Q-333.583 -138.678 -333.689 -138.516Q-333.796 -138.354 -333.894 -138.186Q-333.993 -138.018 -334.083 -137.845Q-334.173 -137.672 -334.255 -137.494Q-334.336 -137.316 -334.41 -137.133Q-334.483 -136.951 -334.547 -136.764Q-334.611 -136.577 -334.666 -136.387Q-334.722 -136.196 -334.768 -136.002Q-334.814 -135.808 -334.851 -135.611Q-334.888 -135.415 -334.916 -135.215Q-334.944 -135.015 -334.963 -134.814Q-334.981 -134.612 -334.991 -134.408Q-335 -134.205 -335 -134L-335 517Q-335 517.205 -334.991 517.408Q-334.981 517.612 -334.963 517.814Q-334.944 518.016 -334.916 518.215Q-334.888 518.415 -334.851 518.612Q-334.814 518.808 -334.768 519.002Q-334.722 519.196 -334.666 519.387Q-334.611 519.577 -334.547 519.764Q-334.483 519.951 -334.41 520.133Q-334.336 520.316 -334.255 520.494Q-334.173 520.672 -334.083 520.845Q-333.993 521.018 -333.894 521.186Q-333.796 521.354 -333.689 521.516Q-333.583 521.678 -333.469 521.834Q-333.354 521.991 -333.232 522.141Q-333.11 522.291 -332.98 522.434Q-332.851 522.578 -332.714 522.714Q-332.578 522.851 -332.434 522.98Q-332.291 523.11 -332.141 523.232Q-331.991 523.354 -331.834 523.468Q-331.678 523.583 -331.516 523.689Q-331.354 523.796 -331.186 523.894Q-331.018 523.993 -330.845 524.083Q-330.672 524.173 -330.494 524.255Q-330.316 524.337 -330.133 524.41Q-329.951 524.483 -329.764 524.547Q-329.577 524.611 -329.387 524.666Q-329.196 524.722 -329.002 524.768Q-328.808 524.814 -328.612 524.851Q-328.415 524.888 -328.215 524.916Q-328.016 524.944 -327.814 524.963Q-327.612 524.981 -327.408 524.991Q-327.205 525 -327 525L32 525Q32.2049 525 32.4084 524.991Q32.612 524.981 32.8137 524.963Q33.0155 524.944 33.215 524.916Q33.4146 524.888 33.6115 524.851Q33.8084 524.814 34.0024 524.768Q34.1963 524.722 34.3868 524.666Q34.5773 524.611 34.7641 524.547Q34.9508 524.483 35.1333 524.41Q35.3159 524.337 35.4939 524.255Q35.6719 524.173 35.845 524.083Q36.0181 523.993 36.1859 523.894Q36.3537 523.796 36.5159 523.689Q36.6781 523.583 36.8344 523.468Q36.9907 523.354 37.1407 523.232Q37.2908 523.11 37.4342 522.98Q37.5777 522.851 37.7143 522.714Q37.8509 522.578 37.9804 522.434Q38.1098 522.291 38.2319 522.141Q38.354 521.991 38.4684 521.834Q38.5829 521.678 38.6894 521.516Q38.7959 521.354 38.8944 521.186Q38.9928 521.018 39.083 520.845Q39.1731 520.672 39.2548 520.494Q39.3365 520.316 39.4095 520.133Q39.4825 519.951 39.5467 519.764Q39.611 519.577 39.6663 519.387Q39.7216 519.196 39.7678 519.002Q39.8141 518.808 39.8512 518.612Q39.8883 518.415 39.9162 518.215Q39.9441 518.016 39.9627 517.814Q39.9813 517.612 39.9907 517.408Q40 517.205 40 517L40 -134Z" clip-rule="evenodd"/>
    </clipPath>
  </defs>
  <g clip-path="url(#clip_0)">
    <path fill="rgb(225,225,225)" stroke="none" transform="translate(4 10.0344)" d="M2 0C0.9 0 0 0.903093 0 2.00687C0 3.11065 0.9 4.01375 2 4.01375C3.1 4.01375 4 3.11065 4 2.00687C4 0.903093 3.1 0 2 0ZM6 2.00687C6 0.903093 6.9 0 8 0C9.1 0 10 0.903093 10 2.00687C10 3.11065 9.1 4.01375 8 4.01375C6.9 4.01375 6 3.11065 6 2.00687ZM14 0C12.9 0 12 0.903093 12 2.00687C12 3.11065 12.9 4.01375 14 4.01375C15.1 4.01375 16 3.11065 16 2.00687C16 0.903093 15.1 0 14 0Z" fill-rule="evenodd"/>
  </g>
</svg>