<?xml version="1.0" encoding="utf-8" ?>
<svg xmlns="http://www.w3.org/2000/svg" xmlns:xlink="http://www.w3.org/1999/xlink" width="28" height="20">
	<defs>
		<clipPath id="clip_0">
			<path d="M44 -14Q44 -14.2049 43.9907 -14.4084Q43.9813 -14.612 43.9627 -14.8137Q43.9441 -15.0155 43.9162 -15.215Q43.8883 -15.4146 43.8512 -15.6115Q43.8141 -15.8084 43.7678 -16.0024Q43.7216 -16.1963 43.6663 -16.3868Q43.611 -16.5773 43.5467 -16.7641Q43.4825 -16.9508 43.4095 -17.1333Q43.3365 -17.3159 43.2548 -17.4939Q43.1732 -17.6719 43.083 -17.845Q42.9929 -18.0181 42.8944 -18.1859Q42.796 -18.3537 42.6894 -18.5159Q42.5829 -18.6781 42.4684 -18.8344Q42.354 -18.9907 42.2319 -19.1407Q42.1098 -19.2908 41.9804 -19.4342Q41.8509 -19.5777 41.7143 -19.7143Q41.5777 -19.8509 41.4342 -19.9804Q41.2908 -20.1098 41.1407 -20.2319Q40.9907 -20.354 40.8344 -20.4684Q40.6782 -20.5828 40.5159 -20.6894Q40.3537 -20.7959 40.1859 -20.8944Q40.0181 -20.9928 39.845 -21.083Q39.6719 -21.1731 39.4939 -21.2548Q39.3159 -21.3365 39.1333 -21.4095Q38.9508 -21.4825 38.7641 -21.5467Q38.5773 -21.611 38.3868 -21.6663Q38.1963 -21.7216 38.0024 -21.7678Q37.8084 -21.8141 37.6115 -21.8512Q37.4146 -21.8883 37.215 -21.9162Q37.0155 -21.9441 36.8137 -21.9627Q36.612 -21.9813 36.4085 -21.9907Q36.2049 -22 36 -22L-323 -22Q-323.205 -22 -323.408 -21.9907Q-323.612 -21.9813 -323.814 -21.9627Q-324.016 -21.9441 -324.215 -21.9162Q-324.415 -21.8883 -324.612 -21.8512Q-324.808 -21.8141 -325.002 -21.7678Q-325.196 -21.7216 -325.387 -21.6663Q-325.577 -21.611 -325.764 -21.5467Q-325.951 -21.4825 -326.133 -21.4095Q-326.316 -21.3365 -326.494 -21.2548Q-326.672 -21.1731 -326.845 -21.083Q-327.018 -20.9928 -327.186 -20.8944Q-327.354 -20.7959 -327.516 -20.6894Q-327.678 -20.5828 -327.834 -20.4684Q-327.991 -20.354 -328.141 -20.2319Q-328.291 -20.1098 -328.434 -19.9804Q-328.578 -19.8509 -328.714 -19.7143Q-328.851 -19.5777 -328.98 -19.4342Q-329.11 -19.2908 -329.232 -19.1407Q-329.354 -18.9907 -329.468 -18.8344Q-329.583 -18.6781 -329.689 -18.5159Q-329.796 -18.3537 -329.894 -18.1859Q-329.993 -18.0181 -330.083 -17.845Q-330.173 -17.6719 -330.255 -17.4939Q-330.337 -17.3159 -330.41 -17.1333Q-330.483 -16.9508 -330.547 -16.7641Q-330.611 -16.5773 -330.666 -16.3868Q-330.722 -16.1963 -330.768 -16.0024Q-330.814 -15.8084 -330.851 -15.6115Q-330.888 -15.4146 -330.916 -15.215Q-330.944 -15.0155 -330.963 -14.8137Q-330.981 -14.612 -330.991 -14.4084Q-331 -14.2049 -331 -14L-331 637Q-331 637.205 -330.991 637.409Q-330.981 637.612 -330.963 637.814Q-330.944 638.016 -330.916 638.215Q-330.888 638.415 -330.851 638.612Q-330.814 638.809 -330.768 639.002Q-330.722 639.196 -330.666 639.387Q-330.611 639.577 -330.547 639.764Q-330.483 639.951 -330.41 640.133Q-330.337 640.316 -330.255 640.494Q-330.173 640.672 -330.083 640.845Q-329.993 641.018 -329.894 641.186Q-329.796 641.354 -329.689 641.516Q-329.583 641.678 -329.468 641.834Q-329.354 641.991 -329.232 642.141Q-329.11 642.291 -328.98 642.434Q-328.851 642.578 -328.714 642.714Q-328.578 642.851 -328.434 642.98Q-328.291 643.11 -328.141 643.232Q-327.991 643.354 -327.834 643.469Q-327.678 643.583 -327.516 643.689Q-327.354 643.796 -327.186 643.895Q-327.018 643.993 -326.845 644.083Q-326.672 644.173 -326.494 644.255Q-326.316 644.337 -326.133 644.41Q-325.951 644.483 -325.764 644.547Q-325.577 644.611 -325.387 644.666Q-325.196 644.722 -325.002 644.768Q-324.808 644.814 -324.612 644.851Q-324.415 644.888 -324.215 644.916Q-324.016 644.944 -323.814 644.963Q-323.612 644.981 -323.408 644.991Q-323.205 645 -323 645L36 645Q36.2049 645 36.4085 644.991Q36.612 644.981 36.8137 644.963Q37.0155 644.944 37.215 644.916Q37.4146 644.888 37.6115 644.851Q37.8084 644.814 38.0024 644.768Q38.1963 644.722 38.3868 644.666Q38.5773 644.611 38.7641 644.547Q38.9508 644.483 39.1333 644.41Q39.3159 644.337 39.4939 644.255Q39.6719 644.173 39.845 644.083Q40.0181 643.993 40.1859 643.895Q40.3537 643.796 40.5159 643.689Q40.6782 643.583 40.8344 643.469Q40.9907 643.354 41.1407 643.232Q41.2908 643.11 41.4342 642.98Q41.5777 642.851 41.7143 642.714Q41.8509 642.578 41.9804 642.434Q42.1098 642.291 42.2319 642.141Q42.354 641.991 42.4684 641.834Q42.5829 641.678 42.6894 641.516Q42.796 641.354 42.8944 641.186Q42.9929 641.018 43.083 640.845Q43.1732 640.672 43.2548 640.494Q43.3365 640.316 43.4095 640.133Q43.4825 639.951 43.5467 639.764Q43.611 639.577 43.6663 639.387Q43.7216 639.196 43.7678 639.002Q43.8141 638.809 43.8512 638.612Q43.8883 638.415 43.9162 638.215Q43.9441 638.016 43.9627 637.814Q43.9813 637.612 43.9907 637.409Q44 637.205 44 637L44 -14Z" clip-rule="evenodd"/>
		</clipPath>
	</defs>
	<g clip-path="url(#clip_0)">
		<path fill="rgb(216,216,216)" stroke="none" transform="translate(13 0)" d="M2 0L13 0Q13.1025 0 13.2034 0.00932124Q13.3044 0.0186425 13.4029 0.037209Q13.5014 0.0557754 13.5967 0.0834357Q13.692 0.111096 13.7833 0.147624Q13.8747 0.184153 13.9612 0.229252Q14.0478 0.27435 14.129 0.327651Q14.2101 0.380953 14.2852 0.442021Q14.3602 0.50309 14.4286 0.571429Q14.4969 0.639767 14.558 0.714818Q14.619 0.789868 14.6723 0.871019Q14.7257 0.95217 14.7708 1.03876Q14.8158 1.12535 14.8524 1.21667Q14.8889 1.30799 14.9166 1.4033Q14.9442 1.49861 14.9628 1.59713Q14.9814 1.69564 14.9907 1.79657Q15 1.89749 15 2L15 2Q15 2.10251 14.9907 2.20343Q14.9814 2.30436 14.9628 2.40288Q14.9442 2.50139 14.9166 2.5967Q14.8889 2.69201 14.8524 2.78333Q14.8158 2.87465 14.7708 2.96124Q14.7257 3.04783 14.6723 3.12898Q14.619 3.21013 14.558 3.28518Q14.4969 3.36023 14.4286 3.42857Q14.3602 3.49691 14.2852 3.55798Q14.2101 3.61905 14.129 3.67235Q14.0478 3.72565 13.9612 3.77075Q13.8747 3.81585 13.7833 3.85238Q13.692 3.8889 13.5967 3.91656Q13.5014 3.94422 13.4029 3.96279Q13.3044 3.98136 13.2034 3.99068Q13.1025 4 13 4L2 4Q1.89749 4 1.79657 3.99068Q1.69564 3.98136 1.59713 3.96279Q1.49861 3.94422 1.4033 3.91656Q1.30799 3.8889 1.21667 3.85238Q1.12535 3.81585 1.03876 3.77075Q0.95217 3.72565 0.871019 3.67235Q0.789868 3.61905 0.714818 3.55798Q0.639767 3.49691 0.571429 3.42857Q0.50309 3.36023 0.442021 3.28518Q0.380953 3.21013 0.327651 3.12898Q0.27435 3.04783 0.229252 2.96124Q0.184153 2.87465 0.147624 2.78333Q0.111096 2.69201 0.0834357 2.5967Q0.0557754 2.50139 0.037209 2.40288Q0.0186425 2.30436 0.00932124 2.20343Q0 2.10251 0 2L0 2Q0 1.89749 0.00932124 1.79657Q0.0186425 1.69564 0.037209 1.59713Q0.0557754 1.49861 0.0834357 1.4033Q0.111096 1.30799 0.147624 1.21667Q0.184153 1.12535 0.229252 1.03876Q0.27435 0.95217 0.327651 0.871019Q0.380953 0.789868 0.442021 0.714818Q0.50309 0.639767 0.571429 0.571429Q0.639767 0.50309 0.714818 0.442021Q0.789868 0.380953 0.871019 0.327651Q0.95217 0.27435 1.03876 0.229252Q1.12535 0.184153 1.21667 0.147624Q1.30799 0.111096 1.4033 0.0834357Q1.49861 0.0557754 1.59713 0.037209Q1.69564 0.0186425 1.79657 0.00932124Q1.89749 0 2 0Z"/>
	</g>
	<defs>
		<clipPath id="clip_1">
			<path d="M44 -14Q44 -14.2049 43.9907 -14.4084Q43.9813 -14.612 43.9627 -14.8137Q43.9441 -15.0155 43.9162 -15.215Q43.8883 -15.4146 43.8512 -15.6115Q43.8141 -15.8084 43.7678 -16.0024Q43.7216 -16.1963 43.6663 -16.3868Q43.611 -16.5773 43.5467 -16.7641Q43.4825 -16.9508 43.4095 -17.1333Q43.3365 -17.3159 43.2548 -17.4939Q43.1732 -17.6719 43.083 -17.845Q42.9929 -18.0181 42.8944 -18.1859Q42.796 -18.3537 42.6894 -18.5159Q42.5829 -18.6781 42.4684 -18.8344Q42.354 -18.9907 42.2319 -19.1407Q42.1098 -19.2908 41.9804 -19.4342Q41.8509 -19.5777 41.7143 -19.7143Q41.5777 -19.8509 41.4342 -19.9804Q41.2908 -20.1098 41.1407 -20.2319Q40.9907 -20.354 40.8344 -20.4684Q40.6782 -20.5828 40.5159 -20.6894Q40.3537 -20.7959 40.1859 -20.8944Q40.0181 -20.9928 39.845 -21.083Q39.6719 -21.1731 39.4939 -21.2548Q39.3159 -21.3365 39.1333 -21.4095Q38.9508 -21.4825 38.7641 -21.5467Q38.5773 -21.611 38.3868 -21.6663Q38.1963 -21.7216 38.0024 -21.7678Q37.8084 -21.8141 37.6115 -21.8512Q37.4146 -21.8883 37.215 -21.9162Q37.0155 -21.9441 36.8137 -21.9627Q36.612 -21.9813 36.4085 -21.9907Q36.2049 -22 36 -22L-323 -22Q-323.205 -22 -323.408 -21.9907Q-323.612 -21.9813 -323.814 -21.9627Q-324.016 -21.9441 -324.215 -21.9162Q-324.415 -21.8883 -324.612 -21.8512Q-324.808 -21.8141 -325.002 -21.7678Q-325.196 -21.7216 -325.387 -21.6663Q-325.577 -21.611 -325.764 -21.5467Q-325.951 -21.4825 -326.133 -21.4095Q-326.316 -21.3365 -326.494 -21.2548Q-326.672 -21.1731 -326.845 -21.083Q-327.018 -20.9928 -327.186 -20.8944Q-327.354 -20.7959 -327.516 -20.6894Q-327.678 -20.5828 -327.834 -20.4684Q-327.991 -20.354 -328.141 -20.2319Q-328.291 -20.1098 -328.434 -19.9804Q-328.578 -19.8509 -328.714 -19.7143Q-328.851 -19.5777 -328.98 -19.4342Q-329.11 -19.2908 -329.232 -19.1407Q-329.354 -18.9907 -329.468 -18.8344Q-329.583 -18.6781 -329.689 -18.5159Q-329.796 -18.3537 -329.894 -18.1859Q-329.993 -18.0181 -330.083 -17.845Q-330.173 -17.6719 -330.255 -17.4939Q-330.337 -17.3159 -330.41 -17.1333Q-330.483 -16.9508 -330.547 -16.7641Q-330.611 -16.5773 -330.666 -16.3868Q-330.722 -16.1963 -330.768 -16.0024Q-330.814 -15.8084 -330.851 -15.6115Q-330.888 -15.4146 -330.916 -15.215Q-330.944 -15.0155 -330.963 -14.8137Q-330.981 -14.612 -330.991 -14.4084Q-331 -14.2049 -331 -14L-331 637Q-331 637.205 -330.991 637.409Q-330.981 637.612 -330.963 637.814Q-330.944 638.016 -330.916 638.215Q-330.888 638.415 -330.851 638.612Q-330.814 638.809 -330.768 639.002Q-330.722 639.196 -330.666 639.387Q-330.611 639.577 -330.547 639.764Q-330.483 639.951 -330.41 640.133Q-330.337 640.316 -330.255 640.494Q-330.173 640.672 -330.083 640.845Q-329.993 641.018 -329.894 641.186Q-329.796 641.354 -329.689 641.516Q-329.583 641.678 -329.468 641.834Q-329.354 641.991 -329.232 642.141Q-329.11 642.291 -328.98 642.434Q-328.851 642.578 -328.714 642.714Q-328.578 642.851 -328.434 642.98Q-328.291 643.11 -328.141 643.232Q-327.991 643.354 -327.834 643.469Q-327.678 643.583 -327.516 643.689Q-327.354 643.796 -327.186 643.895Q-327.018 643.993 -326.845 644.083Q-326.672 644.173 -326.494 644.255Q-326.316 644.337 -326.133 644.41Q-325.951 644.483 -325.764 644.547Q-325.577 644.611 -325.387 644.666Q-325.196 644.722 -325.002 644.768Q-324.808 644.814 -324.612 644.851Q-324.415 644.888 -324.215 644.916Q-324.016 644.944 -323.814 644.963Q-323.612 644.981 -323.408 644.991Q-323.205 645 -323 645L36 645Q36.2049 645 36.4085 644.991Q36.612 644.981 36.8137 644.963Q37.0155 644.944 37.215 644.916Q37.4146 644.888 37.6115 644.851Q37.8084 644.814 38.0024 644.768Q38.1963 644.722 38.3868 644.666Q38.5773 644.611 38.7641 644.547Q38.9508 644.483 39.1333 644.41Q39.3159 644.337 39.4939 644.255Q39.6719 644.173 39.845 644.083Q40.0181 643.993 40.1859 643.895Q40.3537 643.796 40.5159 643.689Q40.6782 643.583 40.8344 643.469Q40.9907 643.354 41.1407 643.232Q41.2908 643.11 41.4342 642.98Q41.5777 642.851 41.7143 642.714Q41.8509 642.578 41.9804 642.434Q42.1098 642.291 42.2319 642.141Q42.354 641.991 42.4684 641.834Q42.5829 641.678 42.6894 641.516Q42.796 641.354 42.8944 641.186Q42.9929 641.018 43.083 640.845Q43.1732 640.672 43.2548 640.494Q43.3365 640.316 43.4095 640.133Q43.4825 639.951 43.5467 639.764Q43.611 639.577 43.6663 639.387Q43.7216 639.196 43.7678 639.002Q43.8141 638.809 43.8512 638.612Q43.8883 638.415 43.9162 638.215Q43.9441 638.016 43.9627 637.814Q43.9813 637.612 43.9907 637.409Q44 637.205 44 637L44 -14Z" clip-rule="evenodd"/>
		</clipPath>
	</defs>
	<g clip-path="url(#clip_1)">
		<path fill="rgb(225,225,225)" stroke="none" transform="translate(0 1)" d="M0.850832 -0.25961L10.1345 5.47361Q10.2219 5.52759 10.2901 5.58923Q10.3583 5.65088 10.405 5.71819Q10.4517 5.78551 10.4754 5.8563Q10.4992 5.92709 10.4992 5.99905Q10.4992 6.07101 10.4754 6.14181Q10.4517 6.2126 10.405 6.27991Q10.3583 6.34722 10.2901 6.40887Q10.2219 6.47052 10.1345 6.52449L0.850832 12.2577Q0.763437 12.3117 0.679443 12.3449Q0.595449 12.3782 0.517591 12.3897Q0.439733 12.4012 0.370546 12.3905Q0.301359 12.3798 0.243095 12.3473Q0.184831 12.3148 0.139388 12.2616Q0.093945 12.2083 0.0628018 12.136Q0.0316586 12.0638 0.0158293 11.9748Q8.88178e-16 11.8859 8.88178e-16 11.7831L8.88178e-16 0.214953Q8.88178e-16 0.112235 0.0158293 0.0232911Q0.0316586 -0.0656533 0.0628018 -0.137929Q0.093945 -0.210204 0.139388 -0.263457Q0.184831 -0.31671 0.243095 -0.349208Q0.301359 -0.381705 0.370546 -0.392388Q0.439733 -0.403072 0.517591 -0.391593Q0.595449 -0.380115 0.679443 -0.346848Q0.763437 -0.313581 0.850832 -0.25961Z"/>
	</g>
	<defs>
		<clipPath id="clip_2">
			<path d="M44 -14Q44 -14.2049 43.9907 -14.4084Q43.9813 -14.612 43.9627 -14.8137Q43.9441 -15.0155 43.9162 -15.215Q43.8883 -15.4146 43.8512 -15.6115Q43.8141 -15.8084 43.7678 -16.0024Q43.7216 -16.1963 43.6663 -16.3868Q43.611 -16.5773 43.5467 -16.7641Q43.4825 -16.9508 43.4095 -17.1333Q43.3365 -17.3159 43.2548 -17.4939Q43.1732 -17.6719 43.083 -17.845Q42.9929 -18.0181 42.8944 -18.1859Q42.796 -18.3537 42.6894 -18.5159Q42.5829 -18.6781 42.4684 -18.8344Q42.354 -18.9907 42.2319 -19.1407Q42.1098 -19.2908 41.9804 -19.4342Q41.8509 -19.5777 41.7143 -19.7143Q41.5777 -19.8509 41.4342 -19.9804Q41.2908 -20.1098 41.1407 -20.2319Q40.9907 -20.354 40.8344 -20.4684Q40.6782 -20.5828 40.5159 -20.6894Q40.3537 -20.7959 40.1859 -20.8944Q40.0181 -20.9928 39.845 -21.083Q39.6719 -21.1731 39.4939 -21.2548Q39.3159 -21.3365 39.1333 -21.4095Q38.9508 -21.4825 38.7641 -21.5467Q38.5773 -21.611 38.3868 -21.6663Q38.1963 -21.7216 38.0024 -21.7678Q37.8084 -21.8141 37.6115 -21.8512Q37.4146 -21.8883 37.215 -21.9162Q37.0155 -21.9441 36.8137 -21.9627Q36.612 -21.9813 36.4085 -21.9907Q36.2049 -22 36 -22L-323 -22Q-323.205 -22 -323.408 -21.9907Q-323.612 -21.9813 -323.814 -21.9627Q-324.016 -21.9441 -324.215 -21.9162Q-324.415 -21.8883 -324.612 -21.8512Q-324.808 -21.8141 -325.002 -21.7678Q-325.196 -21.7216 -325.387 -21.6663Q-325.577 -21.611 -325.764 -21.5467Q-325.951 -21.4825 -326.133 -21.4095Q-326.316 -21.3365 -326.494 -21.2548Q-326.672 -21.1731 -326.845 -21.083Q-327.018 -20.9928 -327.186 -20.8944Q-327.354 -20.7959 -327.516 -20.6894Q-327.678 -20.5828 -327.834 -20.4684Q-327.991 -20.354 -328.141 -20.2319Q-328.291 -20.1098 -328.434 -19.9804Q-328.578 -19.8509 -328.714 -19.7143Q-328.851 -19.5777 -328.98 -19.4342Q-329.11 -19.2908 -329.232 -19.1407Q-329.354 -18.9907 -329.468 -18.8344Q-329.583 -18.6781 -329.689 -18.5159Q-329.796 -18.3537 -329.894 -18.1859Q-329.993 -18.0181 -330.083 -17.845Q-330.173 -17.6719 -330.255 -17.4939Q-330.337 -17.3159 -330.41 -17.1333Q-330.483 -16.9508 -330.547 -16.7641Q-330.611 -16.5773 -330.666 -16.3868Q-330.722 -16.1963 -330.768 -16.0024Q-330.814 -15.8084 -330.851 -15.6115Q-330.888 -15.4146 -330.916 -15.215Q-330.944 -15.0155 -330.963 -14.8137Q-330.981 -14.612 -330.991 -14.4084Q-331 -14.2049 -331 -14L-331 637Q-331 637.205 -330.991 637.409Q-330.981 637.612 -330.963 637.814Q-330.944 638.016 -330.916 638.215Q-330.888 638.415 -330.851 638.612Q-330.814 638.809 -330.768 639.002Q-330.722 639.196 -330.666 639.387Q-330.611 639.577 -330.547 639.764Q-330.483 639.951 -330.41 640.133Q-330.337 640.316 -330.255 640.494Q-330.173 640.672 -330.083 640.845Q-329.993 641.018 -329.894 641.186Q-329.796 641.354 -329.689 641.516Q-329.583 641.678 -329.468 641.834Q-329.354 641.991 -329.232 642.141Q-329.11 642.291 -328.98 642.434Q-328.851 642.578 -328.714 642.714Q-328.578 642.851 -328.434 642.98Q-328.291 643.11 -328.141 643.232Q-327.991 643.354 -327.834 643.469Q-327.678 643.583 -327.516 643.689Q-327.354 643.796 -327.186 643.895Q-327.018 643.993 -326.845 644.083Q-326.672 644.173 -326.494 644.255Q-326.316 644.337 -326.133 644.41Q-325.951 644.483 -325.764 644.547Q-325.577 644.611 -325.387 644.666Q-325.196 644.722 -325.002 644.768Q-324.808 644.814 -324.612 644.851Q-324.415 644.888 -324.215 644.916Q-324.016 644.944 -323.814 644.963Q-323.612 644.981 -323.408 644.991Q-323.205 645 -323 645L36 645Q36.2049 645 36.4085 644.991Q36.612 644.981 36.8137 644.963Q37.0155 644.944 37.215 644.916Q37.4146 644.888 37.6115 644.851Q37.8084 644.814 38.0024 644.768Q38.1963 644.722 38.3868 644.666Q38.5773 644.611 38.7641 644.547Q38.9508 644.483 39.1333 644.41Q39.3159 644.337 39.4939 644.255Q39.6719 644.173 39.845 644.083Q40.0181 643.993 40.1859 643.895Q40.3537 643.796 40.5159 643.689Q40.6782 643.583 40.8344 643.469Q40.9907 643.354 41.1407 643.232Q41.2908 643.11 41.4342 642.98Q41.5777 642.851 41.7143 642.714Q41.8509 642.578 41.9804 642.434Q42.1098 642.291 42.2319 642.141Q42.354 641.991 42.4684 641.834Q42.5829 641.678 42.6894 641.516Q42.796 641.354 42.8944 641.186Q42.9929 641.018 43.083 640.845Q43.1732 640.672 43.2548 640.494Q43.3365 640.316 43.4095 640.133Q43.4825 639.951 43.5467 639.764Q43.611 639.577 43.6663 639.387Q43.7216 639.196 43.7678 639.002Q43.8141 638.809 43.8512 638.612Q43.8883 638.415 43.9162 638.215Q43.9441 638.016 43.9627 637.814Q43.9813 637.612 43.9907 637.409Q44 637.205 44 637L44 -14Z" clip-rule="evenodd"/>
		</clipPath>
	</defs>
	<g clip-path="url(#clip_2)">
		<path fill="rgb(225,225,225)" stroke="none" transform="translate(14 8)" d="M2 0L12 0Q12.1025 0 12.2034 0.00932124Q12.3044 0.0186425 12.4029 0.037209Q12.5014 0.0557754 12.5967 0.0834357Q12.692 0.111096 12.7833 0.147624Q12.8747 0.184153 12.9612 0.229252Q13.0478 0.27435 13.129 0.327651Q13.2101 0.380953 13.2852 0.442021Q13.3602 0.50309 13.4286 0.571429Q13.4969 0.639767 13.558 0.714818Q13.619 0.789868 13.6723 0.871019Q13.7257 0.95217 13.7708 1.03876Q13.8158 1.12535 13.8524 1.21667Q13.8889 1.30799 13.9166 1.4033Q13.9442 1.49861 13.9628 1.59713Q13.9814 1.69564 13.9907 1.79657Q14 1.89749 14 2L14 2Q14 2.10251 13.9907 2.20343Q13.9814 2.30436 13.9628 2.40288Q13.9442 2.50139 13.9166 2.5967Q13.8889 2.69201 13.8524 2.78333Q13.8158 2.87465 13.7708 2.96124Q13.7257 3.04783 13.6723 3.12898Q13.619 3.21013 13.558 3.28518Q13.4969 3.36023 13.4286 3.42857Q13.3602 3.49691 13.2852 3.55798Q13.2101 3.61905 13.129 3.67235Q13.0478 3.72565 12.9612 3.77075Q12.8747 3.81585 12.7833 3.85238Q12.692 3.8889 12.5967 3.91656Q12.5014 3.94422 12.4029 3.96279Q12.3044 3.98136 12.2034 3.99068Q12.1025 4 12 4L2 4Q1.89749 4 1.79657 3.99068Q1.69564 3.98136 1.59713 3.96279Q1.49861 3.94422 1.4033 3.91656Q1.30799 3.8889 1.21667 3.85238Q1.12535 3.81585 1.03876 3.77075Q0.95217 3.72565 0.871019 3.67235Q0.789868 3.61905 0.714818 3.55798Q0.639767 3.49691 0.571429 3.42857Q0.50309 3.36023 0.442021 3.28518Q0.380953 3.21013 0.327651 3.12898Q0.27435 3.04783 0.229252 2.96124Q0.184153 2.87465 0.147624 2.78333Q0.111096 2.69201 0.0834357 2.5967Q0.0557754 2.50139 0.037209 2.40288Q0.0186425 2.30436 0.00932124 2.20343Q0 2.10251 0 2L0 2Q0 1.89749 0.00932124 1.79657Q0.0186425 1.69564 0.037209 1.59713Q0.0557754 1.49861 0.0834357 1.4033Q0.111096 1.30799 0.147624 1.21667Q0.184153 1.12535 0.229252 1.03876Q0.27435 0.95217 0.327651 0.871019Q0.380953 0.789868 0.442021 0.714818Q0.50309 0.639767 0.571429 0.571429Q0.639767 0.50309 0.714818 0.442021Q0.789868 0.380953 0.871019 0.327651Q0.95217 0.27435 1.03876 0.229252Q1.12535 0.184153 1.21667 0.147624Q1.30799 0.111096 1.4033 0.0834357Q1.49861 0.0557754 1.59713 0.037209Q1.69564 0.0186425 1.79657 0.00932124Q1.89749 0 2 0Z"/>
	</g>
	<defs>
		<clipPath id="clip_3">
			<path d="M44 -14Q44 -14.2049 43.9907 -14.4084Q43.9813 -14.612 43.9627 -14.8137Q43.9441 -15.0155 43.9162 -15.215Q43.8883 -15.4146 43.8512 -15.6115Q43.8141 -15.8084 43.7678 -16.0024Q43.7216 -16.1963 43.6663 -16.3868Q43.611 -16.5773 43.5467 -16.7641Q43.4825 -16.9508 43.4095 -17.1333Q43.3365 -17.3159 43.2548 -17.4939Q43.1732 -17.6719 43.083 -17.845Q42.9929 -18.0181 42.8944 -18.1859Q42.796 -18.3537 42.6894 -18.5159Q42.5829 -18.6781 42.4684 -18.8344Q42.354 -18.9907 42.2319 -19.1407Q42.1098 -19.2908 41.9804 -19.4342Q41.8509 -19.5777 41.7143 -19.7143Q41.5777 -19.8509 41.4342 -19.9804Q41.2908 -20.1098 41.1407 -20.2319Q40.9907 -20.354 40.8344 -20.4684Q40.6782 -20.5828 40.5159 -20.6894Q40.3537 -20.7959 40.1859 -20.8944Q40.0181 -20.9928 39.845 -21.083Q39.6719 -21.1731 39.4939 -21.2548Q39.3159 -21.3365 39.1333 -21.4095Q38.9508 -21.4825 38.7641 -21.5467Q38.5773 -21.611 38.3868 -21.6663Q38.1963 -21.7216 38.0024 -21.7678Q37.8084 -21.8141 37.6115 -21.8512Q37.4146 -21.8883 37.215 -21.9162Q37.0155 -21.9441 36.8137 -21.9627Q36.612 -21.9813 36.4085 -21.9907Q36.2049 -22 36 -22L-323 -22Q-323.205 -22 -323.408 -21.9907Q-323.612 -21.9813 -323.814 -21.9627Q-324.016 -21.9441 -324.215 -21.9162Q-324.415 -21.8883 -324.612 -21.8512Q-324.808 -21.8141 -325.002 -21.7678Q-325.196 -21.7216 -325.387 -21.6663Q-325.577 -21.611 -325.764 -21.5467Q-325.951 -21.4825 -326.133 -21.4095Q-326.316 -21.3365 -326.494 -21.2548Q-326.672 -21.1731 -326.845 -21.083Q-327.018 -20.9928 -327.186 -20.8944Q-327.354 -20.7959 -327.516 -20.6894Q-327.678 -20.5828 -327.834 -20.4684Q-327.991 -20.354 -328.141 -20.2319Q-328.291 -20.1098 -328.434 -19.9804Q-328.578 -19.8509 -328.714 -19.7143Q-328.851 -19.5777 -328.98 -19.4342Q-329.11 -19.2908 -329.232 -19.1407Q-329.354 -18.9907 -329.468 -18.8344Q-329.583 -18.6781 -329.689 -18.5159Q-329.796 -18.3537 -329.894 -18.1859Q-329.993 -18.0181 -330.083 -17.845Q-330.173 -17.6719 -330.255 -17.4939Q-330.337 -17.3159 -330.41 -17.1333Q-330.483 -16.9508 -330.547 -16.7641Q-330.611 -16.5773 -330.666 -16.3868Q-330.722 -16.1963 -330.768 -16.0024Q-330.814 -15.8084 -330.851 -15.6115Q-330.888 -15.4146 -330.916 -15.215Q-330.944 -15.0155 -330.963 -14.8137Q-330.981 -14.612 -330.991 -14.4084Q-331 -14.2049 -331 -14L-331 637Q-331 637.205 -330.991 637.409Q-330.981 637.612 -330.963 637.814Q-330.944 638.016 -330.916 638.215Q-330.888 638.415 -330.851 638.612Q-330.814 638.809 -330.768 639.002Q-330.722 639.196 -330.666 639.387Q-330.611 639.577 -330.547 639.764Q-330.483 639.951 -330.41 640.133Q-330.337 640.316 -330.255 640.494Q-330.173 640.672 -330.083 640.845Q-329.993 641.018 -329.894 641.186Q-329.796 641.354 -329.689 641.516Q-329.583 641.678 -329.468 641.834Q-329.354 641.991 -329.232 642.141Q-329.11 642.291 -328.98 642.434Q-328.851 642.578 -328.714 642.714Q-328.578 642.851 -328.434 642.98Q-328.291 643.11 -328.141 643.232Q-327.991 643.354 -327.834 643.469Q-327.678 643.583 -327.516 643.689Q-327.354 643.796 -327.186 643.895Q-327.018 643.993 -326.845 644.083Q-326.672 644.173 -326.494 644.255Q-326.316 644.337 -326.133 644.41Q-325.951 644.483 -325.764 644.547Q-325.577 644.611 -325.387 644.666Q-325.196 644.722 -325.002 644.768Q-324.808 644.814 -324.612 644.851Q-324.415 644.888 -324.215 644.916Q-324.016 644.944 -323.814 644.963Q-323.612 644.981 -323.408 644.991Q-323.205 645 -323 645L36 645Q36.2049 645 36.4085 644.991Q36.612 644.981 36.8137 644.963Q37.0155 644.944 37.215 644.916Q37.4146 644.888 37.6115 644.851Q37.8084 644.814 38.0024 644.768Q38.1963 644.722 38.3868 644.666Q38.5773 644.611 38.7641 644.547Q38.9508 644.483 39.1333 644.41Q39.3159 644.337 39.4939 644.255Q39.6719 644.173 39.845 644.083Q40.0181 643.993 40.1859 643.895Q40.3537 643.796 40.5159 643.689Q40.6782 643.583 40.8344 643.469Q40.9907 643.354 41.1407 643.232Q41.2908 643.11 41.4342 642.98Q41.5777 642.851 41.7143 642.714Q41.8509 642.578 41.9804 642.434Q42.1098 642.291 42.2319 642.141Q42.354 641.991 42.4684 641.834Q42.5829 641.678 42.6894 641.516Q42.796 641.354 42.8944 641.186Q42.9929 641.018 43.083 640.845Q43.1732 640.672 43.2548 640.494Q43.3365 640.316 43.4095 640.133Q43.4825 639.951 43.5467 639.764Q43.611 639.577 43.6663 639.387Q43.7216 639.196 43.7678 639.002Q43.8141 638.809 43.8512 638.612Q43.8883 638.415 43.9162 638.215Q43.9441 638.016 43.9627 637.814Q43.9813 637.612 43.9907 637.409Q44 637.205 44 637L44 -14Z" clip-rule="evenodd"/>
		</clipPath>
	</defs>
	<g clip-path="url(#clip_3)">
		<path fill="rgb(225,225,225)" stroke="none" transform="translate(0 16)" d="M2 0L26 0Q26.1025 0 26.2034 0.00932124Q26.3044 0.0186425 26.4029 0.037209Q26.5014 0.0557754 26.5967 0.0834357Q26.692 0.111096 26.7833 0.147624Q26.8747 0.184153 26.9612 0.229252Q27.0478 0.27435 27.129 0.327651Q27.2101 0.380953 27.2852 0.442021Q27.3602 0.50309 27.4286 0.571429Q27.4969 0.639767 27.558 0.714818Q27.6191 0.789868 27.6724 0.871019Q27.7257 0.95217 27.7708 1.03876Q27.8159 1.12535 27.8524 1.21667Q27.8889 1.30799 27.9166 1.4033Q27.9442 1.49861 27.9628 1.59713Q27.9814 1.69564 27.9907 1.79657Q28 1.89749 28 2L28 2Q28 2.10251 27.9907 2.20343Q27.9814 2.30436 27.9628 2.40288Q27.9442 2.50139 27.9166 2.5967Q27.8889 2.69201 27.8524 2.78333Q27.8159 2.87465 27.7708 2.96124Q27.7257 3.04783 27.6723 3.12898Q27.6191 3.21013 27.558 3.28518Q27.4969 3.36023 27.4286 3.42857Q27.3602 3.49691 27.2852 3.55798Q27.2101 3.61905 27.129 3.67235Q27.0478 3.72565 26.9612 3.77075Q26.8747 3.81585 26.7833 3.85238Q26.692 3.8889 26.5967 3.91656Q26.5014 3.94422 26.4029 3.96279Q26.3044 3.98136 26.2034 3.99068Q26.1025 4 26 4L2 4Q1.89749 4 1.79657 3.99068Q1.69564 3.98136 1.59713 3.96279Q1.49861 3.94422 1.4033 3.91656Q1.30799 3.8889 1.21667 3.85238Q1.12535 3.81585 1.03876 3.77075Q0.95217 3.72565 0.871019 3.67235Q0.789868 3.61905 0.714818 3.55798Q0.639767 3.49691 0.571429 3.42857Q0.50309 3.36023 0.442021 3.28518Q0.380953 3.21013 0.327651 3.12898Q0.27435 3.04783 0.229252 2.96124Q0.184153 2.87465 0.147624 2.78333Q0.111096 2.69201 0.0834357 2.5967Q0.0557754 2.50139 0.037209 2.40288Q0.0186425 2.30436 0.00932124 2.20343Q0 2.10251 0 2L0 2Q0 1.89749 0.00932124 1.79657Q0.0186425 1.69564 0.037209 1.59713Q0.0557754 1.49861 0.0834357 1.4033Q0.111096 1.30799 0.147624 1.21667Q0.184153 1.12535 0.229252 1.03876Q0.27435 0.95217 0.327651 0.871019Q0.380953 0.789868 0.442021 0.714818Q0.50309 0.639767 0.571429 0.571429Q0.639767 0.50309 0.714818 0.442021Q0.789868 0.380953 0.871019 0.327651Q0.95217 0.27435 1.03876 0.229252Q1.12535 0.184153 1.21667 0.147624Q1.30799 0.111096 1.4033 0.0834357Q1.49861 0.0557754 1.59713 0.037209Q1.69564 0.0186425 1.79657 0.00932124Q1.89749 0 2 0Z"/>
	</g>
</svg>
