<?xml version="1.0" encoding="utf-8" ?>
<svg xmlns="http://www.w3.org/2000/svg" xmlns:xlink="http://www.w3.org/1999/xlink" width="18" height="18">
  <defs>
    <clipPath id="clip_0">
      <path d="M352 -15Q352 -15.2049 351.991 -15.4084Q351.981 -15.612 351.963 -15.8137Q351.944 -16.0155 351.916 -16.215Q351.888 -16.4146 351.851 -16.6115Q351.814 -16.8084 351.768 -17.0024Q351.722 -17.1963 351.666 -17.3868Q351.611 -17.5773 351.547 -17.7641Q351.483 -17.9508 351.41 -18.1333Q351.337 -18.3159 351.255 -18.4939Q351.173 -18.6719 351.083 -18.845Q350.993 -19.0181 350.894 -19.1859Q350.796 -19.3537 350.689 -19.5159Q350.583 -19.6781 350.469 -19.8344Q350.354 -19.9907 350.232 -20.1407Q350.11 -20.2908 349.98 -20.4342Q349.851 -20.5777 349.714 -20.7143Q349.578 -20.8509 349.434 -20.9804Q349.291 -21.1098 349.141 -21.2319Q348.991 -21.354 348.834 -21.4684Q348.678 -21.5828 348.516 -21.6894Q348.354 -21.7959 348.186 -21.8944Q348.018 -21.9928 347.845 -22.083Q347.672 -22.1731 347.494 -22.2548Q347.316 -22.3365 347.133 -22.4095Q346.951 -22.4825 346.764 -22.5467Q346.577 -22.611 346.387 -22.6663Q346.196 -22.7215 346.002 -22.7678Q345.808 -22.8141 345.612 -22.8512Q345.415 -22.8883 345.215 -22.9162Q345.016 -22.9441 344.814 -22.9627Q344.612 -22.9813 344.408 -22.9907Q344.205 -23 344 -23L-15 -23Q-15.2049 -23 -15.4084 -22.9907Q-15.612 -22.9813 -15.8137 -22.9627Q-16.0155 -22.9441 -16.215 -22.9162Q-16.4146 -22.8883 -16.6115 -22.8512Q-16.8084 -22.8141 -17.0024 -22.7678Q-17.1963 -22.7215 -17.3868 -22.6663Q-17.5773 -22.611 -17.7641 -22.5467Q-17.9508 -22.4825 -18.1333 -22.4095Q-18.3159 -22.3365 -18.4939 -22.2548Q-18.6719 -22.1731 -18.845 -22.083Q-19.0181 -21.9928 -19.1859 -21.8944Q-19.3537 -21.7959 -19.5159 -21.6894Q-19.6781 -21.5828 -19.8344 -21.4684Q-19.9907 -21.354 -20.1407 -21.2319Q-20.2908 -21.1098 -20.4342 -20.9804Q-20.5777 -20.8509 -20.7143 -20.7143Q-20.8509 -20.5777 -20.9804 -20.4342Q-21.1098 -20.2908 -21.2319 -20.1407Q-21.354 -19.9907 -21.4684 -19.8344Q-21.5828 -19.6781 -21.6894 -19.5159Q-21.7959 -19.3537 -21.8944 -19.1859Q-21.9928 -19.0181 -22.083 -18.845Q-22.1731 -18.6719 -22.2548 -18.4939Q-22.3365 -18.3159 -22.4095 -18.1333Q-22.4825 -17.9508 -22.5467 -17.7641Q-22.611 -17.5773 -22.6663 -17.3868Q-22.7216 -17.1963 -22.7678 -17.0024Q-22.8141 -16.8084 -22.8512 -16.6115Q-22.8883 -16.4146 -22.9162 -16.215Q-22.9441 -16.0155 -22.9627 -15.8137Q-22.9813 -15.612 -22.9907 -15.4084Q-23 -15.2049 -23 -15L-23 636Q-23 636.205 -22.9907 636.409Q-22.9813 636.612 -22.9627 636.814Q-22.9441 637.016 -22.9162 637.215Q-22.8883 637.415 -22.8512 637.612Q-22.8141 637.808 -22.7678 638.002Q-22.7216 638.196 -22.6663 638.387Q-22.611 638.577 -22.5467 638.764Q-22.4825 638.951 -22.4095 639.133Q-22.3365 639.316 -22.2548 639.494Q-22.1731 639.672 -22.083 639.845Q-21.9928 640.018 -21.8944 640.186Q-21.7959 640.354 -21.6894 640.516Q-21.5829 640.678 -21.4684 640.834Q-21.354 640.991 -21.2319 641.141Q-21.1098 641.291 -20.9804 641.434Q-20.8509 641.578 -20.7143 641.714Q-20.5777 641.851 -20.4342 641.98Q-20.2908 642.11 -20.1407 642.232Q-19.9907 642.354 -19.8344 642.468Q-19.6781 642.583 -19.5159 642.689Q-19.3537 642.796 -19.1859 642.894Q-19.0181 642.993 -18.845 643.083Q-18.6719 643.173 -18.4939 643.255Q-18.3159 643.337 -18.1333 643.41Q-17.9508 643.483 -17.7641 643.547Q-17.5773 643.611 -17.3868 643.666Q-17.1963 643.722 -17.0024 643.768Q-16.8084 643.814 -16.6115 643.851Q-16.4146 643.888 -16.215 643.916Q-16.0155 643.944 -15.8137 643.963Q-15.612 643.981 -15.4084 643.991Q-15.2049 644 -15 644L344 644Q344.205 644 344.408 643.991Q344.612 643.981 344.814 643.963Q345.015 643.944 345.215 643.916Q345.415 643.888 345.611 643.851Q345.808 643.814 346.002 643.768Q346.196 643.722 346.387 643.666Q346.577 643.611 346.764 643.547Q346.951 643.483 347.133 643.41Q347.316 643.337 347.494 643.255Q347.672 643.173 347.845 643.083Q348.018 642.993 348.186 642.894Q348.354 642.796 348.516 642.689Q348.678 642.583 348.834 642.468Q348.991 642.354 349.141 642.232Q349.291 642.11 349.434 641.98Q349.578 641.851 349.714 641.714Q349.851 641.578 349.98 641.434Q350.11 641.291 350.232 641.141Q350.354 640.991 350.469 640.834Q350.583 640.678 350.689 640.516Q350.796 640.354 350.894 640.186Q350.993 640.018 351.083 639.845Q351.173 639.672 351.255 639.494Q351.337 639.316 351.41 639.133Q351.483 638.951 351.547 638.764Q351.611 638.577 351.666 638.387Q351.722 638.196 351.768 638.002Q351.814 637.808 351.851 637.612Q351.888 637.415 351.916 637.215Q351.944 637.016 351.963 636.814Q351.981 636.612 351.991 636.409Q352 636.205 352 636L352 -15Z" clip-rule="evenodd"/>
    </clipPath>
  </defs>
  <g clip-path="url(#clip_0)">
    <path fill="rgb(225,225,225)" stroke="none" d="M9 6.19405L3.39157 0.585617C2.61438 -0.191575 1.35699 -0.192695 0.582147 0.582147C-0.198097 1.36239 -0.191141 2.61481 0.585617 3.39157L6.19405 9L0.585617 14.6084C-0.191575 15.3856 -0.192695 16.643 0.582147 17.4179C1.36239 18.1981 2.61481 18.1911 3.39157 17.4144L9 11.806L14.6084 17.4144C15.3856 18.1916 16.643 18.1927 17.4179 17.4179C18.1981 16.6376 18.1911 15.3852 17.4144 14.6084L11.806 9L17.4144 3.39157C18.1916 2.61438 18.1927 1.35699 17.4179 0.582147C16.6376 -0.198097 15.3852 -0.191141 14.6084 0.585617L9 6.19405L9 6.19405Z"/>
  </g>
</svg>